<?xml version="1.0" encoding="UTF-8" standalone="no"?>
<svg
   xmlns:dc="http://purl.org/dc/elements/1.1/"
   xmlns:cc="http://creativecommons.org/ns#"
   xmlns:rdf="http://www.w3.org/1999/02/22-rdf-syntax-ns#"
   xmlns:svg="http://www.w3.org/2000/svg"
   xmlns="http://www.w3.org/2000/svg"
   xmlns:xlink="http://www.w3.org/1999/xlink"
   xmlns:sodipodi="http://sodipodi.sourceforge.net/DTD/sodipodi-0.dtd"
   xmlns:inkscape="http://www.inkscape.org/namespaces/inkscape"
   width="583.61029"
   height="583.61029"
   version="1.1"
   id="svg2"
   inkscape:version="0.91 r13725"
   sodipodi:docname="loxo.svg">
  <metadata
     id="metadata26">
    <rdf:RDF>
      <cc:Work
         rdf:about="">
        <dc:format>image/svg+xml</dc:format>
        <dc:type
           rdf:resource="http://purl.org/dc/dcmitype/StillImage" />
        <dc:title></dc:title>
      </cc:Work>
    </rdf:RDF>
  </metadata>
  <sodipodi:namedview
     pagecolor="#ffffff"
     bordercolor="#666666"
     borderopacity="1"
     objecttolerance="10"
     gridtolerance="10"
     guidetolerance="10"
     inkscape:pageopacity="0"
     inkscape:pageshadow="2"
     inkscape:window-width="917"
     inkscape:window-height="528"
     id="namedview24"
     showgrid="false"
     fit-margin-top="5"
     fit-margin-left="5"
     fit-margin-right="5"
     fit-margin-bottom="5"
     inkscape:zoom="0.39072848"
     inkscape:cx="291.80514"
     inkscape:cy="291.80514"
     inkscape:window-x="0"
     inkscape:window-y="23"
     inkscape:window-maximized="0"
     inkscape:current-layer="svg2" />
  <defs
     id="defs4">
    <path
       id="sphere"
       d="m 496,573.8 -14.22491,-0.37249 -14.18593,-1.11646 -14.10805,-1.85736 -13.99151,-2.59317 -13.83662,-3.32188 -13.6438,-4.04148 -13.41359,-4.75 -13.14661,-5.4455 -12.8436,-6.12609 -12.50538,-6.78987 -12.13289,-7.43504 -11.72714,-8.05984 -11.28925,-8.66255 -10.82042,-9.24151 -10.32192,-9.79514 -9.79514,-10.32192 -9.24151,-10.82042 -8.66255,-11.28925 -8.05984,-11.72714 -7.43504,-12.13289 -6.78987,-12.50538 -6.12609,-12.8436 -5.4455,-13.14661 -4.75,-13.41359 -4.04148,-13.6438 -3.32188,-13.83662 -2.59317,-13.99151 -1.85736,-14.10805 -1.11646,-14.18593 L 224.2,302 l 0.37249,-14.22491 1.11646,-14.18593 1.85736,-14.10805 2.59317,-13.99151 3.32188,-13.83662 4.04148,-13.6438 4.75,-13.41359 5.4455,-13.14661 6.12609,-12.8436 6.78987,-12.50538 7.43504,-12.13289 8.05984,-11.72714 8.66255,-11.28925 9.24151,-10.82042 9.79514,-10.32192 10.32192,-9.79514 10.82042,-9.241512 11.28925,-8.662547 11.72714,-8.059841 12.13289,-7.435045 12.50538,-6.789868 12.8436,-6.126082 13.14661,-5.445505 13.41359,-4.750001 13.6438,-4.041479 13.83662,-3.321878 13.99151,-2.593173 14.10805,-1.85736 14.18593,-1.116457 L 496,30.2 l 14.22491,0.372492 14.18593,1.116457 14.10805,1.85736 13.99151,2.593173 13.83662,3.321878 13.6438,4.041479 13.41359,4.750001 13.14661,5.445505 12.8436,6.126082 12.50538,6.789868 12.13289,7.435045 11.72714,8.059841 11.28925,8.662547 10.82042,9.241512 10.32192,9.79514 9.79514,10.32192 9.24151,10.82042 8.66255,11.28925 8.05984,11.72714 7.43504,12.13289 6.78987,12.50538 6.12609,12.8436 5.4455,13.14661 4.75,13.41359 4.04148,13.6438 3.32188,13.83662 2.59317,13.99151 1.85736,14.10805 1.11646,14.18593 L 767.8,302 l -0.37249,14.22491 -1.11646,14.18593 -1.85736,14.10805 -2.59317,13.99151 -3.32188,13.83662 -4.04148,13.6438 -4.75,13.41359 -5.4455,13.14661 -6.12609,12.8436 -6.78987,12.50538 -7.43504,12.13289 -8.05984,11.72714 -8.66255,11.28925 -9.24151,10.82042 -9.79514,10.32192 -10.32192,9.79514 -10.82042,9.24151 -11.28925,8.66255 -11.72714,8.05984 -12.13289,7.43504 -12.50538,6.78987 -12.8436,6.12609 -13.14661,5.4455 -13.41359,4.75 -13.6438,4.04148 -13.83662,3.32188 -13.99151,2.59317 -14.10805,1.85736 -14.18593,1.11646 L 496,573.8 Z"
       style="display:inline"
       inkscape:connector-curvature="0" />
  </defs>
  <use
     class="stroke"
     xlink:href="#sphere"
     style="display:inline;fill:none;stroke:#000000;stroke-width:30px"
     id="use7"
     x="0"
     y="0"
     width="100%"
     height="100%"
     transform="translate(-204.19486,-10.194858)" />
  <path
     class="loxodrome"
     d="m 25.111982,239.3647 -0.0936,0.48 -0.58662,3.2208 -0.51612,3.22769 -0.44551,3.23358 -0.37483,3.23844 -0.30408,3.24231 -0.2333,3.24516 -0.16249,3.24698 -0.0917,3.24781 -0.0209,3.24761 0.0498,3.24641 0.12045,3.24419 0.19102,3.24097 0.26149,3.23673 0.33182,3.2315 0.40201,3.22526 0.47202,3.21802 0.54184,3.20978 0.61146,3.20056 0.68084,3.19034 0.74998,3.17913 0.81883,3.16695 0.88739,3.15379 0.95566,3.13965 1.02358,3.12456 1.09115,3.1085 1.15835,3.09148 1.22517,3.07352 1.29156,3.05461 1.35755,3.03477 1.42307,3.014 1.48813,2.99231 1.55271,2.9697 1.61678,2.94619 1.68033,2.92178 1.74335,2.89648 1.80579,2.8703 1.86768,2.84325 1.92896,2.81533 1.98964,2.78657 2.04969,2.75694 2.10909,2.72651 2.16784,2.69523 2.2259,2.66315 2.28328,2.63026 2.33995,2.59658 2.39588,2.56212 2.45109,2.52689 2.50553,2.49091 2.5592,2.45417 2.6121,2.41671 2.66418,2.37852 2.71546,2.33962 2.76591,2.30002 2.81552,2.25974 2.86428,2.2188 2.91216,2.17719 2.95917,2.13493 3.005278,2.09205 3.0505,2.04856 3.09478,2.00444 3.13816,1.95976 3.18059,1.91449 3.22206,1.86865 3.26258,1.82229 3.30213,1.77538 3.34069,1.72795 3.37827,1.68003 3.41485,1.63162 3.45041,1.58274 3.48497,1.5334 3.5185,1.48362 3.55098,1.43342 3.58244,1.3828 3.61284,1.33179 3.64219,1.28041 3.67048,1.22866 3.69769,1.17656 3.72384,1.12414 3.7489,1.0714 3.77288,1.01837 3.79578,0.96505 3.81756,0.91146 3.83827,0.85763 3.85785,0.80357 3.87635,0.74929 3.89372,0.6948 3.90999,0.64015 3.92515,0.58531 3.93917,0.53033 3.9521,0.47522 3.96389,0.41999 3.97457,0.36466 3.98413,0.30924 3.99256,0.25376 3.99987,0.19822 4.00605,0.14266 4.01113,0.0871 4.01507,0.0315 4.01791,-0.0241 4.01961,-0.0796 4.02021,-0.13513 4.0197,-0.19056 4.01807,-0.24591 4.01534,-0.30116 4.0115,-0.35631 4.00656,-0.41133 4.00053,-0.4662 3.9934,-0.52091 3.9852,-0.57545 3.97589,-0.62979 3.96553,-0.68394 3.95409,-0.73785 3.94158,-0.79153 3.92801,-0.84496 3.91339,-0.89812 3.89773,-0.951 3.88102,-1.00358 3.86329,-1.05584 3.84453,-1.10779 3.82475,-1.1594 3.80398,-1.21063 3.78219,-1.26151 3.75943,-1.31201 3.73567,-1.3621 3.71096,-1.41178 3.68527,-1.46105 3.65864,-1.50986 3.63106,-1.55824 3.60256,-1.60614 3.57313,-1.65357 3.54279,-1.70052 3.51157,-1.74695 3.47944,-1.79287 3.44644,-1.83827 3.41259,-1.88313 3.37788,-1.92744 3.34233,-1.97118 3.30596,-2.01436 3.26878,-2.05695 3.23079,-2.09895 3.19201,-2.14034 3.15247,-2.18111 3.11217,-2.22125 3.07111,-2.26077 3.02933,-2.29964 2.98682,-2.33785 2.94362,-2.37539 2.89973,-2.41226 2.85516,-2.44846 2.80992,-2.48395 2.76406,-2.51875 2.71755,-2.55284 2.67043,-2.58621 2.62272,-2.61886 2.57441,-2.65078 2.52555,-2.68197 2.47613,-2.7124 2.42617,-2.74208 2.37569,-2.771 2.32471,-2.79917 2.27325,-2.82656 2.2213,-2.85317 2.16891,-2.879 2.11607,-2.90405 2.06281,-2.9283 2.00915,-2.95175 1.9551,-2.97441 1.90068,-2.99626 1.84589,-3.0173 1.79077,-3.03753 1.73533,-3.05694 1.67958,-3.07553 1.62355,-3.0933 1.56725,-3.11024 1.51068,-3.12636 1.45388,-3.14165 1.39687,-3.1561 1.33965,-3.16972 1.28223,-3.18251 1.22467,-3.19447 1.16693,-3.20557 1.10907,-3.21586 1.05109,-3.22529 0.993,-3.2339 0.93484,-3.24166 0.8766,-3.24859 0.81832,-3.25468 0.75999,-3.25994 0.70166,-3.26435 0.64332,-3.26794 0.585,-3.2707 0.52672,-3.27262 0.46847,-3.27373 0.4103,-3.27399 0.35221,-3.27344 0.29422,-3.27207 0.23633,-3.26988 0.17859,-3.26688 0.12099,-3.26307 0.0635,-3.25845 0.006,-3.25303 -0.0508,-3.24681 -0.10764,-3.23979 -0.16428,-3.23199 -0.22067,-3.22339 -0.27681,-3.21403 -0.33268,-3.20389 -0.38827,-3.19297 -0.44356,-3.1813 -0.49852,-3.16886 -0.55317,-3.15568 -0.60747,-3.14175 -0.66141,-3.12707 -0.71498,-3.11168 -0.76817,-3.09554 -0.82096,-3.0787 -0.87333,-3.06114 -0.92529,-3.04289 -0.9768,-3.02392 -1.02786,-3.00428 -1.07847,-2.98395 -1.12858,-2.96295 -1.17822,-2.94128 -1.22735,-2.91897 -1.27596,-2.896 -1.32407,-2.87239 -1.37162,-2.84816 -1.41863,-2.8233 -1.46508,-2.79782 -1.51096,-2.77176 -1.55626,-2.7451 -1.60097,-2.71784 -1.64508,-2.69003 -1.68858,-2.66164 -1.73145,-2.6327 -1.77369,-2.60321 -1.8153,-2.5732 -1.85625,-2.54266 -1.89655,-2.51161 -1.93617,-2.48005 -1.97512,-2.448 -2.01339,-2.41547 -2.05096,-2.38247 -2.08784,-2.34902 -2.124,-2.315108 -2.15946,-2.28076 -2.19418,-2.24599 -2.22818,-2.21081 -2.26145,-2.17522 -2.29397,-2.13924 -2.32574,-2.102877 -2.35677,-2.066146 -2.38702,-2.029056 -2.41652,-1.991622 -2.44524,-1.953853 -2.47319,-1.915761 -2.50035,-1.877358 -2.52675,-1.838656 -2.55234,-1.799667 -2.57714,-1.760402 -2.60115,-1.720874 -2.62436,-1.681095 -2.64676,-1.641075 -2.66837,-1.600829 -2.68915,-1.560366 -2.70913,-1.519699 -2.72831,-1.478842 -2.74665,-1.437803 -2.76419,-1.396598 -2.7809,-1.355237 -2.7968,-1.313732 -2.81188,-1.272095 -2.82613,-1.230338 -2.83957,-1.188474 -2.85218,-1.146513 -2.86397,-1.104469 -2.87494,-1.062352 -2.88508,-1.020174 -2.89441,-0.977949 -2.90291,-0.935686 -2.9106,-0.893398 -2.91747,-0.851097 -2.92352,-0.808794 -2.92876,-0.7665 -2.93319,-0.724228 -2.93681,-0.681988 -2.93962,-0.639793 -2.94162,-0.597653 -2.94283,-0.555579 -2.94324,-0.513584 -2.94284,-0.471678 -2.94167,-0.429871 -2.9397,-0.388175 -2.93694,-0.346602 -2.93342,-0.305161 -2.9291,-0.263863 -2.92403,-0.22272 -2.91819,-0.181741 -2.91159,-0.140937 -2.90422,-0.100318 -2.89611,-0.0599 -2.88727,-0.01968 -2.87766,0.02032 -2.86734,0.0601 -2.85629,0.09964 -2.84452,0.138937 -2.83202,0.177978 -2.81884,0.216755 -2.80493,0.255257 -2.79035,0.293479 -2.77507,0.331406 -2.75912,0.369035 -2.74249,0.406352 -2.7252,0.443352 -2.70725,0.480025 -2.68866,0.516362 -2.66942,0.552355 -2.64955,0.587997 -2.62906,0.623279 -2.60795,0.658192 -2.58624,0.69273 -2.56393,0.726884 -2.54102,0.760649 -2.51755,0.794014 -2.49349,0.826975 -2.46888,0.859522 -2.44371,0.891652 -2.41801,0.923355 -2.39176,0.954625 -2.365,0.985456 -2.33771,1.015843 -2.30994,1.045778 -2.28165,1.075255 -2.2529,1.10427 -2.22366,1.132816 -2.19396,1.160886 -2.16381,1.188479 -2.13321,1.215586 -2.10219,1.242203 -2.07074,1.268326 -2.03888,1.293949 -2.00662,1.319068 -1.97397,1.34368 -1.94094,1.367779 -1.90754,1.391362 -1.87379,1.414424 -1.83968,1.436962 -1.80526,1.458974 -1.77049,1.480453 -1.73541,1.501399 -1.70004,1.521808 -1.66437,1.541677 -1.62843,1.561003 -1.59221,1.579784 -1.55574,1.598017 -1.51902,1.615701 -1.48206,1.632832 -1.44489,1.649409 -1.40749,1.665432 -1.3699,1.680897 -1.33212,1.695804 -1.29416,1.710159 -1.25603,1.72393 -1.21775,1.73716 -1.17931,1.74983 -1.14075,1.76192 -1.10206,1.773458 -1.06326,1.78443 -1.02437,1.79483 -0.98537,1.80469 -0.94631,1.81396 -0.90717,1.82268 -0.86798,1.83083 -0.82874,1.83843 -0.78948,1.84546 -0.75018,1.85193 -0.71087,1.85784 -0.67157,1.8632 -0.63226,1.86799 -0.59298,1.87224 -0.55374,1.87592 -0.51452,1.87906 -0.47536,1.88166 -0.43627,1.88369 -0.39724,1.88519 -0.3583,1.88615 -0.31945,1.88655 -0.28069,1.88644 -0.24207,1.88578 -0.20354,1.88459 -0.16517,1.88287 -0.12693,1.88063 -0.0888,1.87786 -0.0509,1.87459 -0.0132,1.87078 0.0244,1.86648 0.0618,1.86166 0.099,1.85635 0.13597,1.85052 0.17273,1.84422 0.20927,1.83741 0.24557,1.83012 0.28162,1.82235 0.31744,1.81411 0.35298,1.80538 0.38825,1.7962 0.42326,1.78655 0.45797,1.77644 0.49239,1.76588 0.52652,1.75488 0.56032,1.74343 0.59383,1.73155 0.627,1.71924 0.65984,1.7065 0.69234,1.69334 0.7245,1.67977 0.75631,1.66579 0.78775,1.65141 0.81884,1.63664 0.84954,1.62148 0.87987,1.60592 0.90982,1.59001 0.93937,1.57371 0.96853,1.55706 0.99728,1.54003 1.02562,1.52268 1.05355,1.50496 1.08107,1.48691 1.10814,1.46854 1.1348,1.44983 1.16102,1.43081 1.1868,1.41148 1.21213,1.39184 1.23701,1.37192 1.26144,1.35169 1.28542,1.33119 1.30892,1.31041 1.33197,1.28936 1.35454,1.26806 1.37663,1.2465 1.39826,1.22468 1.4194,1.20264 1.44006,1.18036 1.46022,1.15786 1.47991,1.13513 1.49909,1.11221 1.51778,1.08907 1.53598,1.06574 1.55367,1.04222 1.57086,1.01852 1.58755,0.99466 1.60373,0.97062 1.6194,0.94642 1.63456,0.92208 1.64921,0.89759 1.66335,0.87297 1.67698,0.84822 1.69009,0.82334 1.70268,0.79836 1.71476,0.77326 1.72632,0.74808 1.73737,0.72279 1.7479,0.69743 1.75791,0.67198 1.7674,0.64647 1.77637,0.62091 1.78483,0.59527 1.79278,0.5696 1.8002,0.54388 1.80711,0.51814 1.8135,0.49237 1.81939,0.46657 1.82476,0.44077 1.82961,0.41497 1.83397,0.38916 1.8378,0.36337 1.84113,0.3376 1.84397,0.31184 1.84628,0.28612 1.84812,0.26043 1.84943,0.2348 1.85027,0.2092 1.8506,0.18368 1.85044,0.15821 1.84979,0.13282 1.84866,0.10749 1.84704,0.0823 1.84495,0.0571 1.84237,0.0321 1.83932,0.007 1.83581,-0.0177 1.83181,-0.0424 1.82736,-0.067 1.82245,-0.0915 1.81709,-0.11582 1.81126,-0.14001 1.80499,-0.16407 1.79828,-0.18796 1.79112,-0.2117 1.78353,-0.23528 1.77551,-0.2587 1.76706,-0.28193 1.75819,-0.30499 1.74889,-0.32786 1.73919,-0.35055 1.72907,-0.37304 1.71855,-0.39533 1.70764,-0.41741 1.69633,-0.43929 1.68462,-0.46096 1.67255,-0.4824 1.66008,-0.50361 1.64724,-0.52461 1.63405,-0.54537 1.62048,-0.56588 1.60655,-0.58617 1.59229,-0.6062 1.57767,-0.62598 1.56271,-0.64551 1.54742,-0.66478 1.53181,-0.6838 1.51586,-0.70254 1.49961,-0.72101 1.48304,-0.73922 1.46617,-0.75715 1.44901,-0.77479 1.43155,-0.79216 1.4138,-0.80923 1.39578,-0.82603 1.37749,-0.84252 1.35892,-0.85873 1.34011,-0.87463 1.32103,-0.89023 1.3017,-0.90553 1.28215,-0.92053 1.26234,-0.93522 1.24233,-0.94959 1.22207,-0.96365 1.20162,-0.9774 1.18095,-0.99084 1.16008,-1.00395 1.13902,-1.01673 1.11777,-1.02921 1.09634,-1.04136 1.07473,-1.05317 1.05296,-1.06467 1.03102,-1.07583 1.00893,-1.08666 0.9867,-1.09717 0.96432,-1.10734 0.9418,-1.11718 0.91917,-1.12668 0.8964,-1.13585 0.87353,-1.14468 0.85055,-1.15319 0.82747,-1.16134 0.80429,-1.16917 0.78103,-1.17666 0.75768,-1.1838 0.73427,-1.19062 0.71078,-1.1971 0.68723,-1.20323 0.66364,-1.20903 0.63998,-1.21449 0.6163,-1.21962 0.59257,-1.2244 0.56883,-1.22886 0.54505,-1.23298 0.52126,-1.23675 0.49747,-1.24021 0.47366,-1.24332 0.44988,-1.24611 0.42608,-1.24855 0.40233,-1.25068 0.37857,-1.25247 0.35486,-1.25393 0.33118,-1.25507 0.30754,-1.25588 0.28394,-1.25638 0.26041,-1.25654 0.23693,-1.25638 0.21351,-1.25592 0.19017,-1.25513 0.16691,-1.25402 0.14372,-1.25261 0.12062,-1.25088 0.0976,-1.24885 0.0747,-1.2465 0.0519,-1.24385 0.0292,-1.24091 0.007,-1.23766 -0.0158,-1.23411 -0.0381,-1.23027 -0.0603,-1.22614 -0.0824,-1.22172 -0.10426,-1.21701 -0.12603,-1.21201 -0.14764,-1.20674 -0.1691,-1.20119 -0.19039,-1.19536 -0.21152,-1.18925 -0.23247,-1.18289 -0.25326,-1.17625 -0.27385,-1.16936 -0.29427,-1.16219 -0.31449,-1.15478 -0.33453,-1.14711 -0.35436,-1.13919 -0.374,-1.13102 -0.39342,-1.12262 -0.41263,-1.11397 -0.43164,-1.10508 -0.45043,-1.09597 -0.46898,-1.08663 -0.48732,-1.07706 -0.50544,-1.06726 -0.5233,-1.05726 -0.54095,-1.04703 -0.55835,-1.03661 -0.5755,-1.02596 -0.59242,-1.01513 -0.60908,-1.00409 -0.62549,-0.99285 -0.64165,-0.98143 -0.65755,-0.96983 -0.67319,-0.95803 -0.68856,-0.94607 -0.70367,-0.93392 -0.71851,-0.92161 -0.73308,-0.90913 -0.74738,-0.89649 -0.76139,-0.8837 -0.77515,-0.87075 -0.7886,-0.85764 -0.80179,-0.84441 -0.81469,-0.83102 -0.8273,-0.8175 -0.83962,-0.80385 -0.85166,-0.79006 -0.86341,-0.77617 -0.87486,-0.76215 -0.88603,-0.74801 -0.89689,-0.73376 -0.90746,-0.71941 -0.91773,-0.70496 -0.92771,-0.69041 -0.93738,-0.67576 -0.94676,-0.66104 -0.95583,-0.64621 -0.96461,-0.63132 -0.97308,-0.61635 -0.98125,-0.60131 -0.98911,-0.58619 -0.99667,-0.57102 -1.00393,-0.5558 -1.01089,-0.54051 -1.01753,-0.52517 -1.02387,-0.5098 -1.02992,-0.49437 -1.03565,-0.47892 -1.04109,-0.46342 -1.04621,-0.44791 -1.05104,-0.43237 -1.05556,-0.41681 -1.05977,-0.40122 -1.0637,-0.38564 -1.06731,-0.37004 -1.07062,-0.35444 -1.07364,-0.33885 -1.07636,-0.32324 -1.07877,-0.30767 -1.08089,-0.29208 -1.08272,-0.276538 -1.08426,-0.261 -1.08548,-0.24549 -1.08644,-0.23 -1.08708,-0.21456 -1.08745,-0.19915 -1.08753,-0.18378 -1.08732,-0.16844 -1.08683,-0.15317 -1.08605,-0.13794 -1.08499,-0.12277 -1.08366,-0.10766 -1.08204,-0.0926 -1.08015,-0.0776 -1.07799,-0.0627 -1.07556,-0.0479 -1.07285,-0.0331 -1.06989,-0.0184 -1.06665,-0.004 -1.06316,0.0107 -1.0594,0.0251 -1.05538,0.0395 -1.05112,0.0537 -1.0466,0.0678 -1.04183,0.0819 -1.03681,0.0958 -1.03156,0.1096 -1.02605,0.12331 -1.0203,0.13689 -1.01433,0.15037 -1.00813,0.16372 -1.00168,0.17694 -0.99501,0.19004 -0.98812,0.20302 -0.98102,0.21585 -0.97368,0.22856 -0.96613,0.24113 -0.95838,0.253548 -0.95042,0.26585 -0.94225,0.27798 -0.93387,0.28998 -0.92531,0.30183 -0.91655,0.31353 -0.90758,0.32506 -0.89845,0.33646 -0.88911,0.34768 -0.87961,0.35875 -0.86992,0.36966 -0.86006,0.3804 -0.85002,0.39098 -0.83983,0.40139 -0.82947,0.41164 -0.81895,0.4217 -0.80826,0.43161 -0.79744,0.44133 -0.78646,0.45088 -0.77534,0.46024 -0.76407,0.46945 -0.75268,0.47845 -0.74113,0.48729 -0.72948,0.49594 -0.71768,0.5044 -0.70577,0.51268 -0.69374,0.52078 -0.6816,0.52869 -0.66933,0.5364 -0.65698,0.54394 -0.64451,0.55127 -0.63195,0.55842 -0.61928,0.56539 -0.60654,0.57214 -0.5937,0.57872 -0.58077,0.5851 -0.56777,0.59129 -0.5547,0.59727 -0.54154,0.60307 -0.52833,0.60867 -0.51505,0.61407 -0.5017,0.61928 -0.48831,0.62429 -0.47485,0.62911 -0.46136,0.63372 -0.44781,0.63815 -0.43422,0.64236 -0.4206,0.6464 -0.40694,0.65023 -0.39326,0.65386 -0.37954,0.6573 -0.36581,0.66055 -0.35205,0.66358 -0.33828,0.66644 -0.32451,0.6691 -0.31072,0.67155 -0.29692,0.67382 -0.28314,0.6759 -0.26935,0.67777 -0.25557,0.67946 -0.24179,0.68095 -0.22805,0.68226 -0.2143,0.68337 -0.20059,0.6843 -0.1869,0.68503 -0.17324,0.68558 -0.1596,0.68594 -0.14601,0.68611 -0.13245,0.6861 -0.11894,0.68591 -0.10546,0.68553 -0.092,0.68497 -0.0787,0.68424 -0.0654,0.68332 -0.0521,0.68222 -0.0389,0.68094 -0.0258,0.67951 -0.0127,0.67788 2.8e-4,0.67608 0.0132,0.67413 0.026,0.67198 0.0388,0.66969 0.0515,0.66722 0.0641,0.66459 0.0766,0.66179 0.089,0.65884 0.10134,0.65572 0.11357,0.65244 0.1257,0.64902 0.13772,0.64543 0.14965,0.64169 0.16146,0.63781 0.17317,0.63377 0.18476,0.62959 0.19624,0.62526 0.20761,0.62079 0.21886,0.61618 0.22997,0.61143 0.24098,0.60654 0.25186,0.60153 0.2626,0.59636 0.27322,0.59109 0.28371,0.58567 0.29406,0.58013 0.30428,0.57447 0.31435,0.56869 0.3243,0.56278 0.33409,0.55677 0.34375,0.55062 0.35326,0.54438 0.36262,0.53802 0.37183,0.53155 0.38091,0.52498 0.38981,0.5183 0.39858,0.51153 0.40719,0.50465 0.41563,0.49768 0.42393,0.49062 0.43207,0.48345 0.44005,0.47621 0.44786,0.46888 0.45552,0.46146 0.463,0.45396 0.47034,0.44638 0.4775,0.43873 0.4845,0.431 0.49132,0.42319 0.49799,0.41533 0.50449,0.40739 0.51081,0.39939 0.51696,0.39132 0.52295,0.3832 0.52876,0.37501 0.53441,0.36679 0.53988,0.35849 0.54517,0.35016 0.5503,0.34178 0.55525,0.33334 0.56003,0.32488 0.56463,0.31637 0.56906,0.30781 0.57331,0.29924 0.5774,0.29062 0.5813,0.28198 0.58503,0.27331 0.58859,0.26461 0.59198,0.25589 0.59518,0.24716 0.59821,0.2384 0.60108,0.22962 0.60376,0.22085 0.60627,0.21205 0.60862,0.20324 0.61078,0.19444 0.61277,0.18563 0.6146,0.17682 0.61624,0.168 0.61773,0.1592 0.61904,0.1504 0.62017,0.1416 0.62115,0.13283 0.62195,0.12405 0.62258,0.1153 0.62306,0.10657 0.62335,0.0979 0.62349,0.0891 0.62347,0.0805 0.62327,0.0718 0.62293,0.0632 0.62241,0.0546 0.62173,0.0461 0.6209,0.0376 0.61992,0.0291 0.61876,0.0206 0.61746,0.0122 0.61601,0.004 0.61439,-0.004 0.61263,-0.0127 0.61072,-0.0209 0.60865,-0.0291 0.60645,-0.0372 0.60409,-0.0453 0.60159,-0.0533 0.59894,-0.0613 0.59616,-0.0692 0.59323,-0.077 0.59017,-0.0848 0.58696,-0.0925 0.58363,-0.1001 0.58015,-0.10768 0.57655,-0.11518 0.57282,-0.1226 0.56895,-0.12997 0.56496,-0.13725 0.56085,-0.14445 0.55661,-0.15159 0.55225,-0.15864 0.54776,-0.16562 0.54317,-0.1725 0.53845,-0.17931 0.53363,-0.18604 0.52868,-0.19268 0.52363,-0.19923 0.51848,-0.20569 0.5132,-0.21208 0.50784,-0.21835 0.50236,-0.22456 0.49679,-0.23065 0.49112,-0.23667 0.48535,-0.24257 0.47949,-0.2484 0.47354,-0.25412 0.46749,-0.25975 0.46136,-0.26527 0.45514,-0.27069 0.44884,-0.27603 0.44245,-0.28125 0.43599,-0.28637 0.42946,-0.2914 0.42283,-0.29631 0.41615,-0.30113 0.40939,-0.30583 0.40256,-0.31044 0.39567,-0.31494 0.38871,-0.31933 0.38169,-0.32361 0.37461,-0.32779 0.36746,-0.33186 0.36028,-0.33581 0.35303,-0.33967 0.34573,-0.34341 0.33839,-0.34704 0.33099,-0.35056 0.32355,-0.35398 0.31607,-0.35727 0.30856,-0.36046 0.30099,-0.36354 0.2934,-0.36651 0.28577,-0.36937 0.27812,-0.3721 0.27043,-0.37474 0.26271,-0.37726 0.25497,-0.37967 0.24722,-0.38197 0.23943,-0.38415 0.23163,-0.38622 0.22381,-0.38819 0.21598,-0.39003 0.20814,-0.39178 0.20029,-0.3934 0.19243,-0.39492 0.18457,-0.39633 0.17669,-0.39762 0.16883,-0.39881 0.16096,-0.39988 0.15309,-0.40085 0.14523,-0.40171 0.13738,-0.40246 0.12953,-0.40309 0.1217,-0.40363 0.11388,-0.40405 0.10607,-0.40437 0.0983,-0.40458 0.0905,-0.40469 0.0828,-0.40468 0.075,-0.40458 0.0673,-0.40438 0.0596,-0.40406 0.052,-0.40364 0.0444,-0.40313 0.0368,-0.40251 0.0293,-0.40179 0.0217,-0.40097 0.0142,-0.40005 0.007,-0.39904 -5.9e-4,-0.39792 -0.008,-0.39671 -0.0153,-0.39541 -0.0225,-0.394 -0.0297,-0.39251 -0.0369,-0.39092 -0.044,-0.38924 -0.0511,-0.38747 -0.0581,-0.3856 -0.0651,-0.38366 -0.072,-0.38162 -0.0788,-0.37949 -0.0856,-0.37728 -0.0923,-0.37498 -0.099,-0.3726 -0.10557,-0.37013 -0.11211,-0.36759 -0.11857,-0.36496 -0.12496,-0.36226 -0.13129,-0.35947 -0.13754,-0.35661 -0.14373,-0.35368 -0.14984,-0.35066 -0.15587,-0.34758 -0.16183,-0.34442 -0.16772,-0.34119 -0.17353,-0.33789 -0.17925,-0.33452 -0.1849,-0.33109 -0.19047,-0.32759 -0.19595,-0.32403 -0.20135,-0.32039 -0.20668,-0.3167 -0.21191,-0.31296 -0.21706,-0.30914 -0.22212,-0.30527 -0.2271,-0.30135 -0.23198,-0.29736 -0.23678,-0.29333 -0.2415,-0.28924 -0.24611,-0.28511 -0.25064,-0.28091 -0.25507,-0.27667 -0.25943,-0.27239 -0.26367,-0.26806 -0.26783,-0.26368 -0.2719,-0.25926 -0.27586,-0.2548 -0.27974,-0.2503 -0.28352,-0.24577 -0.28721,-0.24118 -0.29079,-0.23657 -0.29428,-0.23193 -0.29767,-0.22724 -0.30097,-0.22253 -0.30417,-0.21779 -0.30727,-0.21302 -0.31027,-0.20821 -0.31318,-0.20339 -0.31598,-0.19854 -0.31869,-0.19367 -0.32129,-0.18877 -0.3238,-0.18386 -0.32621,-0.17892 -0.32853,-0.17396 -0.33073,-0.169 -0.33284,-0.16401 -0.33486,-0.15902 -0.33677,-0.154 -0.33858,-0.14899 -0.3403,-0.14395 -0.34191,-0.13892 -0.34343,-0.13387 -0.34485,-0.12882 -0.34617,-0.12376 -0.34739,-0.11871 -0.34851,-0.11365 -0.34954,-0.1086 -0.35047,-0.10353 -0.3513,-0.0985 -0.35204,-0.0934 -0.35267,-0.0884 -0.35322,-0.0833 -0.35366,-0.0783 -0.35402,-0.0733 -0.35427,-0.0683 -0.35444,-0.0633 -0.3545,-0.0583 -0.35448,-0.0533 -0.35436,-0.0484 -0.35416,-0.0434 -0.35385,-0.0385 -0.35347,-0.0336 -0.35298,-0.0287 -0.35241,-0.0239 -0.35175,-0.019 -0.351,-0.0142 -0.35017,-0.009 -0.34924,-0.005 -0.34824,1e-4 -0.34714,0.005 -0.34596,0.01 -0.34469,0.0142 -0.34336,0.0188 -0.34192,0.0234 -0.34041,0.0279 -0.33883,0.0325 -0.33715,0.0369 -0.33541,0.0414 -0.33358,0.0458 -0.33168,0.0502 -0.3297,0.0545 -0.32764,0.0588 -0.32552,0.0631 -0.32332,0.0673 -0.32105,0.0715 -0.3187,0.0756 -0.31628,0.0797 -0.31381,0.0837 -0.31125,0.0877 -0.30864,0.0917 -0.30595,0.0956 -0.30321,0.0994 -0.3004,0.10323 -0.29752,0.10698 -0.29458,0.11069 -0.29159,0.11435 -0.28854,0.11794 -0.28542,0.1215 -0.28225,0.125 -0.27903,0.12844 -0.27575,0.13183 -0.27241,0.13517 -0.26903,0.13845 -0.26559,0.14167 -0.26211,0.14485 -0.25857,0.14795 -0.25499,0.15102 -0.25136,0.15401 -0.24769,0.15695 -0.24397,0.15983 -0.24021,0.16266 -0.23641,0.16542 -0.23257,0.16812 -0.22869,0.17076 -0.22477,0.17335 -0.22082,0.17588 -0.21683,0.17833 -0.21281,0.18073 -0.20875,0.18307 -0.20466,0.18535 -0.20055,0.18757 -0.1964,0.18971 -0.19223,0.19181 -0.18803,0.19383 -0.1838,0.19579 -0.17955,0.1977 -0.17529,0.19954 -0.17099,0.2013 -0.16668,0.20303 -0.16234,0.20466 -0.158,0.20626 -0.15363,0.20777 -0.14925,0.20923 -0.14486,0.21063 -0.14045,0.21195 -0.13603,0.21323 -0.1316,0.21442 -0.12716,0.21556 -0.12272,0.21664 -0.11826,0.21766 -0.11381,0.2186 -0.10935,0.21949 -0.10487,0.22031 -0.10042,0.22107 -0.0959,0.22177 -0.0915,0.2224 -0.087,0.22298 -0.0826,0.22349 -0.0781,0.22394 -0.0736,0.22432 -0.0692,0.22465 -0.0648,0.22492 -0.0603,0.22512 -0.0559,0.22526 -0.0515,0.22535 -0.0471,0.22537 -0.0427,0.22534 -0.0383,0.22524 -0.034,0.22508 -0.0296,0.22487 -0.0253,0.22461 -0.021,0.22427 -0.0167,0.22389 -0.0125,0.22345 -0.008,0.22295 -0.004,0.22239 2.1e-4,0.22178 0.004,0.22112 0.009,0.2204 0.0127,0.21963 0.0168,0.2188 0.0208,0.21792 0.0249,0.21699 0.0289,0.21601 0.0328,0.21497 0.0368,0.21389 0.0407,0.21275 0.0446,0.21156 0.0485,0.21033 0.0523,0.20905 0.0561,0.20772 0.0598,0.20634 0.0635,0.20492 0.0672,0.20345 0.0708,0.20193 0.0744,0.20037 0.0779,0.19877 0.0814,0.19713 0.0849,0.19543 0.0883,0.19371 0.0917,0.19193 0.095,0.19013 0.0983,0.18827 0.10159,0.18638 0.10478,0.18445 0.10795,0.18248 0.11106,0.18048 0.11412,0.17845 0.11714,0.17636 0.12012,0.17426 0.12303,0.17212 0.1259,0.16994 0.12873,0.16773 0.1315,0.16549 0.13422,0.16323 0.13689,0.16092 0.13951,0.15859 0.14209,0.15623 0.1446,0.15385 0.14706,0.15143 0.14948,0.149 0.15183,0.14653 0.15414,0.14404 0.15639,0.14154 0.15859,0.13899 0.16074,0.13644 0.16282,0.13386 0.16486,0.13126 0.16684,0.12864 0.16877,0.12601 0.17063,0.12335 0.17245,0.12068 0.17421,0.11798 0.17591,0.11528 0.17756,0.11256 0.17915,0.10983 0.18068,0.10708 0.18217,0.10432 0.18359,0.10155 0.18495,0.0988 0.18627,0.096 0.18752,0.0932 0.18871,0.0904 0.18986,0.0875 0.19095,0.0847 0.19197,0.0819 0.19295,0.079 0.19386,0.0762 0.19473,0.0734 0.19553,0.0705 0.19628,0.0677 0.19697,0.0648 0.19762,0.0619 0.19819,0.0591 0.19872,0.0563 0.1992,0.0534 0.19961,0.0505 0.19997,0.0477 0.20029,0.0449 0.20053,0.042 0.20074,0.0392 0.20089,0.0364 0.20097,0.0335 0.20102,0.0307 0.20101,0.0279 0.20094,0.0251 0.20082,0.0223 0.20065,0.0196 0.20044,0.0168 0.20016,0.014 0.19983,0.0113 0.19947,0.009 0.19904,0.006 0.19857,0.003 0.19804,4.5e-4 0.19748,-0.002 0.19685,-0.005 0.19619,-0.008 0.19547,-0.0102 0.19471,-0.0128 0.1939,-0.0154 0.19305,-0.0179 0.19214,-0.0205 0.1912,-0.023 0.19021,-0.0255 0.18918,-0.028 0.1881,-0.0305 0.18698,-0.0329 0.18581,-0.0354 0.18461,-0.0378 0.18336,-0.0401 0.18208,-0.0425 0.18074,-0.0448 0.17938,-0.0471 0.17798,-0.0494 0.17653,-0.0517 0.17504,-0.0539 0.17353,-0.0561 0.17197,-0.0583 0.17037,-0.0604 0.16875,-0.0625 0.16709,-0.0646 0.16538,-0.0667 0.16366,-0.0687 0.16189,-0.0707 0.1601,-0.0727 0.15827,-0.0746 0.15641,-0.0766 0.15452,-0.0784 0.1526,-0.0803 0.15066,-0.0821 0.14868,-0.0839 0.14668,-0.0856 0.14465,-0.0874 0.14259,-0.0891 0.14051,-0.0907 0.13841,-0.0923 0.13627,-0.0939 0.13412,-0.0955 0.13195,-0.097 0.12974,-0.0985 0.12753,-0.0999 0.12528,-0.10137 0.12303,-0.10275 0.12074,-0.10411 0.11845,-0.10542 0.11613,-0.1067 0.1138,-0.10795 0.11145,-0.10917 0.10908,-0.11033 0.10671,-0.11148 0.1043,-0.11258 0.10191,-0.11366 0.0995,-0.11468 0.097,-0.11569 0.0946,-0.11664 0.0922,-0.11757 0.0897,-0.11846 0.0872,-0.11932 0.0847,-0.12013 0.0822,-0.12092 0.0797,-0.12166 0.0772,-0.12237 0.0747,-0.12305 0.0722,-0.12368 0.0697,-0.12429 0.0672,-0.12485 0.0646,-0.12538 0.0621,-0.12588 0.0596,-0.12634 0.0571,-0.12676 0.0545,-0.12715 0.052,-0.1275 0.0495,-0.12782 0.0469,-0.1281 0.0444,-0.12835 0.0419,-0.12857 0.0394,-0.12874 0.0368,-0.12888 0.0343,-0.12899 0.0318,-0.12907 0.0293,-0.12911 0.0268,-0.12911 0.0243,-0.12909 0.0219,-0.12903 0.0194,-0.12893 0.0169,-0.12881 0.0145,-0.12864 0.012,-0.12846 0.01,-0.12823 0.007,-0.12797 0.005,-0.12768 0.002,-0.12737 2e-5,-0.12701 -0.002,-0.12663 -0.005,-0.12621 -0.007,-0.12577 -0.009,-0.1253 -0.0117,-0.12479 -0.014,-0.12426 -0.0162,-0.12369 -0.0185,-0.1231 -0.0207,-0.12248 -0.0229,-0.12184 -0.0251,-0.12115 -0.0273,-0.12045 -0.0295,-0.11971 -0.0316,-0.11896 -0.0338,-0.11817 -0.0358,-0.11736 -0.0379,-0.11652 -0.04,-0.11565 -0.042,-0.11477 -0.044,-0.11385 -0.046,-0.11292 -0.048,-0.11195 -0.0499,-0.11096 -0.0519,-0.10996 -0.0537,-0.10892 -0.0556,-0.10787 -0.0575,-0.1068 -0.0593,-0.10569 -0.0611,-0.10458 -0.0628,-0.10343 -0.0646,-0.10227 -0.0663,-0.10109 -0.068,-0.0999 -0.0696,-0.0987 -0.0712,-0.0974 -0.0728,-0.0962 -0.0744,-0.0949 -0.076,-0.0936 -0.0775,-0.0923 -0.079,-0.091 -0.0804,-0.0896 -0.0819,-0.0883 -0.0832,-0.0869 -0.0846,-0.0855 -0.086,-0.0841 -0.0873,-0.0827 -0.0885,-0.0813 -0.0898,-0.0798 -0.091,-0.0784 -0.0922,-0.0769 -0.0933,-0.0754 -0.0945,-0.0739 -0.0956,-0.0725 -0.0966,-0.0709 -0.0976,-0.0694 -0.0986,-0.0679 -0.0996,-0.0663 -0.10055,-0.0648 -0.10145,-0.0632 -0.10232,-0.0617 -0.10316,-0.0601 -0.10397,-0.0585 -0.10475,-0.057 -0.10549,-0.0554 -0.1062,-0.0538 -0.10688,-0.0522 -0.10753,-0.0506 -0.10815,-0.049 -0.10873,-0.0474 -0.10929,-0.0458 -0.1098,-0.0441 -0.1103,-0.0425 -0.11075,-0.0409 -0.11118,-0.0393 -0.11158,-0.0377 -0.11194,-0.036 -0.11226,-0.0344 -0.11257,-0.0328 -0.11284,-0.0312 -0.11308,-0.0296 -0.11329,-0.0279 -0.11346,-0.0263 -0.1136,-0.0247 -0.11373,-0.0231 -0.1138,-0.0215 -0.11386,-0.0199 -0.11389,-0.0183 -0.11388,-0.0167 -0.11384,-0.0151 -0.11378,-0.0135 -0.11369,-0.012 -0.11356,-0.0104 -0.11341,-0.009 -0.11323,-0.007 -0.11302,-0.006 -0.11277,-0.004 -0.11252,-0.003 -0.11222,-0.001 -0.11189,4.3e-4 -0.11155,0.002 -0.11117,0.003 -0.11077,0.005 -0.11033,0.006 -0.10988,0.008 -0.1094,0.009 -0.10889,0.0108 -0.10835,0.0122 -0.10779,0.0137 -0.10721,0.0151 -0.1066,0.0165 -0.10597,0.0179 -0.10531,0.0193 -0.10463,0.0206 -0.10392,0.022 -0.1032,0.0233 -0.10244,0.0246 -0.10167,0.0259 -0.10087,0.0273 -0.10006,0.0285 -0.0992,0.0298 -0.0984,0.031 -0.0975,0.0323 -0.0966,0.0335 -0.0957,0.0347 -0.0947,0.0359 -0.0938,0.0371 -0.0928,0.0382 -0.0918,0.0394 -0.0908,0.0405 -0.0897,0.0416 -0.0887,0.0427 -0.0876,0.0438 -0.0865,0.0448 -0.0854,0.0458 -0.0843,0.0468 -0.0832,0.0479 -0.082,0.0488 -0.0808,0.0498 -0.0797,0.0507 -0.0785,0.0517 -0.0773,0.0526 -0.0761,0.0535 -0.0748,0.0543 -0.0736,0.0552 -0.0723,0.056 -0.0711,0.0568 -0.0698,0.0576 -0.0685,0.0584 -0.0672,0.0591 -0.0659,0.0598 -0.0645,0.0606 -0.0632,0.0613 -0.0619,0.0619 -0.0605,0.0626 -0.0592,0.0632 -0.0578,0.0638 -0.0564,0.0644 -0.0551,0.065 -0.0537,0.0655 -0.0523,0.066 -0.0509,0.0666 -0.0495,0.067 -0.0481,0.0675 -0.0467,0.0679 -0.0453,0.0684 -0.0438,0.0688 -0.0424,0.0692 -0.041,0.0695 -0.0396,0.0699 -0.0381,0.0702 -0.0367,0.0705 -0.0353,0.0708 -0.0338,0.0711 -0.0324,0.0713 -0.031,0.0715 -0.0295,0.0717 -0.0281,0.0719 -0.0267,0.0721 -0.0252,0.0722 -0.0238,0.0724 -0.0224,0.0725 -0.021,0.0725 -0.0195,0.0726 -0.0181,0.0727 -0.0167,0.0727 -0.0153,0.0727 -0.0139,0.0727 -0.0125,0.0726 -0.0111,0.0726 -0.01,0.0725 -0.008,0.0725 -0.007,0.0723 -0.006,0.0722 -0.004,0.0721 -0.003,0.0719 -10e-4,0.0717 -1e-4,0.0715 0.001,0.0713 0.003,0.0711 0.004,0.0709 0.005,0.0706 0.007,0.0703 0.008,0.07 0.009,0.0697 0.0104,0.0694 0.0117,0.069 0.0129,0.0686 0.0142,0.0683 0.0154,0.0679 0.0166,0.0675 0.0178,0.067 0.019,0.0666 0.0202,0.0661 0.0214,0.0656 0.0226,0.0652 0.0237,0.0647 0.0249,0.0642 0.026,0.0636 0.0271,0.0631 0.0282,0.0625 0.0293,0.062 0.0304,0.0614 0.0314,0.0608 0.0325,0.0602 0.0335,0.0596 0.0345,0.0589 0.0355,0.0583 0.0365,0.0576 0.0375,0.057 0.0384,0.0563 0.0394,0.0556 0.0403,0.0549 0.0412,0.0542 0.0421,0.0535 0.043,0.0527 0.0438,0.052 0.0447,0.0512 0.0455,0.0505 0.0463,0.0497 0.0471,0.049 0.0479,0.0482 0.0486,0.0474 0.0494,0.0466 0.0501,0.0458 0.0508,0.045 0.0515,0.0441 0.0522,0.0433 0.0528,0.0425 0.0535,0.0416 0.0541,0.0408 0.0547,0.0399 0.0553,0.0391 0.0558,0.0382 0.0564,0.0373 0.0569,0.0365 0.0574,0.0356 0.0579,0.0347 0.0584,0.0338 0.0589,0.0329 0.0593,0.032 0.0597,0.0311 0.0601,0.0302 0.0605,0.0293 0.0609,0.0284 0.0612,0.0275 0.0616,0.0266 0.0619,0.0257 0.0622,0.0248 0.0625,0.0239 0.0627,0.023 0.063,0.022 0.0632,0.0211 0.0634,0.0202 0.0636,0.0193 0.0637,0.0184 0.0639,0.0175 0.064,0.0165 0.0641,0.0156 0.0643,0.0147 0.0643,0.0138 0.0644,0.0129 0.0645,0.012 0.0645,0.0111 0.0645,0.0102 0.0645,0.009 0.0645,0.008 0.0644,0.007 0.0644,0.007 0.0643,0.006 0.0642,0.005 0.0641,0.004 0.064,0.003 0.0639,0.002 0.0637,0.001 0.0636,4.4e-4 0.0634,-4.3e-4 0.0632,-0.001 0.063,-0.002 0.0628,-0.003 0.0625,-0.004 0.0623,-0.005 0.062,-0.005 0.0617,-0.006 0.0614,-0.007 0.0611,-0.008 0.0607,-0.009 0.0604,-0.01 0.06,-0.0103 0.0597,-0.0111 0.0593,-0.0119 0.0589,-0.0126 0.0585,-0.0134 0.058,-0.0141 0.0576,-0.0149 0.0572,-0.0156 0.0567,-0.0163 0.0562,-0.017 0.0557,-0.0177 0.0552,-0.0185 0.0547,-0.0191 0.0542,-0.0198 0.0537,-0.0205 0.0531,-0.0212 0.0526,-0.0218 0.052,-0.0224 0.0514,-0.0231 0.0509,-0.0237 0.0503,-0.0243 0.0497,-0.0249 0.049,-0.0255 0.0484,-0.0261 0.0478,-0.0267 0.0471,-0.0273 0.0465,-0.0278 0.0458,-0.0284 0.0452,-0.0289 0.0445,-0.0294 0.0438,-0.0299 0.0431,-0.0304 0.0424,-0.0309 0.0417,-0.0314 0.041,-0.0319 0.0403,-0.0323 0.0396,-0.0328 0.0388,-0.0332 0.0381,-0.0336 0.0374,-0.0341 0.0366,-0.0344 0.0359,-0.0348 0.0351,-0.0352 0.0343,-0.0356 0.0336,-0.0359 0.0328,-0.0363 0.032,-0.0366 0.0312,-0.0369 0.0305,-0.0373 0.0297,-0.0376 0.0289,-0.0378 0.0281,-0.0381 0.0273,-0.0384 0.0265,-0.0386 0.0257,-0.0389 0.0249,-0.0391 0.0241,-0.0393 0.0233,-0.0395 0.0225,-0.0397 0.0217,-0.0399 0.0208,-0.0401 0.02,-0.0402 0.0192,-0.0404 0.0184,-0.0405 0.0176,-0.0406 0.0168,-0.0408 0.016,-0.0409 0.0152,-0.041 0.0144,-0.0411 0.0135,-0.0411 0.0127,-0.0412 0.0119,-0.0412 0.0111,-0.0413 0.0103,-0.0413 0.01,-0.0413 0.009,-0.0413 0.008,-0.0413 0.007,-0.0413 0.006,-0.0413 0.006,-0.0412 0.005,-0.0412 0.004,-0.0411 0.003,-0.041 0.002,-0.041 0.002,-0.0409 8.7e-4,-0.0408 1.1e-4,-0.0407 -6.5e-4,-0.0405 -10e-4,-0.0404 -0.002,-0.0403 -0.003,-0.0401 -0.004,-0.04 -0.004,-0.0398 -0.005,-0.0396 -0.006,-0.0394 -0.007,-0.0392 -0.007,-0.039 -0.008,-0.0388 -0.009,-0.0386 -0.009,-0.0383 -0.0101,-0.0381 -0.0107,-0.0378 -0.0114,-0.0376 -0.0121,-0.0373 -0.0127,-0.037 -0.0134,-0.0368 -0.014,-0.0365 -0.0147,-0.0362 -0.0153,-0.0359 -0.0159,-0.0356 -0.0165,-0.0352 -0.0172,-0.0349 -0.0178,-0.0346 -0.0183,-0.0342 -0.0189,-0.0339 -0.0195,-0.0335 -0.0201,-0.0331 -0.0206,-0.0328 -0.0212,-0.0324 -0.0217,-0.032 -0.0223,-0.0316 -0.0228,-0.0312 -0.0233,-0.0308 -0.0238,-0.0304 -0.0243,-0.03 -0.0248,-0.0296 -0.0253,-0.0292 -0.0257,-0.0287 -0.0262,-0.0283 -0.0267,-0.0279 -0.0271,-0.0274 -0.0275,-0.027 -0.0279,-0.0265 -0.0283,-0.0261 -0.0288,-0.0256 -0.0291,-0.0251 -0.0295,-0.0247 -0.0299,-0.0242 -0.0303,-0.0237 -0.0306,-0.0232 -0.0309,-0.0228 -0.0313,-0.0223 -0.0316,-0.0218 -0.0319,-0.0213 -0.0322,-0.0208 -0.0325,-0.0203 -0.0328,-0.0198 -0.0331,-0.0193 -0.0333,-0.0188 -0.0336,-0.0183 -0.0338,-0.0178 -0.034,-0.0173 -0.0343,-0.0167 -0.0345,-0.0162 -0.0347,-0.0157 -0.0349,-0.0152 -0.035,-0.0147 -0.0352,-0.0142 -0.0354,-0.0136 -0.0355,-0.0131 -0.0356,-0.0126 -0.0358,-0.0121 -0.0359,-0.0116 -0.036,-0.011 -0.0361,-0.0105 -0.0362,-0.01 -0.0363,-0.009 -0.0363,-0.009 -0.0364,-0.008 -0.0364,-0.008 -0.0365,-0.007 -0.0365,-0.007 -0.0365,-0.006 -0.0365,-0.006 -0.0365,-0.005 -0.0365,-0.005 -0.0365,-0.004 -0.0365,-0.004 -0.0364,-0.003 -0.0364,-0.003 -0.0363,-0.002 -0.0363,-0.002 -0.0362,-0.001 -0.0361,-8.5e-4 -0.036,-3.6e-4 -0.0359,1.3e-4 -0.0358,6.2e-4 -0.0357,0.001 -0.0356,0.002 -0.0354,0.002 -0.0353,0.003 -0.0351,0.003 -0.0349,0.003 -0.0348,0.004 -0.0346,0.004 -0.0344,0.005 -0.0342,0.005 -0.034,0.006 -0.0338,0.006 -0.0336,0.007 -0.0334,0.007 -0.0331,0.007 -0.0329,0.008 -0.0326,0.008 -0.0324,0.009 -0.0321,0.009 -0.0319,0.01 -0.0316,0.01 -0.0313,0.0103 -0.031,0.0107 -0.0307,0.0111 -0.0304,0.0115 -0.0301,0.0119 -0.0298,0.0123 -0.0295,0.0126 -0.0292,0.013 -0.0288,0.0133 -0.0285,0.0137 -0.0281,0.014 -0.0278,0.0144 -0.0274,0.0147 -0.0271,0.015 -0.0267,0.0154 -0.0263,0.0157 -0.026,0.016 -0.0256,0.0163 -0.0252,0.0166 -0.0248,0.0169 -0.0245,0.0172 -0.0241,0.0174 -0.0236,0.0177 -0.0233,0.018 -0.0228,0.0182 -0.0224,0.0185 -0.022,0.0187 -0.0216,0.019 -0.0212,0.0192 -0.0208,0.0194 -0.0203,0.0197 -0.0199,0.0199 -0.0195,0.0201 -0.019,0.0203 -0.0186,0.0205 -0.0182,0.0207 -0.0177,0.0208 -0.0173,0.021 -0.0168,0.0212 -0.0164,0.0214 -0.0159,0.0215 -0.0155,0.0217 -0.015,0.0218 -0.0146,0.022 -0.0141,0.0221 -0.0137,0.0222 -0.0132,0.0223 -0.0128,0.0224 -0.0123,0.0225 -0.0118,0.0226 -0.0114,0.0227 -0.0109,0.0228 -0.0105,0.0229 -0.01,0.023 -0.01,0.023 -0.009,0.0231 -0.009,0.0231 -0.008,0.0232 -0.008,0.0232 -0.007,0.0233 -0.007,0.0233 -0.006,0.0233 -0.006,0.0233 -0.005,0.0234 -0.005,0.0233 -0.005,0.0233 -0.004,0.0233 -0.004,0.0233 -0.003,0.0233 -0.003,0.0233 -0.002,0.0232 -0.002,0.0232 -10e-4,0.0232 -9.6e-4,0.0231 -5.3e-4,0.023 -9e-5,0.023 3.4e-4,0.0229 7.7e-4,0.0228 10e-4,0.0228 0.002,0.0227 0.002,0.0226 0.002,0.0225 0.003,0.0224 0.003,0.0223 0.004,0.0222 0.004,0.0221 0.004,0.0219 0.005,0.0218 0.005,0.0217 0.006,0.0215 0.006,0.0214 0.006,0.0213 0.007,0.0211 0.007,0.021 0.008,0.0208 0.008,0.0206 0.008,0.0205 0.009,0.0203 0.009,0.0201 0.009,0.0199 0.01,0.0197 0.01,0.0196 0.0104,0.0194 0.0107,0.0192 0.011,0.0189 0.0113,0.0188 0.0117,0.0185 0.012,0.0183 0.0123,0.0181 0.0126,0.0179 0.0129,0.0177 0.0132,0.0174 0.0135,0.0172 0.0137,0.017 0.014,0.0167 0.0143,0.0165 0.0145,0.0163 0.0148,0.016 0.0151,0.0158 0.0153,0.0155 0.0156,0.0153 0.0158,0.015 0.016,0.0147 0.0163,0.0145 0.0165,0.0142 0.0167,0.014 0.0169,0.0137 0.0171,0.0134 0.0173,0.0131 0.0175,0.0129 0.0177,0.0126 0.0179,0.0123 0.0181,0.012 0.0182,0.0118 0.0184,0.0115 0.0186,0.0112 0.0187,0.0109 0.0189,0.0106 0.019,0.0103 0.0191,0.01 0.0193,0.01 0.0194,0.009 0.0195,0.009 0.0196,0.009 0.0197,0.009 0.0198,0.008 0.0199,0.008 0.02,0.008 0.0201,0.007 0.0202,0.007"
     style="display:inline;fill:none;stroke:#000000;stroke-width:25px"
     id="path17"
     inkscape:connector-curvature="0" />
</svg>
