<?xml version="1.0" encoding="UTF-8" standalone="no"?>
<svg
   xmlns:dc="http://purl.org/dc/elements/1.1/"
   xmlns:cc="http://creativecommons.org/ns#"
   xmlns:rdf="http://www.w3.org/1999/02/22-rdf-syntax-ns#"
   xmlns:svg="http://www.w3.org/2000/svg"
   xmlns="http://www.w3.org/2000/svg"
   xmlns:xlink="http://www.w3.org/1999/xlink"
   xmlns:sodipodi="http://sodipodi.sourceforge.net/DTD/sodipodi-0.dtd"
   xmlns:inkscape="http://www.inkscape.org/namespaces/inkscape"
   width="609.26367"
   height="609.26367"
   version="1.1"
   id="svg2"
   inkscape:version="0.91 r13725"
   sodipodi:docname="rotate.svg">
  <metadata
     id="metadata28">
    <rdf:RDF>
      <cc:Work
         rdf:about="">
        <dc:format>image/svg+xml</dc:format>
        <dc:type
           rdf:resource="http://purl.org/dc/dcmitype/StillImage" />
        <dc:title></dc:title>
      </cc:Work>
    </rdf:RDF>
  </metadata>
  <sodipodi:namedview
     pagecolor="#ffffff"
     bordercolor="#666666"
     borderopacity="1"
     objecttolerance="10"
     gridtolerance="10"
     guidetolerance="10"
     inkscape:pageopacity="0"
     inkscape:pageshadow="2"
     inkscape:window-width="1341"
     inkscape:window-height="823"
     id="namedview26"
     showgrid="false"
     fit-margin-top="5"
     fit-margin-left="5"
     fit-margin-right="5"
     fit-margin-bottom="5"
     inkscape:zoom="1"
     inkscape:cx="304.63184"
     inkscape:cy="317.5132"
     inkscape:window-x="0"
     inkscape:window-y="0"
     inkscape:window-maximized="0"
     inkscape:current-layer="svg2" />
  <defs
     id="defs4">
    <path
       id="sphere"
       d="m 780.6267,302.00497 -0.39029,14.8962 -1.16944,14.85536 -1.94533,14.77379 -2.71575,14.65176 -3.47885,14.48954 -4.2324,14.28762 -4.97446,14.0465 -5.70277,13.76691 -6.41538,13.44961 -7.11047,13.09545 -7.78628,12.70523 -8.44036,12.28046 -9.07152,11.82187 -9.67786,11.33086 -10.25763,10.80881 -10.80916,10.25725 -11.3312,9.67746 -11.82219,9.07111 -12.28069,8.44002 -12.70562,7.78566 -13.09569,7.11001 -13.44979,6.415 -13.76711,5.70229 -14.0467,4.97388 -14.28776,4.23189 -14.48964,3.47845 -14.65183,2.71533 -14.77387,1.94482 -14.85541,1.16882 -14.89622,0.38977 -14.8962,-0.39029 -14.85536,-1.16944 -14.77379,-1.94533 -14.65176,-2.71575 -14.48954,-3.47885 -14.28762,-4.2324 -14.0465,-4.97446 -13.76691,-5.70277 -13.44961,-6.41538 -13.09545,-7.11047 -12.70523,-7.78628 -12.28046,-8.44036 -11.82187,-9.07152 -11.33086,-9.67786 -10.80881,-10.25763 -10.25725,-10.80916 -9.67746,-11.3312 -9.07111,-11.82219 -8.44002,-12.28069 -7.78566,-12.70562 -7.11001,-13.09569 -6.415,-13.44979 -5.70229,-13.76711 -4.97388,-14.0467 -4.23189,-14.28776 -3.47845,-14.48964 -2.71533,-14.65183 -1.94482,-14.77387 -1.16882,-14.85541 -0.38977,-14.89622 0.39029,-14.8962 1.16944,-14.85536 1.94533,-14.77379 2.71575,-14.65176 3.47885,-14.48954 4.2324,-14.28762 4.97446,-14.0465 5.70277,-13.76691 6.41538,-13.44961 7.11047,-13.09545 7.78628,-12.70523 8.44036,-12.28046 9.07152,-11.82187 9.67786,-11.33086 10.25763,-10.80881 10.80916,-10.257245 11.3312,-9.677465 11.82219,-9.071109 12.28069,-8.440018 12.70562,-7.785662 13.09569,-7.110008 13.44979,-6.415005 13.76711,-5.702284 14.0467,-4.973879 14.28776,-4.231892 14.48964,-3.478452 14.65183,-2.715333 14.77387,-1.944818 14.85541,-1.168821 14.89622,-0.389772 14.8962,0.390292 14.85536,1.169443 14.77379,1.945333 14.65176,2.715742 14.48954,3.478857 14.28762,4.232392 14.0465,4.974469 13.76691,5.702764 13.44961,6.415382 13.09545,7.110468 12.70523,7.786282 12.28046,8.44036 11.82187,9.071522 11.33086,9.67786 10.80881,10.257627 10.25725,10.80916 9.67746,11.3312 9.07111,11.82219 8.44002,12.28069 7.78566,12.70562 7.11001,13.09569 6.415,13.44979 5.70229,13.76711 4.97388,14.0467 4.23189,14.28776 3.47845,14.48964 2.71533,14.65183 1.94482,14.77387 1.16882,14.85541 0.38977,14.89622 z"
       style="display:inline"
       inkscape:connector-curvature="0" />
  </defs>
  <g
     id="g4176"
     transform="translate(-153.29442,-604.50031)">
    <path
       inkscape:connector-curvature="0"
       id="path19-0"
       style="display:inline"
       d="m 348.44792,800.49099 0.61009,-12.74291 0.96028,-12.3525 1.30738,-11.92235 1.65028,-11.45388 1.98787,-10.94853 2.31907,-10.40798 2.6428,-9.83395 2.95803,-9.22828 -10.32634,2.0025 -10.10978,2.40435 10.53149,-8.70231 10.86433,-8.06228 11.1627,-7.39667 11.42568,-6.7076 6.6579,3.88223 6.86353,4.58025 7.04739,5.26376 7.20889,5.93056 -11.30564,0.94159 -11.19256,1.35961 -2.06082,9.0881 -1.84121,9.7087 -1.61567,10.29808 -1.38492,10.85433 -1.14973,11.37567 -0.91084,11.8604 -0.66901,12.30699 -0.42504,12.714 13.95361,-1.75187 14.15309,-1.38197 14.30724,-1.00765 14.41562,-0.63009 14.47785,-0.25053 14.49375,0.12985 14.46324,0.50979 14.38645,0.88812 -0.49077,-23.11101 11.31751,10.16437 11.13116,10.65766 10.90266,11.1106 10.63287,11.52146 -21.53553,18.4646 -22.44867,19.65265 0.49077,-25.69218 -14.38645,-0.51383 -14.46324,-0.24159 -14.49375,0.0314 -14.47785,0.30434 -14.41562,0.57628 -14.30724,0.84637 -14.15309,1.11377 -13.95361,1.37758 0.42504,13.7999 0.66901,14.01622 0.91084,14.18745 1.14973,14.31304 1.38492,14.39259 1.61567,14.42584 1.84121,14.4127 2.06082,14.35318 22.4982,-2.3012 -14.25628,24.05498 -13.52143,23.36279 -11.42568,-8.75074 -11.1627,-8.97026 -10.86433,-9.16134 -10.53149,-9.32337 20.43612,-4.40684 -2.95803,-14.21301 -2.6428,-14.28745 -2.31907,-14.31595 -1.98787,-14.29838 -1.65028,-14.23484 -1.30738,-14.12549 -0.96028,-13.97071 -0.61009,-13.77099 -12.90826,2.81931 -12.51654,3.05309 -12.08475,3.27711 -11.61427,3.49062 -11.10663,3.69297 -10.56344,3.88351 -9.98643,4.0616 -9.37747,4.2267 1.0042,12.56064 1.54864,12.65601 -8.13733,-6.917 -7.36014,-6.80696 -6.55507,-6.67115 -5.72517,-6.51008 2.75742,-7.06518 2.96775,-7.01205 3.17528,-6.95228 3.37979,-6.88592 3.58111,-6.81303 3.77903,-6.73371 3.97337,-6.648 4.16396,-6.55599 -1.54864,11.66713 -1.0042,11.91941 9.37747,-4.60098 9.98643,-4.32981 10.56344,-4.04477 11.10663,-3.74679 11.61427,-3.43681 12.08475,-3.11583 12.51654,-2.78489 12.90826,-2.44502" />
    <use
       height="100%"
       width="100%"
       y="0"
       x="0"
       transform="translate(-38.073739,607.13215)"
       class="stroke"
       xlink:href="#sphere"
       style="display:inline;fill:none;stroke:#000000;stroke-width:30px"
       id="use4174" />
  </g>
</svg>
