<?xml version="1.0" encoding="UTF-8" standalone="no"?>
<svg
   xmlns:dc="http://purl.org/dc/elements/1.1/"
   xmlns:cc="http://creativecommons.org/ns#"
   xmlns:rdf="http://www.w3.org/1999/02/22-rdf-syntax-ns#"
   xmlns:svg="http://www.w3.org/2000/svg"
   xmlns="http://www.w3.org/2000/svg"
   xmlns:sodipodi="http://sodipodi.sourceforge.net/DTD/sodipodi-0.dtd"
   xmlns:inkscape="http://www.inkscape.org/namespaces/inkscape"
   height="512px"
   id="Layer_1"
   style="enable-background:new 0 0 512 512;"
   version="1.1"
   viewBox="0 0 512 512"
   width="512px"
   xml:space="preserve"
   inkscape:version="0.91 r13725"
   sodipodi:docname="terrain.svg"><metadata
     id="metadata13"><rdf:RDF><cc:Work
         rdf:about=""><dc:format>image/svg+xml</dc:format><dc:type
           rdf:resource="http://purl.org/dc/dcmitype/StillImage" /><dc:title></dc:title></cc:Work></rdf:RDF></metadata><defs
     id="defs11" /><sodipodi:namedview
     pagecolor="#ffffff"
     bordercolor="#666666"
     borderopacity="1"
     objecttolerance="10"
     gridtolerance="10"
     guidetolerance="10"
     inkscape:pageopacity="0"
     inkscape:pageshadow="2"
     inkscape:window-width="1207"
     inkscape:window-height="834"
     id="namedview9"
     showgrid="false"
     inkscape:zoom="0.921875"
     inkscape:cx="371.92602"
     inkscape:cy="50.17258"
     inkscape:window-x="0"
     inkscape:window-y="23"
     inkscape:window-maximized="0"
     inkscape:current-layer="Layer_1" /><g
     id="g3"><path
       d="M368,224c26.5,0,48-21.5,48-48c0-26.5-21.5-48-48-48c-26.5,0-48,21.5-48,48C320,202.5,341.5,224,368,224z"
       id="path5" /><path
       d="M 441.86375,372.23516 348.9,261.7 c -2.96711,-3.52793 -7.6,-6.2 -12.8,-6.2 -5.1,0 -8.7,2.4 -12.8,5.7 L 304.6,277 c -3.9,2.8 -7,4.7 -11.5,4.7 -4.3,0 -8.2,-1.6 -11,-4.1 -1,-0.9 -2.8,-2.6 -4.3,-4.1 L 224,215.3 c -4,-4.6 -10,-7.5 -16.7,-7.5 -6.7,0 -12.9,3.3 -16.8,7.8 L 70.136249,368.96703 32,419.7 C 11.833448,444.4968 44.4,448 60,448 l 392,0 c 15.6,0 43.34062,-8.09781 28,-28.3"
       id="path7"
       inkscape:connector-curvature="0"
       sodipodi:nodetypes="csscccsscccsccsc" /></g></svg>