<?xml version="1.0" encoding="UTF-8" standalone="no"?>
<svg
   xmlns:dc="http://purl.org/dc/elements/1.1/"
   xmlns:cc="http://creativecommons.org/ns#"
   xmlns:rdf="http://www.w3.org/1999/02/22-rdf-syntax-ns#"
   xmlns:svg="http://www.w3.org/2000/svg"
   xmlns="http://www.w3.org/2000/svg"
   xmlns:sodipodi="http://sodipodi.sourceforge.net/DTD/sodipodi-0.dtd"
   xmlns:inkscape="http://www.inkscape.org/namespaces/inkscape"
   height="512px"
   id="Layer_1"
   style="enable-background:new 0 0 512 512;"
   version="1.1"
   viewBox="0 0 512 512"
   width="512px"
   xml:space="preserve"
   inkscape:version="0.91 r13725"
   sodipodi:docname="tissotsample2.svg"><metadata
     id="metadata9"><rdf:RDF><cc:Work
         rdf:about=""><dc:format>image/svg+xml</dc:format><dc:type
           rdf:resource="http://purl.org/dc/dcmitype/StillImage" /><dc:title></dc:title></cc:Work></rdf:RDF></metadata><defs
     id="defs7" /><sodipodi:namedview
     pagecolor="#ffffff"
     bordercolor="#666666"
     borderopacity="1"
     objecttolerance="10"
     gridtolerance="10"
     guidetolerance="10"
     inkscape:pageopacity="0"
     inkscape:pageshadow="2"
     inkscape:window-width="1543"
     inkscape:window-height="842"
     id="namedview5"
     showgrid="false"
     inkscape:zoom="0.65186406"
     inkscape:cx="431.4159"
     inkscape:cy="198.81136"
     inkscape:window-x="0"
     inkscape:window-y="46"
     inkscape:window-maximized="0"
     inkscape:current-layer="Layer_1" /><path
     inkscape:connector-curvature="0"
     d="m 881.13034,126.23717 c -0.12029,0 -0.12029,0 -0.24057,0 0,0 0,0 -0.12028,0 -0.12028,0 -0.24057,0 -0.24057,0 -137.96353,0.36085 -249.58529,112.22317 -249.58529,250.18671 0,137.96353 111.62176,249.82585 249.58529,250.1867 0.12029,0 0.24057,0 0.24057,0 0,0 0.12028,0 0.12028,0 0.12028,0 0.12028,0 0.24057,0 138.20406,0 250.18666,-111.98261 250.18666,-250.1867 0,-138.2041 -111.9826,-250.18671 -250.18666,-250.18671 z m 9.98341,149.75118 c 26.58233,-0.7217 52.3227,-4.20988 77.22109,-10.22398 7.45748,29.46911 12.14849,63.50893 12.87018,100.79638 l -90.09127,0 0,-90.5724 z m 0,-20.08711 0,-108.0133 c 26.94318,7.45749 54.36749,43.42183 71.68811,98.6313 -23.09416,5.53297 -47.03029,8.66031 -71.68811,9.382 z m -19.96683,-108.25386 0,108.37414 c -24.89839,-0.72169 -49.07508,-3.96931 -72.28952,-9.62256 17.56118,-55.57032 45.10578,-91.77522 72.28952,-98.75158 z m 0,128.34097 0,90.45211 -90.69268,0 c 0.7217,-37.28744 5.4127,-71.32726 12.87018,-100.79637 25.01867,6.0141 51.11988,9.62256 77.8225,10.34426 z m -110.90007,90.45211 -108.97555,0 c 2.16507,-51.48072 21.4102,-98.63129 52.08213,-135.91874 22.25219,12.26878 45.94776,22.37247 70.72586,29.82996 -8.17918,31.87475 -12.99046,67.83909 -13.83244,106.08878 z m 0,19.96683 c 0.7217,38.12941 5.53298,74.21403 13.71216,106.08878 -24.77811,7.57777 -48.35339,17.56118 -70.72586,29.82996 -30.67193,-37.28745 -49.79678,-84.43802 -52.08214,-135.91874 l 109.09584,0 z m 20.20739,0 90.69268,0 0,90.33183 c -26.70262,0.72169 -52.80383,4.33016 -77.8225,10.46454 -7.45748,-29.46911 -12.14848,-63.50893 -12.87018,-100.79637 z m 90.69268,110.41894 0,108.49442 c -27.18374,-7.09664 -54.72834,-43.18126 -72.28952,-98.75158 23.21444,-5.77353 47.39113,-9.02115 72.28952,-9.74284 z m 19.96683,108.13358 0,-108.25386 c 24.65782,0.72169 48.59395,3.9693 71.80839,9.50228 -17.4409,55.32975 -44.74493,91.29409 -71.80839,98.75158 z m 0,-128.22069 0,-90.33183 90.09127,0 c -0.72169,37.16716 -5.4127,71.20698 -12.87018,100.67609 -24.89839,-6.0141 -50.63876,-9.62257 -77.22109,-10.34426 z m 110.17835,-90.33183 109.6973,0 c -2.1651,51.48072 -21.4102,98.51101 -52.0822,135.91874 -22.4927,-12.38906 -46.3086,-22.49275 -71.32723,-30.07052 8.17918,-31.87475 12.99043,-67.71881 13.71213,-105.84822 z m 0,-19.96683 c -0.7217,-38.12941 -5.53295,-74.09375 -13.59185,-105.9685 25.01865,-7.57777 48.83455,-17.68146 71.20695,-29.95024 30.672,37.28745 49.9171,84.43802 52.0822,136.03903 l -109.6973,0 z m 43.903,-151.31484 c -19.9668,10.58482 -40.8959,19.36541 -62.90754,25.98093 -11.66736,-37.64829 -28.14601,-68.32022 -47.51142,-88.52761 42.57985,10.22398 80.58896,32.35588 110.41896,62.54668 z M 826.76284,152.81951 c -19.36541,20.0871 -35.72378,50.75903 -47.27085,88.16675 -21.77106,-6.61551 -42.57986,-15.27582 -62.30612,-25.86064 29.46911,-30.07052 67.23768,-52.08214 109.57697,-62.30611 z M 717.06559,537.60185 c 19.72626,-10.58482 40.65534,-19.24513 62.30611,-25.86065 11.66736,37.52801 28.02573,68.07966 47.39114,88.28704 -42.33929,-10.22397 -80.10786,-32.23559 -109.69725,-62.42639 z m 217.71055,62.66696 c 19.48569,-20.20739 35.84406,-50.87932 47.6317,-88.64789 22.01166,6.61552 42.94066,15.39611 62.90756,25.98093 -29.83,30.31108 -67.95941,52.44298 -110.53926,62.66696 z"
     id="path3" /><ellipse
     id="path3337"
     cx="-77.295212"
     cy="205.48117"
     rx="72.51046"
     ry="47.296669"
     transform="matrix(0.40138374,-0.91590998,0.94913214,0.31487805,0,0)" /><ellipse
     transform="matrix(-0.40138374,-0.91590998,-0.94913214,0.31487805,0,0)"
     ry="47.296669"
     rx="72.51046"
     cy="-262.94946"
     cx="-237.32832"
     id="ellipse3387" /><ellipse
     id="ellipse3389"
     cx="253.75542"
     cy="-474.5148"
     rx="72.51046"
     ry="47.296669"
     transform="matrix(-0.40138374,0.91590998,-0.94913214,-0.31487805,0,0)" /><ellipse
     transform="matrix(-0.40138374,-0.91590998,-0.94913214,0.31487805,0,0)"
     ry="47.296669"
     rx="72.51046"
     cy="5.9792986"
     cx="-415.8392"
     id="ellipse3391" /><circle
     id="path3393"
     cx="256.76703"
     cy="256.76703"
     r="53.510853" /><ellipse
     transform="matrix(-0.05957947,0.99822357,0.97414374,0.22592915,0,0)"
     ry="40.019875"
     rx="80.810127"
     cy="65.601265"
     cx="245.44994"
     id="ellipse3352" /><ellipse
     id="ellipse3354"
     cx="143.12505"
     cy="483.75366"
     rx="80.810127"
     ry="40.019875"
     transform="matrix(-0.05957947,0.99822357,0.97414374,0.22592915,0,0)" /></svg>