<?xml version="1.0" encoding="UTF-8" standalone="no"?>
<svg
   xmlns:dc="http://purl.org/dc/elements/1.1/"
   xmlns:cc="http://creativecommons.org/ns#"
   xmlns:rdf="http://www.w3.org/1999/02/22-rdf-syntax-ns#"
   xmlns:svg="http://www.w3.org/2000/svg"
   xmlns="http://www.w3.org/2000/svg"
   xmlns:xlink="http://www.w3.org/1999/xlink"
   xmlns:sodipodi="http://sodipodi.sourceforge.net/DTD/sodipodi-0.dtd"
   xmlns:inkscape="http://www.inkscape.org/namespaces/inkscape"
   width="609.26367"
   height="609.26367"
   version="1.1"
   id="svg2"
   inkscape:version="0.91 r13725"
   sodipodi:docname="tissot.svg">
  <metadata
     id="metadata28">
    <rdf:RDF>
      <cc:Work
         rdf:about="">
        <dc:format>image/svg+xml</dc:format>
        <dc:type
           rdf:resource="http://purl.org/dc/dcmitype/StillImage" />
        <dc:title></dc:title>
      </cc:Work>
    </rdf:RDF>
  </metadata>
  <sodipodi:namedview
     pagecolor="#ffffff"
     bordercolor="#666666"
     borderopacity="1"
     objecttolerance="10"
     gridtolerance="10"
     guidetolerance="10"
     inkscape:pageopacity="0"
     inkscape:pageshadow="2"
     inkscape:window-width="892"
     inkscape:window-height="589"
     id="namedview26"
     showgrid="false"
     fit-margin-top="5"
     fit-margin-left="5"
     fit-margin-right="5"
     fit-margin-bottom="5"
     inkscape:zoom="0.39072848"
     inkscape:cx="128.19949"
     inkscape:cy="304.63184"
     inkscape:window-x="0"
     inkscape:window-y="23"
     inkscape:window-maximized="0"
     inkscape:current-layer="svg2" />
  <defs
     id="defs4">
    <path
       id="sphere"
       d="m 780.6267,302.00497 -0.39029,14.8962 -1.16944,14.85536 -1.94533,14.77379 -2.71575,14.65176 -3.47885,14.48954 -4.2324,14.28762 -4.97446,14.0465 -5.70277,13.76691 -6.41538,13.44961 -7.11047,13.09545 -7.78628,12.70523 -8.44036,12.28046 -9.07152,11.82187 -9.67786,11.33086 -10.25763,10.80881 -10.80916,10.25725 -11.3312,9.67746 -11.82219,9.07111 -12.28069,8.44002 -12.70562,7.78566 -13.09569,7.11001 -13.44979,6.415 -13.76711,5.70229 -14.0467,4.97388 -14.28776,4.23189 -14.48964,3.47845 -14.65183,2.71533 -14.77387,1.94482 -14.85541,1.16882 -14.89622,0.38977 -14.8962,-0.39029 -14.85536,-1.16944 -14.77379,-1.94533 -14.65176,-2.71575 -14.48954,-3.47885 -14.28762,-4.2324 -14.0465,-4.97446 -13.76691,-5.70277 -13.44961,-6.41538 -13.09545,-7.11047 -12.70523,-7.78628 -12.28046,-8.44036 -11.82187,-9.07152 -11.33086,-9.67786 -10.80881,-10.25763 -10.25725,-10.80916 -9.67746,-11.3312 -9.07111,-11.82219 -8.44002,-12.28069 -7.78566,-12.70562 -7.11001,-13.09569 -6.415,-13.44979 -5.70229,-13.76711 -4.97388,-14.0467 -4.23189,-14.28776 -3.47845,-14.48964 -2.71533,-14.65183 -1.94482,-14.77387 -1.16882,-14.85541 -0.38977,-14.89622 0.39029,-14.8962 1.16944,-14.85536 1.94533,-14.77379 2.71575,-14.65176 3.47885,-14.48954 4.2324,-14.28762 4.97446,-14.0465 5.70277,-13.76691 6.41538,-13.44961 7.11047,-13.09545 7.78628,-12.70523 8.44036,-12.28046 9.07152,-11.82187 9.67786,-11.33086 10.25763,-10.80881 10.80916,-10.257245 11.3312,-9.677465 11.82219,-9.071109 12.28069,-8.440018 12.70562,-7.785662 13.09569,-7.110008 13.44979,-6.415005 13.76711,-5.702284 14.0467,-4.973879 14.28776,-4.231892 14.48964,-3.478452 14.65183,-2.715333 14.77387,-1.944818 14.85541,-1.168821 14.89622,-0.389772 14.8962,0.390292 14.85536,1.169443 14.77379,1.945333 14.65176,2.715742 14.48954,3.478857 14.28762,4.232392 14.0465,4.974469 13.76691,5.702764 13.44961,6.415382 13.09545,7.110468 12.70523,7.786282 12.28046,8.44036 11.82187,9.071522 11.33086,9.67786 10.80881,10.257627 10.25725,10.80916 9.67746,11.3312 9.07111,11.82219 8.44002,12.28069 7.78566,12.70562 7.11001,13.09569 6.415,13.44979 5.70229,13.76711 4.97388,14.0467 4.23189,14.28776 3.47845,14.48964 2.71533,14.65183 1.94482,14.77387 1.16882,14.85541 0.38977,14.89622 z"
       style="display:inline"
       inkscape:connector-curvature="0" />
  </defs>
  <use
     class="stroke"
     xlink:href="#sphere"
     style="display:inline;fill:none;stroke:#000000;stroke-width:30px"
     id="use7"
     x="0"
     y="0"
     width="100%"
     height="100%"
     transform="translate(-191.36816,2.6318434)" />
  <ellipse
     class="listellip"
     cx="64.480751"
     cy="423.59445"
     rx="86.516632"
     ry="136.58087"
     transform="matrix(0.56634335,-0.82416941,0.82416941,0.56634335,0,0)"
     style="display:inline;fill:none;fill-opacity:0.5;stroke:#000000;stroke-width:25px"
     id="ellipse24" />
</svg>
