<?xml version="1.0" encoding="utf-8"?>
<!-- Generator: Adobe Illustrator 16.0.0, SVG Export Plug-In . SVG Version: 6.00 Build 0)  -->
<!DOCTYPE svg PUBLIC "-//W3C//DTD SVG 1.1//EN" "http://www.w3.org/Graphics/SVG/1.1/DTD/svg11.dtd">
<svg version="1.1"
	 id="svg2" sodipodi:docname="loxo.svg" inkscape:version="0.91 r13725" xmlns:dc="http://purl.org/dc/elements/1.1/" xmlns:cc="http://creativecommons.org/ns#" xmlns:rdf="http://www.w3.org/1999/02/22-rdf-syntax-ns#" xmlns:svg="http://www.w3.org/2000/svg" xmlns:sodipodi="http://sodipodi.sourceforge.net/DTD/sodipodi-0.dtd" xmlns:inkscape="http://www.inkscape.org/namespaces/inkscape"
	 xmlns="http://www.w3.org/2000/svg" xmlns:xlink="http://www.w3.org/1999/xlink" x="0px" y="0px" width="583.61px"
	 height="583.61px" viewBox="0 0 583.61 583.61" enable-background="new 0 0 583.61 583.61" xml:space="preserve">
<sodipodi:namedview  inkscape:current-layer="svg2" inkscape:window-maximized="0" inkscape:window-y="23" inkscape:window-x="0" fit-margin-bottom="5" fit-margin-right="5" inkscape:window-height="528" inkscape:window-width="917" inkscape:pageshadow="2" inkscape:pageopacity="0" inkscape:cy="291.80514" inkscape:cx="291.80514" inkscape:zoom="0.39072848" fit-margin-left="5" fit-margin-top="5" showgrid="false" guidetolerance="10" gridtolerance="10" objecttolerance="10" bordercolor="#666666" pagecolor="#ffffff" borderopacity="1" id="namedview24">
	</sodipodi:namedview>
<g id="use7" transform="translate(-204.19486,-10.194858)">
	<path id="sphere" inkscape:connector-curvature="0" fill="none" stroke="#000000" stroke-width="50" d="M291.805,563.606
		l-14.225-0.373l-14.186-1.117l-14.108-1.857l-13.991-2.592l-13.837-3.322l-13.644-4.041l-13.414-4.75l-13.147-5.447l-12.843-6.125
		l-12.505-6.791l-12.133-7.434l-11.728-8.061l-11.289-8.662l-10.82-9.242l-10.322-9.795l-9.795-10.322l-9.242-10.82l-8.663-11.289
		l-8.06-11.727l-7.435-12.133l-6.79-12.506l-6.126-12.844l-5.445-13.146l-4.75-13.414l-4.042-13.643l-3.322-13.838l-2.593-13.99
		l-1.857-14.109l-1.117-14.186l-0.373-14.225l0.373-14.225l1.117-14.186l1.857-14.108l2.593-13.991l3.322-13.837l4.042-13.644
		l4.75-13.414l5.445-13.147l6.126-12.843l6.79-12.505l7.435-12.133l8.06-11.728l8.663-11.289l9.242-10.82l9.795-10.322l10.322-9.795
		l10.82-9.241l11.289-8.663l11.728-8.06l12.133-7.435l12.505-6.79l12.843-6.126l13.147-5.445l13.414-4.75l13.644-4.042l13.837-3.322
		l13.991-2.593l14.108-1.857l14.186-1.116l14.225-0.373l14.225,0.373l14.186,1.116l14.109,1.857l13.99,2.593l13.838,3.322
		l13.643,4.042l13.414,4.75l13.146,5.445L415.2,49.63l12.506,6.79l12.133,7.435l11.727,8.06l11.289,8.663l10.82,9.241l10.322,9.795
		l9.795,10.322l9.242,10.82l8.662,11.289l8.061,11.728l7.434,12.133l6.791,12.505l6.125,12.843l5.447,13.147l4.75,13.414
		l4.041,13.644l3.322,13.837l2.592,13.991l1.857,14.108l1.117,14.186l0.373,14.225l-0.373,14.225l-1.117,14.186l-1.857,14.109
		l-2.592,13.99l-3.322,13.838l-4.041,13.643l-4.75,13.414l-5.447,13.146l-6.125,12.844l-6.791,12.506l-7.434,12.133l-8.061,11.727
		l-8.662,11.289l-9.242,10.82l-9.795,10.322l-10.322,9.795l-10.82,9.242l-11.289,8.662l-11.727,8.061l-12.133,7.436l-12.506,6.789
		l-12.844,6.125l-13.146,5.447l-13.414,4.75l-13.643,4.041l-13.838,3.322l-13.99,2.592l-14.109,1.857l-14.186,1.117L291.805,563.606
		z"/>
</g>
<path id="path17" inkscape:connector-curvature="0" fill="none" stroke="#000000" stroke-width="34" d="M25.112,239.365l-0.093,0.48
	l-0.587,3.221l-0.516,3.228l-0.445,3.234l-0.375,3.238l-0.304,3.243l-0.233,3.245l-0.163,3.247l-0.092,3.248l-0.021,3.248
	l0.05,3.246l0.121,3.244l0.191,3.241l0.262,3.237l0.332,3.231l0.402,3.225l0.472,3.218l0.542,3.21l0.611,3.2l0.681,3.19l0.75,3.18
	l0.819,3.166l0.888,3.154l0.956,3.14l1.023,3.124l1.091,3.109l1.158,3.092l1.225,3.072l1.292,3.055l1.357,3.035l1.423,3.014
	l1.488,2.992l1.553,2.971l1.617,2.945l1.68,2.922l1.744,2.896l1.806,2.871l1.868,2.843l1.929,2.815l1.989,2.787l2.05,2.756
	l2.109,2.727l2.168,2.695l2.226,2.664l2.283,2.629l2.34,2.598l2.396,2.562l2.451,2.525l2.505,2.492l2.559,2.453l2.612,2.418
	l2.664,2.378l2.716,2.339l2.766,2.301l2.815,2.26l2.864,2.219l2.912,2.178l2.959,2.135l3.005,2.092l3.05,2.049l3.095,2.004
	l3.138,1.959l3.181,1.916l3.222,1.867l3.262,1.822l3.302,1.775l3.341,1.729l3.378,1.68l3.415,1.633l3.451,1.582l3.485,1.533
	l3.519,1.484l3.551,1.434l3.583,1.383l3.613,1.33l3.642,1.281l3.671,1.229l3.697,1.178l3.724,1.123l3.749,1.072l3.773,1.018
	l3.795,0.965l3.818,0.912l3.838,0.857l3.858,0.803l3.876,0.75l3.894,0.695l3.91,0.639l3.925,0.586l3.939,0.531l3.952,0.475
	l3.964,0.42l3.975,0.365l3.984,0.309l3.992,0.254l4,0.197l4.006,0.145l4.011,0.086l4.015,0.031l4.018-0.023l4.02-0.08l4.02-0.135
	l4.02-0.191l4.019-0.246l4.015-0.301l4.011-0.355l4.007-0.412l4-0.465l3.994-0.521l3.985-0.576l3.976-0.629l3.966-0.684l3.954-0.738
	l3.941-0.791l3.928-0.846l3.914-0.898l3.898-0.951l3.881-1.004l3.863-1.055l3.844-1.107l3.824-1.16l3.805-1.211l3.781-1.262
	l3.76-1.311l3.736-1.363l3.711-1.412l3.686-1.461l3.658-1.51l3.631-1.559l3.604-1.605l3.572-1.654l3.543-1.699l3.512-1.748
	l3.479-1.793l3.447-1.838l3.412-1.883l3.379-1.928l3.342-1.971l3.307-2.014l3.268-2.059l3.23-2.098l3.193-2.141l3.152-2.182
	l3.111-2.221l3.072-2.262l3.029-2.299l2.986-2.338l2.943-2.375l2.9-2.412l2.855-2.449l2.809-2.484l2.764-2.518l2.719-2.554
	l2.67-2.586l2.623-2.619l2.574-2.651l2.525-2.682l2.477-2.712l2.426-2.742l2.375-2.771l2.326-2.799l2.273-2.828l2.221-2.853
	l2.168-2.879l2.117-2.903l2.062-2.93l2.01-2.951l1.955-2.975l1.9-2.996l1.846-3.018l1.791-3.037l1.734-3.057l1.68-3.076l1.623-3.093
	l1.568-3.11l1.51-3.127l1.455-3.141l1.396-3.156l1.34-3.17l1.281-3.183l1.225-3.194l1.168-3.206l1.109-3.216l1.051-3.226
	l0.992-3.234l0.936-3.242l0.877-3.249l0.818-3.254l0.76-3.26l0.701-3.264l0.643-3.268l0.586-3.271l0.527-3.273l0.469-3.273
	l0.41-3.274l0.352-3.273l0.295-3.272l0.236-3.27l0.178-3.267l0.121-3.263l0.062-3.259l0.008-3.253l-0.051-3.247l-0.109-3.239
	l-0.164-3.232l-0.221-3.223l-0.275-3.214l-0.334-3.204l-0.389-3.193l-0.443-3.182l-0.498-3.169l-0.553-3.155l-0.607-3.142
	l-0.662-3.127l-0.715-3.112l-0.768-3.095l-0.82-3.079l-0.875-3.062l-0.924-3.043l-0.977-3.023l-1.029-3.004l-1.078-2.984
	l-1.129-2.963l-1.178-2.941l-1.227-2.919l-1.277-2.896l-1.324-2.873l-1.371-2.848l-1.418-2.823l-1.465-2.798l-1.512-2.772
	l-1.557-2.745l-1.6-2.718l-1.646-2.69l-1.688-2.662l-1.732-2.633l-1.773-2.603l-1.814-2.573l-1.857-2.542l-1.896-2.512l-1.936-2.48
	l-1.975-2.448l-2.014-2.416l-2.051-2.382l-2.088-2.349l-2.125-2.315l-2.158-2.281l-2.195-2.246l-2.229-2.211l-2.262-2.175
	l-2.293-2.14l-2.326-2.103l-2.357-2.066l-2.387-2.029l-2.416-1.992l-2.445-1.954l-2.473-1.916l-2.5-1.877l-2.527-1.839l-2.553-1.799
	l-2.576-1.76l-2.602-1.721l-2.625-1.681l-2.646-1.641l-2.668-1.601l-2.689-1.561l-2.709-1.52l-2.729-1.479l-2.746-1.438
	l-2.766-1.396l-2.779-1.355l-2.797-1.313l-2.812-1.272l-2.826-1.23l-2.84-1.188l-2.852-1.146l-2.865-1.104l-2.873-1.062l-2.887-1.02
	l-2.895-0.979l-2.902-0.936l-2.91-0.894l-2.918-0.851l-2.924-0.809l-2.928-0.767l-2.934-0.724l-2.938-0.682l-2.939-0.64
	l-2.941-0.598l-2.943-0.556l-2.943-0.513l-2.941-0.472l-2.941-0.43l-2.941-0.388l-2.936-0.347l-2.934-0.305l-2.93-0.264
	l-2.924-0.223l-2.918-0.182l-2.912-0.141l-2.904-0.101l-2.896-0.06l-2.888-0.02l-2.877,0.02l-2.867,0.06l-2.857,0.1l-2.844,0.139
	l-2.832,0.178l-2.818,0.217l-2.805,0.255l-2.791,0.293l-2.775,0.332l-2.759,0.369l-2.742,0.406l-2.726,0.443l-2.707,0.48
	l-2.688,0.516l-2.669,0.553l-2.65,0.588l-2.629,0.623l-2.608,0.658l-2.586,0.693l-2.563,0.727l-2.541,0.761l-2.518,0.794
	l-2.494,0.827l-2.469,0.86l-2.444,0.892l-2.418,0.923l-2.392,0.955l-2.365,0.985l-2.338,1.016l-2.31,1.046l-2.282,1.075
	l-2.253,1.104l-2.224,1.133l-2.194,1.161l-2.164,1.188l-2.133,1.216l-2.102,1.242l-2.071,1.268l-2.039,1.294l-2.007,1.319
	l-1.974,1.344l-1.941,1.368l-1.907,1.391l-1.874,1.415l-1.84,1.437l-1.805,1.459l-1.771,1.48l-1.735,1.501l-1.7,1.522l-1.665,1.542
	l-1.628,1.561l-1.592,1.58l-1.556,1.598l-1.519,1.616l-1.482,1.633l-1.445,1.649l-1.408,1.666l-1.37,1.681l-1.332,1.696l-1.294,1.71
	l-1.256,1.724l-1.218,1.737l-1.179,1.75l-1.141,1.762l-1.102,1.773l-1.063,1.784l-1.024,1.795l-0.985,1.805l-0.946,1.814
	l-0.907,1.823l-0.868,1.831l-0.829,1.838l-0.79,1.845l-0.75,1.852l-0.71,1.858l-0.672,1.863l-0.632,1.868l-0.593,1.872l-0.554,1.876
	l-0.515,1.879l-0.476,1.882l-0.436,1.884l-0.397,1.885l-0.358,1.886l-0.319,1.887l-0.281,1.886l-0.242,1.886l-0.204,1.885
	l-0.165,1.883l-0.127,1.881l-0.089,1.878l-0.051,1.874l-0.013,1.871l0.024,1.866l0.062,1.862l0.099,1.856l0.136,1.851l0.173,1.844
	l0.209,1.837l0.246,1.83l0.281,1.822l0.318,1.814l0.353,1.806l0.388,1.796l0.423,1.787l0.458,1.777l0.493,1.766l0.526,1.755
	l0.561,1.743l0.594,1.732l0.627,1.719l0.66,1.706l0.692,1.693l0.725,1.68l0.756,1.666l0.788,1.651l0.819,1.637l0.85,1.622
	l0.88,1.606l0.91,1.59l0.939,1.574l0.969,1.557l0.997,1.54l1.026,1.522l1.053,1.505l1.081,1.487l1.108,1.469l1.135,1.45l1.161,1.431
	l1.187,1.412l1.212,1.392l1.237,1.372l1.261,1.352l1.286,1.331l1.309,1.311l1.332,1.29l1.354,1.268l1.376,1.246l1.398,1.225
	l1.419,1.203l1.44,1.18l1.46,1.158l1.48,1.135l1.499,1.112l1.518,1.089l1.536,1.065l1.554,1.042l1.571,1.019l1.588,0.995l1.604,0.97
	l1.62,0.947l1.634,0.922l1.649,0.897l1.663,0.873l1.677,0.848l1.69,0.824l1.703,0.798l1.715,0.773l1.727,0.748l1.737,0.723
	l1.748,0.698l1.758,0.672l1.767,0.646l1.776,0.621l1.785,0.596l1.792,0.569l1.8,0.544l1.807,0.518l1.813,0.493l1.819,0.466
	l1.825,0.441l1.83,0.415l1.834,0.389l1.838,0.363l1.841,0.337l1.844,0.312l1.846,0.286l1.848,0.26l1.85,0.235l1.85,0.209
	l1.851,0.184l1.851,0.158l1.85,0.133l1.849,0.107l1.847,0.082l1.845,0.058l1.842,0.032l1.839,0.007l1.836-0.018l1.832-0.042
	l1.828-0.067l1.822-0.091l1.817-0.116l1.812-0.14l1.805-0.164l1.798-0.188l1.791-0.211l1.784-0.235l1.775-0.259l1.767-0.282
	l1.758-0.305l1.749-0.328l1.739-0.351l1.729-0.373l1.719-0.395l1.707-0.417l1.697-0.439l1.685-0.461l1.673-0.482l1.66-0.503
	l1.646-0.525l1.635-0.545l1.619-0.566l1.607-0.586l1.592-0.606l1.578-0.626l1.562-0.646l1.547-0.665l1.533-0.684l1.516-0.703
	l1.5-0.721l1.482-0.739l1.467-0.757l1.449-0.775l1.43-0.792l1.414-0.81l1.396-0.826l1.377-0.842l1.359-0.859l1.34-0.875l1.322-0.89
	l1.301-0.905l1.281-0.921l1.264-0.935l1.242-0.95l1.223-0.964l1.201-0.977l1.18-0.991l1.16-1.004l1.141-1.017l1.117-1.029
	l1.096-1.042l1.074-1.053l1.055-1.065l1.029-1.076l1.01-1.087l0.986-1.097l0.965-1.107l0.941-1.117l0.92-1.127l0.896-1.136
	l0.873-1.145l0.85-1.153l0.828-1.161l0.805-1.169l0.781-1.177l0.758-1.184l0.734-1.191l0.711-1.197l0.686-1.204l0.664-1.209
	l0.641-1.214l0.615-1.219l0.594-1.225l0.568-1.229l0.545-1.233l0.521-1.237l0.498-1.24l0.473-1.243l0.451-1.246l0.426-1.249
	l0.402-1.251l0.379-1.252l0.354-1.254l0.332-1.255l0.307-1.256l0.285-1.256l0.26-1.257l0.236-1.256l0.215-1.256l0.189-1.255
	l0.166-1.254l0.145-1.252l0.121-1.25l0.098-1.249l0.074-1.247l0.053-1.244l0.029-1.241l0.006-1.237l-0.016-1.234l-0.037-1.23
	l-0.061-1.226l-0.084-1.222l-0.104-1.217l-0.125-1.212l-0.148-1.207l-0.17-1.201l-0.189-1.195l-0.211-1.189l-0.232-1.183
	l-0.254-1.176l-0.273-1.169l-0.295-1.162l-0.314-1.155l-0.334-1.147l-0.355-1.139l-0.373-1.131l-0.395-1.123l-0.412-1.114
	l-0.432-1.104l-0.451-1.096l-0.469-1.086l-0.486-1.077l-0.506-1.067l-0.523-1.058l-0.541-1.047l-0.559-1.037l-0.574-1.026
	l-0.594-1.015l-0.609-1.004l-0.625-0.993l-0.641-0.981l-0.658-0.97l-0.674-0.958l-0.688-0.946l-0.705-0.934l-0.717-0.921
	l-0.734-0.909l-0.746-0.896l-0.762-0.884l-0.775-0.871l-0.789-0.857l-0.801-0.844l-0.814-0.831l-0.828-0.818l-0.84-0.804
	l-0.852-0.79l-0.863-0.776l-0.875-0.762l-0.887-0.748l-0.896-0.734l-0.906-0.719l-0.918-0.705l-0.928-0.69l-0.938-0.676
	l-0.947-0.661l-0.955-0.646l-0.965-0.631l-0.973-0.616l-0.982-0.602l-0.988-0.586l-0.998-0.571l-1.004-0.556l-1.01-0.541
	l-1.018-0.525l-1.023-0.51l-1.031-0.494l-1.035-0.479l-1.041-0.463l-1.047-0.448l-1.051-0.433l-1.055-0.417l-1.061-0.401
	l-1.062-0.386l-1.068-0.37l-1.07-0.354l-1.074-0.339l-1.076-0.323l-1.078-0.308l-1.082-0.292l-1.082-0.277l-1.084-0.261
	l-1.086-0.246l-1.086-0.23l-1.088-0.214l-1.086-0.199l-1.088-0.184l-1.088-0.168l-1.086-0.153l-1.088-0.138l-1.084-0.123
	l-1.084-0.107l-1.082-0.093l-1.08-0.078l-1.078-0.063l-1.075-0.048l-1.073-0.033l-1.07-0.019l-1.066-0.004l-1.062,0.011l-1.06,0.025
	l-1.056,0.04l-1.051,0.054l-1.047,0.068l-1.041,0.082l-1.037,0.096l-1.031,0.109l-1.027,0.124l-1.02,0.137l-1.014,0.15l-1.008,0.164
	l-1.001,0.177l-0.995,0.19l-0.988,0.203l-0.981,0.216l-0.974,0.229l-0.966,0.241l-0.958,0.253l-0.95,0.266l-0.942,0.278l-0.934,0.29
	l-0.925,0.302l-0.917,0.313l-0.907,0.325l-0.898,0.337l-0.889,0.348l-0.88,0.358l-0.87,0.37l-0.86,0.38l-0.85,0.391l-0.84,0.401
	l-0.83,0.412l-0.819,0.422l-0.809,0.432l-0.797,0.441l-0.787,0.451l-0.775,0.46l-0.764,0.469l-0.753,0.479l-0.741,0.487
	l-0.729,0.496l-0.717,0.504l-0.706,0.513l-0.694,0.521l-0.682,0.529l-0.669,0.537l-0.657,0.544l-0.645,0.551l-0.632,0.559
	l-0.619,0.565l-0.606,0.572l-0.594,0.579l-0.581,0.585l-0.568,0.591l-0.555,0.598l-0.542,0.603l-0.528,0.609l-0.515,0.614
	l-0.502,0.619l-0.488,0.625l-0.475,0.629l-0.462,0.634l-0.447,0.638l-0.435,0.642l-0.42,0.646l-0.407,0.65l-0.393,0.654
	l-0.379,0.657l-0.366,0.661l-0.353,0.664l-0.338,0.667l-0.325,0.669l-0.311,0.672l-0.297,0.674l-0.283,0.676l-0.27,0.678
	l-0.255,0.679l-0.242,0.681l-0.228,0.682l-0.214,0.684l-0.201,0.684l-0.187,0.685l-0.173,0.686l-0.16,0.686l-0.146,0.686
	l-0.132,0.686l-0.119,0.686l-0.105,0.686l-0.092,0.685l-0.079,0.684l-0.065,0.683l-0.052,0.683l-0.039,0.681l-0.026,0.68
	l-0.013,0.678v0.676l0.013,0.674l0.026,0.672l0.039,0.669l0.052,0.667l0.064,0.665l0.077,0.662l0.089,0.659l0.101,0.655l0.114,0.652
	l0.126,0.649l0.138,0.646l0.149,0.642l0.162,0.638l0.173,0.634l0.185,0.629l0.196,0.625l0.208,0.621l0.219,0.616l0.23,0.612
	l0.241,0.606l0.251,0.602l0.263,0.596l0.273,0.591l0.284,0.585l0.294,0.58l0.304,0.575l0.314,0.568l0.324,0.563l0.334,0.557
	l0.344,0.55l0.354,0.545l0.362,0.538l0.372,0.531l0.381,0.525l0.39,0.518l0.399,0.512l0.407,0.505l0.416,0.498l0.424,0.491
	l0.432,0.483l0.44,0.476l0.448,0.469l0.455,0.461l0.463,0.454l0.471,0.446l0.478,0.439l0.484,0.431l0.491,0.423l0.498,0.416
	l0.504,0.407l0.511,0.399l0.517,0.392l0.523,0.383l0.529,0.375l0.534,0.367l0.54,0.358l0.545,0.35l0.55,0.342l0.555,0.333
	l0.56,0.325l0.564,0.316l0.569,0.308l0.573,0.299l0.577,0.291l0.582,0.282l0.585,0.273l0.588,0.265l0.592,0.256l0.595,0.247
	l0.598,0.238l0.601,0.229l0.604,0.221l0.606,0.212l0.608,0.203l0.611,0.194l0.613,0.186l0.615,0.177l0.616,0.168l0.618,0.159
	l0.619,0.15l0.62,0.142l0.621,0.133l0.622,0.124l0.623,0.115l0.623,0.106l0.624,0.098l0.623,0.089l0.624,0.081l0.624,0.072
	l0.623,0.063l0.622,0.055l0.622,0.046l0.621,0.038l0.62,0.029l0.619,0.021l0.617,0.012l0.616,0.004l0.614-0.004l0.613-0.013
	l0.611-0.021l0.608-0.029l0.606-0.037l0.604-0.045l0.602-0.053l0.599-0.062l0.596-0.069l0.593-0.077l0.59-0.084l0.587-0.093
	l0.584-0.1l0.58-0.108l0.576-0.115l0.572-0.122l0.569-0.13l0.565-0.137l0.561-0.145l0.557-0.151l0.553-0.159l0.547-0.166
	l0.543-0.173l0.539-0.179l0.533-0.186l0.529-0.192l0.523-0.199l0.519-0.206l0.513-0.212l0.508-0.218l0.503-0.225l0.497-0.231
	l0.49-0.236l0.486-0.243l0.479-0.249l0.475-0.254l0.467-0.26l0.461-0.265l0.455-0.271l0.449-0.276l0.443-0.281l0.436-0.287
	l0.43-0.291l0.422-0.296l0.416-0.301l0.41-0.306l0.402-0.311l0.396-0.315l0.389-0.319l0.381-0.324l0.375-0.328l0.367-0.332
	l0.359-0.335l0.354-0.34l0.346-0.344l0.338-0.347l0.332-0.351l0.324-0.354l0.314-0.357l0.309-0.36l0.303-0.364l0.293-0.366
	l0.285-0.369l0.277-0.372l0.271-0.375l0.262-0.377l0.256-0.379l0.248-0.382l0.238-0.384l0.232-0.386l0.223-0.388l0.217-0.39
	l0.207-0.392l0.201-0.394l0.193-0.395l0.184-0.396l0.178-0.398l0.168-0.399l0.16-0.399l0.154-0.401l0.145-0.401l0.137-0.402
	l0.131-0.403l0.121-0.404l0.113-0.404l0.107-0.404l0.098-0.405l0.09-0.405l0.084-0.404l0.074-0.405l0.068-0.404l0.059-0.404
	l0.053-0.404l0.043-0.403l0.037-0.403l0.029-0.401l0.021-0.401l0.016-0.4l0.006-0.399v-0.398l-0.008-0.397l-0.016-0.395
	l-0.021-0.394l-0.031-0.393l-0.037-0.391l-0.043-0.39l-0.051-0.387l-0.059-0.386l-0.064-0.384l-0.072-0.381l-0.08-0.38l-0.084-0.377
	l-0.094-0.375l-0.098-0.373l-0.105-0.37l-0.113-0.368l-0.117-0.365l-0.125-0.362l-0.133-0.359l-0.137-0.356l-0.145-0.354
	l-0.148-0.351l-0.156-0.348l-0.162-0.345l-0.168-0.341l-0.174-0.338l-0.18-0.335l-0.184-0.331l-0.191-0.327l-0.195-0.324
	l-0.201-0.32l-0.207-0.317l-0.211-0.313l-0.219-0.309l-0.221-0.305l-0.229-0.301l-0.23-0.297l-0.238-0.293l-0.24-0.289l-0.246-0.285
	l-0.252-0.281l-0.254-0.277l-0.26-0.272l-0.264-0.268l-0.268-0.264l-0.271-0.259l-0.277-0.255l-0.279-0.25l-0.283-0.246
	l-0.287-0.241l-0.291-0.236l-0.295-0.232l-0.297-0.228l-0.301-0.223l-0.305-0.218l-0.307-0.213l-0.311-0.208l-0.312-0.203
	l-0.316-0.199l-0.318-0.194l-0.322-0.188l-0.324-0.184l-0.326-0.179l-0.328-0.174l-0.33-0.169l-0.334-0.164l-0.334-0.159
	l-0.337-0.154l-0.339-0.149l-0.34-0.144l-0.342-0.139l-0.344-0.134l-0.345-0.128l-0.347-0.124l-0.348-0.119l-0.348-0.113
	l-0.35-0.109l-0.351-0.104l-0.351-0.099l-0.353-0.093l-0.353-0.088l-0.354-0.083l-0.354-0.078l-0.354-0.073l-0.355-0.068
	l-0.354-0.063l-0.355-0.058l-0.354-0.053l-0.355-0.048l-0.354-0.043l-0.354-0.039l-0.354-0.034l-0.354-0.028l-0.352-0.024
	l-0.352-0.019l-0.352-0.015l-0.35-0.009l-0.35-0.005h-0.349l-0.347,0.005l-0.346,0.01l-0.346,0.014l-0.344,0.019l-0.342,0.023
	l-0.34,0.028l-0.339,0.033l-0.337,0.037l-0.335,0.041l-0.334,0.046l-0.332,0.05l-0.33,0.054l-0.328,0.059l-0.326,0.063l-0.323,0.067
	l-0.321,0.071l-0.319,0.076l-0.316,0.08l-0.313,0.084l-0.312,0.088l-0.309,0.091l-0.306,0.096l-0.303,0.1l-0.3,0.103l-0.297,0.107
	l-0.295,0.111l-0.292,0.114l-0.289,0.118l-0.285,0.121l-0.282,0.125l-0.279,0.129l-0.275,0.132l-0.272,0.135l-0.269,0.139
	l-0.266,0.142l-0.262,0.145l-0.259,0.148l-0.255,0.151l-0.251,0.154l-0.248,0.157l-0.244,0.16l-0.24,0.163L282.312,135l-0.232,0.168
	l-0.229,0.171l-0.225,0.173l-0.221,0.176l-0.217,0.179l-0.213,0.181l-0.208,0.183l-0.205,0.186l-0.2,0.188l-0.196,0.19l-0.192,0.192
	l-0.188,0.193l-0.184,0.196l-0.179,0.197l-0.175,0.2l-0.171,0.201l-0.167,0.203l-0.162,0.205l-0.158,0.207l-0.153,0.208
	l-0.149,0.209l-0.145,0.21l-0.14,0.212l-0.136,0.213l-0.132,0.214l-0.127,0.216l-0.123,0.216l-0.118,0.218l-0.114,0.218l-0.109,0.22
	l-0.104,0.22l-0.101,0.221l-0.096,0.222l-0.092,0.223l-0.087,0.223l-0.083,0.224l-0.078,0.224l-0.074,0.224l-0.069,0.225
	l-0.064,0.225l-0.061,0.225l-0.056,0.225l-0.052,0.226l-0.047,0.225l-0.043,0.226l-0.038,0.225l-0.034,0.225l-0.029,0.225
	l-0.025,0.225l-0.021,0.225l-0.017,0.224l-0.013,0.224l-0.008,0.223l-0.004,0.223l0,0.222l0.004,0.221l0.009,0.22l0.013,0.22
	l0.017,0.219l0.021,0.218l0.025,0.217l0.029,0.216l0.033,0.215l0.037,0.214l0.041,0.213l0.044,0.211l0.048,0.21l0.052,0.209
	l0.056,0.208l0.06,0.207l0.063,0.205l0.067,0.203l0.07,0.202l0.075,0.2l0.078,0.199l0.082,0.197l0.085,0.195l0.088,0.194
	l0.092,0.192l0.095,0.19l0.099,0.188l0.102,0.187l0.104,0.184l0.108,0.183l0.111,0.18l0.114,0.179l0.117,0.176l0.12,0.174
	l0.123,0.172l0.126,0.17l0.129,0.168l0.131,0.166l0.134,0.163l0.137,0.161l0.14,0.159l0.142,0.156l0.145,0.154l0.147,0.151
	l0.149,0.149l0.152,0.146l0.154,0.144l0.156,0.142l0.159,0.139l0.161,0.136l0.163,0.134l0.165,0.131l0.167,0.129l0.169,0.126
	l0.17,0.123l0.172,0.121l0.174,0.118l0.176,0.115l0.178,0.113l0.179,0.109l0.181,0.107l0.182,0.104l0.184,0.102l0.185,0.099
	l0.186,0.096l0.188,0.093l0.189,0.09l0.189,0.088l0.191,0.084l0.192,0.082l0.193,0.079l0.194,0.076l0.195,0.074l0.195,0.07
	l0.196,0.068l0.197,0.065l0.197,0.062l0.198,0.059l0.199,0.057l0.199,0.053l0.2,0.05l0.2,0.048l0.2,0.045l0.2,0.042l0.201,0.039
	l0.201,0.037l0.201,0.034l0.201,0.03l0.201,0.028l0.201,0.025l0.201,0.022l0.201,0.02l0.2,0.017l0.2,0.014l0.2,0.011l0.2,0.009
	l0.199,0.006l0.199,0.003l0.198,0l0.197-0.002l0.197-0.005l0.196-0.008l0.195-0.01l0.195-0.013l0.194-0.015l0.193-0.018l0.192-0.021
	l0.191-0.023l0.19-0.025l0.189-0.028l0.188-0.03l0.187-0.033l0.186-0.035l0.186-0.038l0.183-0.04l0.183-0.042l0.18-0.045l0.18-0.047
	l0.178-0.049l0.177-0.052l0.175-0.054l0.174-0.056l0.172-0.058l0.17-0.061l0.17-0.062l0.166-0.064l0.166-0.067l0.164-0.069
	l0.162-0.07l0.16-0.073l0.158-0.074l0.156-0.077l0.154-0.079l0.152-0.08l0.15-0.082l0.148-0.084l0.146-0.086l0.145-0.087
	l0.143-0.089l0.141-0.09l0.139-0.093l0.137-0.094l0.135-0.096l0.131-0.097l0.131-0.099l0.127-0.1l0.125-0.102l0.123-0.103
	l0.121-0.104l0.118-0.105l0.116-0.106l0.113-0.108l0.111-0.109l0.109-0.11l0.107-0.111l0.104-0.113l0.102-0.113l0.1-0.115
	l0.098-0.115l0.094-0.117l0.093-0.118l0.09-0.118l0.087-0.12l0.085-0.12l0.082-0.121l0.079-0.122l0.078-0.122l0.074-0.123
	l0.072-0.124l0.07-0.124l0.066-0.125l0.064-0.125l0.062-0.125l0.061-0.126l0.057-0.127l0.055-0.127l0.051-0.127l0.051-0.128
	l0.047-0.128l0.044-0.129l0.042-0.128l0.039-0.128l0.037-0.129l0.034-0.129l0.032-0.129l0.029-0.129l0.026-0.129l0.024-0.129
	l0.021-0.129l0.02-0.129l0.018-0.129l0.014-0.129l0.012-0.128l0.011-0.128l0.007-0.128l0.005-0.127l0.003-0.127v-0.127l-0.002-0.126
	l-0.006-0.126l-0.007-0.125l-0.009-0.125l-0.012-0.125l-0.014-0.124l-0.017-0.124l-0.019-0.123l-0.021-0.123l-0.021-0.122
	l-0.025-0.121l-0.027-0.12l-0.029-0.12l-0.032-0.119l-0.034-0.118l-0.035-0.118l-0.038-0.116l-0.04-0.116l-0.042-0.115l-0.044-0.114
	l-0.046-0.113l-0.048-0.112l-0.051-0.111l-0.051-0.11l-0.055-0.109l-0.055-0.108l-0.059-0.107l-0.059-0.106l-0.061-0.104
	l-0.063-0.104l-0.064-0.102l-0.066-0.101l-0.067-0.1l-0.07-0.099l-0.071-0.098l-0.073-0.096l-0.074-0.095l-0.076-0.093l-0.077-0.092
	l-0.079-0.091l-0.08-0.09l-0.082-0.088l-0.083-0.087l-0.085-0.085l-0.086-0.084l-0.088-0.083l-0.088-0.081l-0.09-0.08l-0.091-0.078
	l-0.093-0.077l-0.093-0.075l-0.095-0.074l-0.096-0.073l-0.096-0.071l-0.098-0.069l-0.1-0.068l-0.1-0.066l-0.1-0.065l-0.102-0.063
	l-0.103-0.062l-0.103-0.061l-0.104-0.059l-0.104-0.057l-0.105-0.056l-0.106-0.054l-0.106-0.052l-0.107-0.05l-0.109-0.049
	l-0.108-0.047L296.2,143.5l-0.11-0.044l-0.11-0.042l-0.111-0.041l-0.111-0.039l-0.111-0.038l-0.111-0.036l-0.113-0.034l-0.111-0.033
	l-0.113-0.031l-0.113-0.029l-0.113-0.028l-0.113-0.026l-0.113-0.025l-0.114-0.023l-0.114-0.021l-0.113-0.02l-0.113-0.019
	l-0.114-0.017l-0.114-0.015l-0.113-0.014l-0.113-0.012l-0.114-0.01l-0.113-0.009l-0.113-0.007l-0.112-0.006l-0.113-0.004
	l-0.113-0.003l-0.111-0.001l-0.112,0l-0.111,0.002l-0.111,0.003l-0.11,0.005l-0.111,0.006l-0.109,0.008l-0.109,0.009l-0.109,0.011
	l-0.108,0.012l-0.107,0.014l-0.107,0.015l-0.106,0.017l-0.106,0.018l-0.105,0.019l-0.104,0.021l-0.104,0.022l-0.104,0.023
	l-0.102,0.024L291,143.128l-0.101,0.027l-0.1,0.029l-0.099,0.03l-0.099,0.031l-0.098,0.032l-0.096,0.034l-0.096,0.035l-0.095,0.036
	l-0.094,0.037l-0.093,0.038l-0.092,0.039l-0.091,0.041l-0.09,0.042l-0.089,0.043l-0.087,0.044l-0.086,0.045l-0.085,0.045
	l-0.084,0.047l-0.083,0.048l-0.082,0.049l-0.081,0.05l-0.08,0.051l-0.078,0.052l-0.078,0.052l-0.076,0.054l-0.075,0.054
	l-0.074,0.055l-0.072,0.056l-0.071,0.057l-0.07,0.057l-0.069,0.059l-0.067,0.059l-0.066,0.06l-0.064,0.061l-0.063,0.062
	l-0.062,0.062l-0.061,0.062l-0.06,0.063l-0.058,0.064l-0.057,0.064l-0.055,0.065l-0.054,0.065l-0.053,0.066l-0.051,0.066
	l-0.049,0.067l-0.048,0.068l-0.046,0.067l-0.045,0.068l-0.044,0.069l-0.042,0.069l-0.041,0.07l-0.04,0.07l-0.038,0.07l-0.037,0.071
	l-0.035,0.071l-0.034,0.071l-0.033,0.071l-0.031,0.071l-0.029,0.072l-0.028,0.072l-0.027,0.072l-0.025,0.072l-0.024,0.072
	l-0.022,0.072l-0.021,0.073l-0.02,0.073l-0.018,0.072l-0.017,0.073l-0.015,0.073l-0.014,0.073l-0.013,0.073l-0.011,0.072
	l-0.01,0.073l-0.008,0.072l-0.007,0.072l-0.006,0.072l-0.004,0.072l-0.003,0.072l-0.001,0.072l0,0.072l0.001,0.071l0.003,0.071
	l0.004,0.071l0.005,0.071l0.007,0.07l0.008,0.07l0.009,0.07l0.011,0.069l0.012,0.069l0.013,0.069l0.014,0.068l0.016,0.068
	l0.017,0.067l0.018,0.067l0.019,0.067l0.02,0.066l0.021,0.066l0.023,0.065l0.023,0.065l0.025,0.064l0.026,0.063l0.027,0.063
	l0.028,0.062l0.029,0.062l0.03,0.062l0.031,0.061l0.033,0.06l0.033,0.06l0.035,0.059l0.036,0.058l0.036,0.058l0.038,0.057
	l0.039,0.056l0.04,0.056l0.04,0.055l0.041,0.054l0.042,0.054l0.043,0.053l0.043,0.052l0.045,0.051l0.045,0.05l0.046,0.05
	l0.047,0.049l0.048,0.048l0.049,0.047l0.049,0.047l0.05,0.046l0.051,0.045l0.052,0.044l0.052,0.043l0.053,0.042l0.054,0.042
	l0.054,0.041l0.055,0.04l0.055,0.039l0.056,0.039l0.057,0.037l0.057,0.037l0.058,0.036l0.058,0.035l0.059,0.034l0.059,0.033
	l0.059,0.032l0.06,0.031l0.061,0.03l0.06,0.029l0.061,0.028l0.062,0.027l0.062,0.026l0.062,0.026l0.062,0.025l0.062,0.024
	l0.062,0.023l0.063,0.022l0.063,0.021l0.063,0.021l0.064,0.019l0.063,0.019l0.064,0.017l0.064,0.017l0.064,0.016l0.064,0.015
	l0.064,0.014l0.064,0.013l0.064,0.012l0.064,0.011l0.064,0.01l0.064,0.009l0.064,0.008l0.064,0.007l0.064,0.007l0.064,0.006
	l0.064,0.005l0.064,0.004l0.064,0.003l0.063,0.002l0.064,0.001h0.063h0.063l0.063-0.001l0.063-0.002l0.063-0.003l0.062-0.004
	l0.062-0.005l0.062-0.005l0.062-0.006l0.061-0.007l0.062-0.008l0.061-0.009l0.061-0.01l0.06-0.01l0.06-0.011l0.059-0.012
	l0.059-0.013l0.059-0.013l0.058-0.015l0.058-0.015l0.057-0.016l0.057-0.016l0.057-0.017l0.055-0.018l0.056-0.019l0.055-0.019
	l0.054-0.02l0.055-0.021l0.053-0.021l0.053-0.022l0.052-0.022l0.052-0.023l0.051-0.024l0.051-0.024l0.049-0.024l0.049-0.026
	l0.049-0.026l0.048-0.027l0.047-0.027l0.046-0.028l0.047-0.028l0.045-0.029l0.045-0.029l0.043-0.03l0.043-0.031l0.043-0.031
	l0.041-0.031l0.041-0.032l0.041-0.032l0.039-0.033l0.039-0.033l0.038-0.034l0.038-0.034l0.035-0.034l0.037-0.035l0.035-0.036
	l0.033-0.035l0.034-0.036l0.032-0.036l0.033-0.037l0.031-0.037l0.029-0.037l0.03-0.038l0.028-0.038l0.029-0.038l0.027-0.038
	l0.025-0.039l0.025-0.039l0.025-0.039l0.024-0.04l0.022-0.039l0.023-0.04l0.021-0.04l0.021-0.04l0.02-0.04l0.02-0.041l0.018-0.041
	l0.018-0.041l0.018-0.041l0.016-0.041l0.016-0.041l0.014-0.041l0.014-0.041l0.013-0.042l0.013-0.041l0.01-0.042l0.011-0.041
	l0.011-0.042l0.008-0.042l0.009-0.041l0.007-0.042l0.006-0.041l0.006-0.042l0.006-0.041l0.004-0.041l0.002-0.041l0.002-0.041
	l0.002-0.041l0.002-0.041v-0.041l-0.001-0.041l-0.001-0.04l-0.002-0.041l-0.003-0.04l-0.004-0.04l-0.005-0.04l-0.004-0.04
	l-0.006-0.039l-0.008-0.04l-0.007-0.039l-0.008-0.039l-0.009-0.039l-0.01-0.039l-0.01-0.038l-0.011-0.038l-0.011-0.038l-0.013-0.037
	l-0.013-0.037l-0.014-0.037l-0.014-0.036l-0.015-0.036l-0.015-0.036l-0.017-0.036l-0.017-0.035l-0.018-0.035l-0.018-0.035
	l-0.018-0.034l-0.02-0.034l-0.02-0.033l-0.02-0.033l-0.021-0.033l-0.021-0.032l-0.022-0.032l-0.021-0.032l-0.023-0.031l-0.023-0.031
	l-0.023-0.03l-0.023-0.03l-0.025-0.029l-0.025-0.029l-0.025-0.029l-0.026-0.028l-0.026-0.028l-0.027-0.027l-0.027-0.027
	l-0.028-0.027l-0.028-0.026l-0.029-0.026l-0.029-0.025l-0.029-0.025l-0.029-0.024l-0.03-0.024l-0.03-0.023l-0.031-0.023
	l-0.031-0.022l-0.031-0.022l-0.032-0.021l-0.032-0.021l-0.033-0.021l-0.032-0.02l-0.033-0.02l-0.033-0.019l-0.034-0.019
	l-0.033-0.018l-0.034-0.018l-0.034-0.017l-0.035-0.016l-0.034-0.016l-0.034-0.015l-0.035-0.015l-0.035-0.015l-0.035-0.014
	l-0.036-0.013l-0.036-0.013l-0.035-0.012l-0.036-0.011l-0.036-0.011l-0.035-0.011l-0.037-0.01l-0.036-0.009l-0.036-0.009
	l-0.037-0.008l-0.035-0.008l-0.037-0.007l-0.037-0.007l-0.036-0.006l-0.036-0.006l-0.037-0.005l-0.036-0.005l-0.036-0.004
	l-0.037-0.004l-0.036-0.003l-0.036-0.003l-0.037-0.002l-0.035-0.002l-0.037-0.001l-0.036,0l-0.036,0h-0.036l-0.036,0.001
	l-0.036,0.001l-0.036,0.002l-0.035,0.002l-0.036,0.003l-0.035,0.003l-0.035,0.003l-0.035,0.004l-0.035,0.004l-0.035,0.005
	l-0.034,0.005l-0.034,0.006l-0.034,0.006l-0.034,0.007l-0.034,0.007l-0.033,0.007l-0.033,0.008l-0.033,0.008l-0.032,0.009
	l-0.032,0.009l-0.032,0.01l-0.032,0.01l-0.031,0.01l-0.031,0.011l-0.031,0.011l-0.03,0.012l-0.03,0.012l-0.03,0.012l-0.03,0.013
	l-0.029,0.013l-0.029,0.013l-0.029,0.014l-0.028,0.014l-0.028,0.014l-0.027,0.015l-0.027,0.015l-0.027,0.015l-0.026,0.016
	l-0.026,0.016l-0.025,0.016l-0.025,0.017l-0.025,0.017l-0.024,0.017l-0.024,0.017l-0.024,0.018l-0.023,0.019l-0.023,0.018
	l-0.022,0.018l-0.022,0.019l-0.021,0.019l-0.021,0.019l-0.021,0.02l-0.021,0.02l-0.02,0.02l-0.02,0.02l-0.019,0.02l-0.019,0.021
	l-0.019,0.021l-0.018,0.021l-0.017,0.021l-0.017,0.021l-0.016,0.021l-0.016,0.021l-0.016,0.021l-0.015,0.022l-0.015,0.022
	l-0.014,0.022l-0.014,0.022l-0.013,0.022l-0.013,0.022l-0.013,0.022l-0.012,0.022l-0.011,0.023l-0.011,0.023l-0.01,0.023
	l-0.01,0.023l-0.01,0.023l-0.009,0.023l-0.009,0.023l-0.008,0.023l-0.008,0.023l-0.007,0.023l-0.007,0.023l-0.006,0.023
	l-0.006,0.023l-0.005,0.023l-0.005,0.023l-0.005,0.023l-0.004,0.023l-0.004,0.023l-0.003,0.023l-0.003,0.023l-0.002,0.023
	l-0.002,0.023l-0.001,0.023l-0.001,0.023l-0.001,0.022v0.023l0,0.022l0,0.023l0.001,0.023l0.002,0.022l0.002,0.023l0.002,0.022
	l0.003,0.022l0.003,0.022l0.004,0.022l0.004,0.022l0.004,0.022l0.005,0.021l0.005,0.022l0.006,0.021l0.006,0.021l0.006,0.021
	l0.007,0.021l0.007,0.021l0.008,0.021l0.008,0.021l0.008,0.021l0.009,0.02l0.009,0.02l0.009,0.02l0.01,0.02l0.01,0.02l0.011,0.019
	l0.01,0.019l0.011,0.019l0.011,0.019l0.012,0.019l0.012,0.018l0.012,0.018l0.013,0.018l0.013,0.018l0.013,0.017l0.014,0.018
	l0.014,0.017l0.014,0.017l0.014,0.016l0.014,0.017l0.015,0.016l0.015,0.016l0.015,0.016l0.016,0.015l0.016,0.015l0.016,0.015
	l0.017,0.015l0.016,0.014l0.017,0.014l0.017,0.014l0.017,0.014l0.018,0.013l0.017,0.013l0.018,0.013l0.018,0.012l0.018,0.012
	l0.019,0.012l0.018,0.011l0.019,0.012l0.019,0.011l0.019,0.011l0.019,0.01l0.019,0.01l0.02,0.01l0.02,0.009l0.02,0.009l0.02,0.009
	l0.02,0.009l0.02,0.008l0.02,0.008l0.02,0.008l0.021,0.007l0.02,0.007"/>
</svg>
