<?xml version="1.0" encoding="utf-8"?>
<!-- Generator: Adobe Illustrator 16.0.0, SVG Export Plug-In . SVG Version: 6.00 Build 0)  -->
<!DOCTYPE svg PUBLIC "-//W3C//DTD SVG 1.1//EN" "http://www.w3.org/Graphics/SVG/1.1/DTD/svg11.dtd">
<svg version="1.1"
	 id="svg2" sodipodi:docname="rotate.svg" inkscape:version="0.91 r13725" xmlns:dc="http://purl.org/dc/elements/1.1/" xmlns:cc="http://creativecommons.org/ns#" xmlns:rdf="http://www.w3.org/1999/02/22-rdf-syntax-ns#" xmlns:svg="http://www.w3.org/2000/svg" xmlns:sodipodi="http://sodipodi.sourceforge.net/DTD/sodipodi-0.dtd" xmlns:inkscape="http://www.inkscape.org/namespaces/inkscape"
	 xmlns="http://www.w3.org/2000/svg" xmlns:xlink="http://www.w3.org/1999/xlink" x="0px" y="0px" width="609.264px"
	 height="609.264px" viewBox="0 0 609.264 609.264" enable-background="new 0 0 609.264 609.264" xml:space="preserve">
<sodipodi:namedview  inkscape:current-layer="svg2" inkscape:window-maximized="0" inkscape:window-y="0" inkscape:window-x="0" fit-margin-bottom="5" fit-margin-right="5" inkscape:window-height="823" inkscape:window-width="1341" inkscape:pageshadow="2" inkscape:pageopacity="0" inkscape:cy="317.5132" inkscape:cx="304.63184" inkscape:zoom="1" fit-margin-left="5" fit-margin-top="5" showgrid="false" guidetolerance="10" gridtolerance="10" objecttolerance="10" bordercolor="#666666" pagecolor="#ffffff" borderopacity="1" id="namedview26">
	</sodipodi:namedview>
<g id="g4176" transform="translate(-153.29442,-604.50031)">
	<path id="path19-0" inkscape:connector-curvature="0" stroke="#000000" stroke-width="20" stroke-miterlimit="10" d="
		M348.448,800.491l0.61-12.743l0.96-12.353l1.308-11.923l1.65-11.454l1.988-10.949l2.319-10.408l2.643-9.834l2.958-9.228
		l-10.327,2.002l-10.109,2.404l10.531-8.703l10.864-8.062l11.163-7.397l11.426-6.707l6.658,3.882l6.863,4.58l7.047,5.264l7.209,5.93
		l-11.306,0.942l-11.192,1.36l-2.061,9.088l-1.841,9.708l-1.616,10.298l-1.385,10.854l-1.15,11.375l-0.911,11.861l-0.669,12.307
		l-0.425,12.714l13.954-1.752l14.153-1.382l14.307-1.008l14.416-0.63l14.478-0.251l14.494,0.13l14.463,0.51l14.387,0.888
		l-0.491-23.111l11.317,10.164l11.132,10.658l10.902,11.11l10.633,11.521l-21.535,18.465l-22.449,19.652l0.491-25.692l-14.387-0.514
		l-14.463-0.242l-14.494,0.032l-14.478,0.304l-14.416,0.576l-14.307,0.846l-14.153,1.114l-13.954,1.377l0.425,13.8l0.669,14.016
		l0.911,14.188l1.15,14.313l1.385,14.393l1.616,14.426l1.841,14.412l2.061,14.354l22.498-2.301l-14.256,24.055l-13.521,23.362
		l-11.426-8.751l-11.163-8.97l-10.864-9.161l-10.531-9.324l20.436-4.406l-2.958-14.213l-2.643-14.287l-2.319-14.316l-1.988-14.298
		l-1.65-14.235l-1.308-14.125l-0.96-13.971l-0.61-13.771l-12.908,2.819l-12.517,3.053l-12.084,3.277l-11.614,3.491l-11.107,3.693
		l-10.563,3.884l-9.986,4.062l-9.377,4.227l1.004,12.561l1.548,12.656l-8.137-6.917l-7.36-6.807l-6.555-6.671l-5.725-6.51
		l2.757-7.065l2.968-7.012l3.175-6.952l3.38-6.886l3.581-6.813l3.779-6.734l3.974-6.648l4.164-6.556l-1.548,11.667l-1.004,11.919
		l9.377-4.601l9.986-4.33l10.563-4.044l11.107-3.747l11.614-3.437l12.084-3.116l12.517-2.785L348.448,800.491"/>
	<g id="use4174" transform="translate(-38.073739,607.13215)">
		<path id="sphere" inkscape:connector-curvature="0" fill="none" stroke="#000000" stroke-width="50" d="M742.553,909.137
			l-0.391,14.896l-1.169,14.855l-1.945,14.773l-2.716,14.651l-3.479,14.49l-4.232,14.287l-4.975,14.047l-5.702,13.767l-6.416,13.45
			l-7.11,13.095l-7.786,12.705l-8.44,12.281l-9.071,11.821l-9.678,11.331l-10.258,10.809l-10.81,10.258l-11.331,9.678l-11.822,9.07
			l-12.28,8.44l-12.706,7.785l-13.096,7.11l-13.449,6.415l-13.768,5.702l-14.046,4.974l-14.288,4.232l-14.489,3.479l-14.652,2.715
			l-14.773,1.945l-14.855,1.169l-14.896,0.39l-14.896-0.391l-14.855-1.169l-14.774-1.945l-14.652-2.716l-14.49-3.479l-14.287-4.232
			l-14.047-4.975l-13.767-5.702l-13.45-6.416l-13.096-7.11l-12.705-7.786l-12.281-8.44l-11.822-9.071l-11.331-9.678l-10.809-10.258
			l-10.257-10.81l-9.677-11.331l-9.071-11.822l-8.44-12.28l-7.786-12.706l-7.11-13.096l-6.415-13.449l-5.702-13.768l-4.974-14.047
			l-4.232-14.287l-3.479-14.49l-2.715-14.651l-1.945-14.774l-1.168-14.855l-0.39-14.896l0.391-14.896l1.169-14.855l1.945-14.773
			l2.716-14.652l3.479-14.49l4.232-14.288l4.975-14.046l5.703-13.767l6.416-13.45l7.11-13.095l7.786-12.705l8.44-12.281
			l9.072-11.822l9.678-11.331l10.258-10.809l10.809-10.257l11.331-9.677l11.822-9.071l12.281-8.44l12.706-7.786l13.096-7.11
			l13.45-6.415l13.767-5.702l14.047-4.974l14.288-4.232l14.49-3.479l14.652-2.715l14.774-1.945l14.855-1.169l14.896-0.39
			l14.896,0.391l14.855,1.169l14.773,1.945l14.651,2.716l14.49,3.479l14.287,4.232l14.047,4.975l13.767,5.703l13.45,6.416
			l13.095,7.11l12.705,7.786l12.281,8.44l11.821,9.072l11.331,9.678l10.809,10.258l10.258,10.809l9.678,11.331l9.07,11.822
			l8.44,12.281l7.785,12.706l7.11,13.096l6.415,13.45l5.702,13.767l4.974,14.046l4.232,14.288l3.479,14.49l2.715,14.652
			l1.945,14.773l1.169,14.855L742.553,909.137L742.553,909.137z"/>
	</g>
</g>
</svg>
