<?xml version="1.0" encoding="utf-8"?>
<!-- Generator: Adobe Illustrator 16.0.0, SVG Export Plug-In . SVG Version: 6.00 Build 0)  -->
<!DOCTYPE svg PUBLIC "-//W3C//DTD SVG 1.1//EN" "http://www.w3.org/Graphics/SVG/1.1/DTD/svg11.dtd">
<svg version="1.1"
	 id="svg2" sodipodi:docname="tissot.svg" inkscape:version="0.91 r13725" xmlns:dc="http://purl.org/dc/elements/1.1/" xmlns:cc="http://creativecommons.org/ns#" xmlns:rdf="http://www.w3.org/1999/02/22-rdf-syntax-ns#" xmlns:svg="http://www.w3.org/2000/svg" xmlns:sodipodi="http://sodipodi.sourceforge.net/DTD/sodipodi-0.dtd" xmlns:inkscape="http://www.inkscape.org/namespaces/inkscape"
	 xmlns="http://www.w3.org/2000/svg" xmlns:xlink="http://www.w3.org/1999/xlink" x="0px" y="0px" width="609.264px"
	 height="609.264px" viewBox="0 0 609.264 609.264" enable-background="new 0 0 609.264 609.264" xml:space="preserve">
<sodipodi:namedview  inkscape:current-layer="svg2" inkscape:window-maximized="0" inkscape:window-y="23" inkscape:window-x="0" fit-margin-bottom="5" fit-margin-right="5" inkscape:window-height="589" inkscape:window-width="892" inkscape:pageshadow="2" inkscape:pageopacity="0" inkscape:cy="304.63184" inkscape:cx="128.19949" inkscape:zoom="0.39072848" fit-margin-left="5" fit-margin-top="5" showgrid="false" guidetolerance="10" gridtolerance="10" objecttolerance="10" bordercolor="#666666" pagecolor="#ffffff" borderopacity="1" id="namedview26">
	</sodipodi:namedview>
<g id="use7" transform="translate(-191.36816,2.6318434)">
	<path id="sphere" inkscape:connector-curvature="0" fill="none" stroke="#000000" stroke-width="50" d="M589.259,304.637
		l-0.391,14.896l-1.169,14.855l-1.945,14.773l-2.716,14.651l-3.479,14.49l-4.232,14.287l-4.975,14.047l-5.702,13.767l-6.416,13.45
		l-7.11,13.095l-7.786,12.705l-8.44,12.281l-9.071,11.821l-9.678,11.331l-10.258,10.809l-10.81,10.258l-11.331,9.678l-11.822,9.07
		l-12.28,8.44l-12.706,7.785l-13.096,7.11l-13.449,6.415l-13.768,5.702l-14.046,4.974l-14.288,4.232l-14.489,3.479l-14.652,2.715
		l-14.773,1.945l-14.855,1.169l-14.896,0.39l-14.896-0.391l-14.855-1.169l-14.774-1.945l-14.652-2.716l-14.49-3.479l-14.287-4.232
		l-14.047-4.975l-13.767-5.702l-13.45-6.416l-13.096-7.11l-12.705-7.786l-12.281-8.44l-11.822-9.071l-11.331-9.678l-10.809-10.258
		l-10.257-10.81l-9.677-11.331l-9.071-11.822l-8.44-12.28l-7.786-12.706l-7.11-13.096l-6.415-13.449l-5.702-13.768l-4.974-14.047
		l-4.232-14.287l-3.479-14.49l-2.715-14.651l-1.945-14.774l-1.168-14.855l-0.39-14.896l0.391-14.896l1.169-14.855l1.945-14.773
		l2.716-14.652l3.479-14.49l4.232-14.288l4.975-14.046l5.703-13.767l6.416-13.45l7.11-13.095l7.786-12.705l8.44-12.281l9.072-11.822
		l9.678-11.331l10.258-10.809l10.809-10.257l11.331-9.677l11.822-9.071l12.281-8.44l12.706-7.786l13.096-7.11l13.45-6.415
		l13.767-5.702l14.047-4.974l14.288-4.232l14.49-3.479l14.652-2.715l14.774-1.945l14.855-1.169l14.896-0.39l14.896,0.391
		l14.855,1.169l14.773,1.945l14.651,2.716l14.49,3.479l14.287,4.232l14.047,4.975l13.767,5.703l13.45,6.416l13.095,7.11
		l12.705,7.786l12.281,8.44l11.821,9.072l11.331,9.678l10.809,10.258l10.258,10.809l9.678,11.331l9.07,11.822l8.44,12.281
		l7.785,12.706l7.11,13.096l6.415,13.45l5.702,13.767l4.974,14.046l4.232,14.288l3.479,14.49l2.715,14.652l1.945,14.773
		l1.169,14.855L589.259,304.637L589.259,304.637z"/>
</g>
<ellipse id="ellipse24" transform="matrix(-0.8242 -0.5663 0.5663 -0.8242 597.689 559.076)" fill="none" stroke="#000000" stroke-width="40" cx="385.632" cy="186.757" rx="136.581" ry="86.517"/>
</svg>
