<?xml version="1.0" encoding="UTF-8" standalone="no"?>
<svg
   xmlns:dc="http://purl.org/dc/elements/1.1/"
   xmlns:cc="http://creativecommons.org/ns#"
   xmlns:rdf="http://www.w3.org/1999/02/22-rdf-syntax-ns#"
   xmlns:svg="http://www.w3.org/2000/svg"
   xmlns="http://www.w3.org/2000/svg"
   xmlns:xlink="http://www.w3.org/1999/xlink"
   xmlns:sodipodi="http://sodipodi.sourceforge.net/DTD/sodipodi-0.dtd"
   xmlns:inkscape="http://www.inkscape.org/namespaces/inkscape"
   width="553.80548"
   height="553.40033"
   version="1.1"
   id="svg2"
   inkscape:version="0.91 r13725"
   sodipodi:docname="loxodrome.svg"
   inkscape:export-filename="/Users/dramos/Taller/soejs/svg_exports/loxodrome.png"
   inkscape:export-xdpi="90"
   inkscape:export-ydpi="90">
  <metadata
     id="metadata26">
    <rdf:RDF>
      <cc:Work
         rdf:about="">
        <dc:format>image/svg+xml</dc:format>
        <dc:type
           rdf:resource="http://purl.org/dc/dcmitype/StillImage" />
        <dc:title />
      </cc:Work>
    </rdf:RDF>
  </metadata>
  <sodipodi:namedview
     pagecolor="#ffffff"
     bordercolor="#666666"
     borderopacity="1"
     objecttolerance="10"
     gridtolerance="10"
     guidetolerance="10"
     inkscape:pageopacity="0"
     inkscape:pageshadow="2"
     inkscape:window-width="1273"
     inkscape:window-height="664"
     id="namedview24"
     showgrid="false"
     fit-margin-top="20"
     fit-margin-left="20"
     fit-margin-right="20"
     fit-margin-bottom="20"
     inkscape:zoom="0.39333333"
     inkscape:cx="199.56291"
     inkscape:cy="378.39509"
     inkscape:window-x="0"
     inkscape:window-y="46"
     inkscape:window-maximized="0"
     inkscape:current-layer="svg2" />
  <defs
     id="defs4">
    <path
       id="sphere"
       d="m 457.5,556.2 -13.40847,-0.35111 -13.37172,-1.05238 -13.29832,-1.75076 -13.18847,-2.44433 -13.04246,-3.13122 -12.86071,-3.80952 -12.64372,-4.47737 -12.39206,-5.13296 -12.10644,-5.77448 -11.78763,-6.40016 -11.43652,-7.00831 -11.05406,-7.59725 -10.6413,-8.16535 -10.19938,-8.7111 -9.7295,-9.23294 -9.23294,-9.7295 -8.7111,-10.19938 -8.16535,-10.6413 -7.59725,-11.05406 -7.00831,-11.43652 -6.40016,-11.78763 -5.77448,-12.10644 -5.13296,-12.39206 -4.47737,-12.64372 -3.80952,-12.86071 -3.13122,-13.04246 -2.44433,-13.18847 -1.75076,-13.29832 -1.05238,-13.37172 L 201.3,300 l 0.35111,-13.40847 1.05238,-13.37172 1.75076,-13.29832 2.44433,-13.18847 3.13122,-13.04246 3.80952,-12.86071 4.47737,-12.64372 5.13296,-12.39206 5.77448,-12.10644 6.40016,-11.78763 7.00831,-11.43652 7.59725,-11.05406 8.16535,-10.6413 8.7111,-10.19938 9.23294,-9.7295 9.7295,-9.23294 10.19938,-8.7111 10.6413,-8.165354 11.05406,-7.597246 11.43652,-7.008308 11.78763,-6.400163 12.10644,-5.774475 12.39206,-5.132959 12.64372,-4.477374 12.86071,-3.809518 13.04246,-3.131218 13.18847,-2.444338 13.29832,-1.750757 13.37172,-1.052377 L 457.5,43.8 l 13.40847,0.351113 13.37172,1.052377 13.29832,1.750757 13.18847,2.444338 13.04246,3.131218 12.86071,3.809518 12.64372,4.477374 12.39206,5.132959 12.10644,5.774475 11.78763,6.400163 11.43652,7.008308 11.05406,7.597246 10.6413,8.165354 10.19938,8.7111 9.7295,9.23294 9.23294,9.7295 8.7111,10.19938 8.16535,10.6413 7.59725,11.05406 7.00831,11.43652 6.40016,11.78763 5.77448,12.10644 5.13296,12.39206 4.47737,12.64372 3.80952,12.86071 3.13122,13.04246 2.44433,13.18847 1.75076,13.29832 1.05238,13.37172 L 713.7,300 l -0.35111,13.40847 -1.05238,13.37172 -1.75076,13.29832 -2.44433,13.18847 -3.13122,13.04246 -3.80952,12.86071 -4.47737,12.64372 -5.13296,12.39206 -5.77448,12.10644 -6.40016,11.78763 -7.00831,11.43652 -7.59725,11.05406 -8.16535,10.6413 -8.7111,10.19938 -9.23294,9.7295 -9.7295,9.23294 -10.19938,8.7111 -10.6413,8.16535 -11.05406,7.59725 -11.43652,7.00831 -11.78763,6.40016 -12.10644,5.77448 -12.39206,5.13296 -12.64372,4.47737 -12.86071,3.80952 -13.04246,3.13122 -13.18847,2.44433 -13.29832,1.75076 -13.37172,1.05238 L 457.5,556.2 Z"
       style="display:inline"
       inkscape:connector-curvature="0" />
  </defs>
  <use
     class="stroke"
     xlink:href="#sphere"
     style="display:inline;fill:none;stroke:#000000"
     id="use7"
     x="0"
     y="0"
     width="100%"
     height="100%"
     transform="translate(-180.39472,-23.299829)" />
  <use
     class="fill"
     xlink:href="#sphere"
     style="display:inline;fill:#ffffff;fill-opacity:1"
     id="use9"
     x="0"
     y="0"
     width="100%"
     height="100%"
     transform="translate(-180.39472,-23.299829)" />
  <path
     class="loxodrome"
     d="m 119.99237,479.07105 0.45089,0.34844 2.76698,2.07092 2.86627,2.0318 2.96424,1.99108 3.06087,1.94883 3.15606,1.90503 3.24976,1.85972 3.34192,1.8129 3.43245,1.76462 3.52132,1.71488 3.60846,1.66371 3.69379,1.61113 3.77728,1.55717 3.85886,1.50187 3.93847,1.44522 4.01607,1.3873 4.0916,1.32808 4.16498,1.26765 4.23619,1.20599 4.30518,1.14316 4.37188,1.07919 4.43625,1.0141 4.49824,0.94793 4.55782,0.88074 4.61492,0.81252 4.6695,0.74335 4.72155,0.67323 4.77099,0.60222 4.8178,0.53037 4.86193,0.45768 4.90337,0.38423 4.94205,0.31004 4.97796,0.23516 5.01107,0.15962 5.04134,0.0835 5.06874,0.007 5.09325,-0.0705 5.11484,-0.1482 5.1335,-0.22635 5.14919,-0.3049 5.16189,-0.38378 5.1716,-0.46298 5.1783,-0.54242 5.18196,-0.62207 5.18258,-0.70189 5.18015,-0.7818 5.17465,-0.86181 5.16609,-0.94181 5.15445,-1.02181 5.13973,-1.10171 5.12193,-1.1815 5.10106,-1.26111 5.07711,-1.34052 5.05008,-1.41964 5.02,-1.49847 4.98685,-1.57691 4.95066,-1.65497 4.91143,-1.73255 4.86919,-1.80962 4.82393,-1.88616 4.77569,-1.96209 4.72448,-2.03736 4.67033,-2.11195 4.61326,-2.1858 4.55328,-2.25885 4.49045,-2.33108 4.42476,-2.40243 4.35627,-2.47285 4.28501,-2.5423 4.211,-2.61075 4.1343,-2.67814 4.05491,-2.74442 3.97291,-2.80957 3.88833,-2.87353 3.8012,-2.93626 3.71158,-2.99773 3.61951,-3.0579 3.52504,-3.1167 3.42822,-3.17414 3.32912,-3.23015 3.22775,-3.28469 3.12422,-3.33774 3.01854,-3.38925 2.91079,-3.43921 2.80103,-3.48755 2.68932,-3.53426 2.57572,-3.57931 2.4603,-3.62266 1.90338,-2.95915 M 21.023689,268.91195 l -0.0235,3.13649 0.12236,3.17211 0.26929,3.16893 0.41603,3.16348 0.56249,3.15581 0.70859,3.14589 0.85422,3.13376 0.99931,3.11939 1.14375,3.10282 1.28748,3.08405 1.43039,3.06309 1.5724,3.03997 1.71342,3.01467 1.85336,2.98725 1.99216,2.95769 2.1297,2.92604 2.26592,2.8923 2.40073,2.85649 2.53404,2.81866 2.66578,2.7788 2.79586,2.73695 2.92422,2.69315 3.05076,2.64741 3.17543,2.59977 3.29811,2.55026 3.41877,2.4989 3.53733,2.44573 3.65369,2.3908 3.76781,2.33411 3.87962,2.27574 3.98903,2.21569 4.096,2.15402 4.20045,2.09075 4.30233,2.02595 4.401561,1.95963 4.49811,1.89185 4.59191,1.82265 4.68289,1.75208 4.77102,1.68016 4.85623,1.60698 4.93849,1.53253 5.01773,1.45692 5.09393,1.38013 5.16701,1.30227 5.23698,1.22336 5.30375,1.14344 5.36731,1.06258 5.42762,0.98082 5.48464,0.89822 5.53835,0.81483 5.58871,0.7307 5.6357,0.64587 5.67929,0.56041 5.71947,0.47438 5.7562,0.38782 5.78947,0.30077 5.81928,0.21332 5.84559,0.1255 5.8684,0.0374 5.88771,-0.051 5.9035,-0.1396 5.91576,-0.22833 5.92451,-0.31715 5.92974,-0.40601 5.93143,-0.49484 5.92961,-0.5836 5.92429,-0.67223 5.91545,-0.76068 5.90313,-0.8489 5.88733,-0.93681 5.86805,-1.02438 5.84534,-1.11156 5.8192,-1.19828 5.78964,-1.28449 5.75671,-1.37015 5.72043,-1.4552 5.6808,-1.53959 5.63788,-1.62327 5.5917,-1.70617 5.54227,-1.78828 5.48966,-1.86952 5.43387,-1.94984 5.37498,-2.02922 5.31299,-2.10758 5.24798,-2.18489 5.17997,-2.26111 5.10903,-2.33618 5.03517,-2.41007 4.95849,-2.48272 4.87901,-2.55409 4.79679,-2.62417 4.71189,-2.69287 4.62436,-2.76019 4.53426,-2.82606 4.44167,-2.89047 4.34661,-2.95337 4.24919,-3.01472 4.14944,-3.07449 4.04744,-3.13265 3.94325,-3.18916 3.83695,-3.24399 3.7286,-3.29712 3.61826,-3.3485 3.50603,-3.39812 3.39196,-3.44595 3.27612,-3.49195 3.15861,-3.53611 3.03948,-3.57841 2.91881,-3.61882 2.79669,-3.65731 2.67319,-3.69388 2.54839,-3.72849 2.42236,-3.76115 2.2952,-3.79181 2.16696,-3.82049 2.03774,-3.84714 1.90763,-3.87179 1.77668,-3.8944 1.64502,-3.91495 1.51267,-3.93348 1.37977,-3.94993 1.24637,-3.96432 1.11255,-3.97665 0.97841,-3.9869 0.84402,-3.99509 0.70948,-4.0012 0.57484,-4.00524 0.4402,-4.0072 0.30566,-4.00711 0.17127,-4.00495 0.0371,-4.00074 -0.0967,-3.99448 -0.2301,-3.98617 -0.36303,-3.97584 -0.49539,-3.96349 -0.62711,-3.94913 -0.7581,-3.93279 -0.8883,-3.91445 -1.01762,-3.89416 -1.14599,-3.87192 -1.27334,-3.84776 -1.39958,-3.82168 -1.52464,-3.79372 -1.64847,-3.76388 -1.77097,-3.73222 -1.89208,-3.69872 -2.01174,-3.66344 -2.12987,-3.62637 -2.24641,-3.58758 -2.36129,-3.54706 -2.47444,-3.50485 -0.71009,-0.96979 m -351.20574,-59.055503 -2.11746,1.484113 -2.72222,2.000448 -2.62523,2.037248 -2.52711,2.072496 -2.42792,2.10618 -2.32772,2.138289 -2.22656,2.1688 -2.12452,2.19772 -2.02166,2.22502 -1.91806,2.25071 -1.81376,2.27478 -1.70883,2.29721 -1.60335,2.31799 -1.49737,2.33715 -1.39096,2.35465 -1.284201,2.370509 -1.17713,2.38471 -1.06982,2.39726 -0.96236,2.40817 -0.85478,2.41742 -0.74717,2.42503 -0.63958,2.431 -0.53208,2.43532 -0.42473,2.43802 -0.31759,2.43908 -0.21075,2.43854 -0.10422,2.43637 0.002,2.43261 0.10754,2.42725 0.21266,2.42032 0.3172,2.41181 0.4211,2.40175 0.5243,2.39015 0.62673,2.37702 0.72835,2.36237 0.82909,2.34624 0.92891,2.32863 1.02773,2.30954 1.12552,2.28903 1.222221,2.26709 1.31777,2.24374 1.41212,2.21902 1.50523,2.19294 1.59704,2.16551 1.6875,2.13678 1.77658,2.10676 1.86421,2.07547 1.95037,2.04294 2.03498,2.00919 2.11804,1.97426 2.19948,1.93817 2.27926,1.90094 2.35735,1.86261 2.43371,1.8232 2.50831,1.78275 2.58109,1.74127 2.65204,1.6988 2.72111,1.65539 2.78829,1.61103 2.85352,1.5658 2.91679,1.51969 2.97807,1.47275 3.03734,1.42502 3.09455,1.37651 3.14969,1.32728 3.20275,1.27734 3.25369,1.22674 3.3025,1.17551 3.34916,1.12368 3.39365,1.07127 3.43595,1.01835 3.47606,0.96493 3.51395,0.91105 3.54963,0.85674 3.58306,0.80204 3.61426,0.74699 3.6432,0.69161 3.66989,0.63594 3.69432,0.58003 3.71648,0.5239 3.73638,0.46759 3.75401,0.41113 3.76938,0.35456 3.78247,0.29791 3.79332,0.24122 3.8019,0.18452 3.80823,0.12784 3.81233,0.0712 3.81419,0.0147 3.81382,-0.0417 3.81125,-0.0979 3.80647,-0.15397 3.7995,-0.20979 3.79038,-0.26535 3.77909,-0.32061 3.76566,-0.37557 3.75012,-0.43016 3.73248,-0.48437 3.71276,-0.53817 3.69098,-0.59152 3.66718,-0.6444 3.64136,-0.69677 3.61356,-0.7486 3.58381,-0.79989 3.55212,-0.85057 3.51854,-0.90065 3.48309,-0.95007 3.44578,-0.99883 3.40668,-1.0469 3.3658,-1.09423 3.32316,-1.14083 3.27883,-1.18666 3.23282,-1.23169 3.18516,-1.2759 3.13591,-1.31927 3.08508,-1.36179 3.03274,-1.40343 2.97889,-1.44415 2.9236,-1.48396 2.86689,-1.52283 2.80883,-1.56073 2.74942,-1.59766 2.68874,-1.6336 2.62681,-1.66851 2.56367,-1.70241 2.49937,-1.73527 2.43397,-1.76705 2.36749,-1.79779 2.29999,-1.82742 2.23149,-1.85597 2.16208,-1.8834 2.09176,-1.90973 2.02061,-1.93492 1.94864,-1.95897 1.87594,-1.98187 1.80253,-2.00363 1.72845,-2.02422 1.65377,-2.04365 1.57852,-2.06189 1.50275,-2.07896 1.42651,-2.09485 1.34984,-2.10955 1.27281,-2.12306 1.19543,-2.13538 1.11778,-2.14651 1.03989,-2.15644 0.96182,-2.16518 0.88359,-2.17272 0.80528,-2.17908 0.72691,-2.18424 0.64854,-2.18822 0.57021,-2.19102 0.49198,-2.19263 0.41386,-2.19307 0.33594,-2.19235 0.25823,-2.19045 0.18079,-2.18741 0.10365,-2.18322 0.0269,-2.17789 -0.0495,-2.17142 -0.12544,-2.16383 -0.20089,-2.15514 -0.27584,-2.14534 -0.35021,-2.13444 -0.42398,-2.12249 -0.4971,-2.10944 -0.56955,-2.095369 -0.64128,-2.08023 -0.71223,-2.06409 -0.78241,-2.04692 -0.85174,-2.02876 -0.92021,-2.00963 -0.98777,-1.98952 -1.0544,-1.96847 -1.12005,-1.94648 -1.1847,-1.92359 -1.2483,-1.8998 -1.31086,-1.875133 -1.37229,-1.849602 -1.43261,-1.823236 -1.49177,-1.796048 -1.54974,-1.768061 -1.6065,-1.739295 -1.66203,-1.709767 -1.71627,-1.679504 -1.76925,-1.648521 -1.82089,-1.616844 -1.87122,-1.584493 -1.92018,-1.551491 -1.96775,-1.517858 -2.01394,-1.48362 -2.05871,-1.448798 -2.10204,-1.413415 -2.14392,-1.377494 -2.18432,-1.34106 -2.22324,-1.304136 -2.26068,-1.266744 -2.29658,-1.228909 -2.33097,-1.190657 -2.36383,-1.15201 -2.39513,-1.112992 -2.42487,-1.073629 -2.45307,-1.033943 -2.47967,-0.993962 -2.50471,-0.953706 -2.52816,-0.913204 -2.55002,-0.872477 -2.57028,-0.831552 -2.58895,-0.790452 -2.60603,-0.749201 -2.6215,-0.707825 -2.63538,-0.666347 -2.64766,-0.624793 -2.65834,-0.583184 -2.66743,-0.541548 -2.67494,-0.499906 -2.68084,-0.458283 -2.68519,-0.416702 -2.68796,-0.375187 -2.68915,-0.333762 -2.6888,-0.292448 -2.6869,-0.251271 -2.68345,-0.210251 -2.67849,-0.169411 -2.672,-0.128775 -2.66401,-0.08836 -2.65454,-0.0482 -2.64358,-0.0083 -2.63117,0.03131 -2.61732,0.0706 -2.60202,0.109567 -2.58532,0.148182 -2.56723,0.186426 -2.54775,0.224277 -2.52693,0.26172 -2.50477,0.298732 -2.48128,0.335296 -2.45651,0.371395 -2.43045,0.40701 -2.40316,0.442122 -2.37463,0.476716 -2.3449,0.510775 -2.31399,0.544282 -2.28191,0.577222 -2.24872,0.609577 -2.21442,0.641336 -2.17904,0.672482 -2.1426,0.703001 -2.10515,0.732878 -2.0667,0.762104 -2.02728,0.790661 -1.98691,0.818541 -1.94564,0.845728 -1.90349,0.872215 -1.86048,0.897988 -1.81666,0.923037 -1.77203,0.947352 -1.72664,0.970926 -1.68053,0.993746 -1.63371,1.015807 -1.58623,1.037098 -1.5381,1.057613 -1.48938,1.077346 -1.44007,1.096289 -1.39022,1.114436 -1.33986,1.131782 -1.28903,1.148321 -1.23775,1.16405 -1.18605,1.178964 -1.13397,1.19306 -1.08154,1.206333 -1.0288,1.218783 -0.97576,1.230407 -0.92249,1.241203 -0.86898,1.25117 -0.81529,1.260307 -0.76145,1.268616 -0.70747,1.276095 -0.65342,1.282746 -0.59929,1.28857 -0.54515,1.293568 -0.491,1.297743 -0.43689,1.301098 -0.38284,1.303637 -0.32889,1.305361 -0.27507,1.30628 -0.2214,1.30638 -0.16793,1.3057 -0.11467,1.30421 -0.0616,1.30194 -0.009,1.29889 0.0435,1.29505 0.0956,1.29045 0.14735,1.2851 0.19871,1.27897 0.24964,1.27212 0.30012,1.26452 0.35015,1.2562 0.39967,1.24716 0.44867,1.2374 0.49713,1.22696 0.54501,1.21582 0.59229,1.20401 0.63896,1.19153 0.68499,1.178389 0.73034,1.16462 0.77502,1.15021 0.81897,1.13518 0.8622,1.11955 0.90469,1.10333 0.94638,1.08652 0.98731,1.06914 1.02741,1.05123 1.06668,1.03276 1.10512,1.01377 1.14268,0.99427 1.17938,0.97428 1.21517,0.9538 1.25004,0.93286 1.28401,0.91146 1.31702,0.88964 1.34909,0.86738 1.38018,0.84473 1.41031,0.82168 1.43943,0.79827 1.46756,0.77449 1.49468,0.75037 1.52079,0.72593 1.54585,0.70118 1.56988,0.67613 1.59287,0.65082 1.6148,0.62523 1.63568,0.59941 1.65549,0.57337 1.67423,0.5471 1.6919,0.52065 1.7085,0.49402 1.724,0.46723 1.73843,0.44029 1.75178,0.41324 1.76403,0.38606 1.7752,0.3588 1.78528,0.33146 1.79429,0.30405 1.80219,0.27661 1.80903,0.24913 1.81478,0.22165 1.81946,0.19415 1.82305,0.1667 1.82559,0.13927 1.82707,0.11189 1.82747,0.0846 1.82683,0.0574 1.82515,0.0302 1.82243,0.003 1.81867,-0.0237 1.8139,-0.0504 1.80811,-0.077 1.80133,-0.1034 1.79353,-0.12963 1.78478,-0.15566 1.77503,-0.18145 1.76434,-0.20704 1.75269,-0.23237 1.7401,-0.25746 1.7266,-0.28226 1.71219,-0.30679 1.69687,-0.33103 1.68068,-0.35495 1.66362,-0.37857 1.64571,-0.40184 1.62696,-0.42478 1.60739,-0.44736 1.58702,-0.46958 1.56586,-0.49143 1.54392,-0.51288 1.52124,-0.53394 1.49782,-0.5546 1.47368,-0.57483 1.44884,-0.59465 1.42332,-0.61404 1.39714,-0.63297 1.37031,-0.65146 1.34287,-0.66949 1.31481,-0.68706 1.28617,-0.70414 1.25697,-0.72075 1.22722,-0.73687 1.19696,-0.75249 1.16618,-0.76762 1.13492,-0.78224 1.10321,-0.79634 1.07104,-0.80993 1.03847,-0.823 1.0055,-0.83555 0.97214,-0.84755 0.93844,-0.85903 0.90439,-0.86996 0.87005,-0.88037 0.8354,-0.89022 0.80049,-0.89952 0.76533,-0.90829 0.72995,-0.91649 0.69436,-0.92415 0.65859,-0.93125 0.62267,-0.93781 0.5866,-0.94379 0.55041,-0.94924 0.51414,-0.95413 0.47778,-0.95846 0.44138,-0.962229 0.40494,-0.96547 0.3685,-0.96814 0.33206,-0.97026 0.29565,-0.97185 0.25931,-0.97288 0.22302,-0.97337 0.18684,-0.97332 0.15077,-0.97274 0.11484,-0.97163 0.079,-0.96998 0.0434,-0.96781 0.008,-0.96512 -0.0272,-0.96191 -0.0622,-0.9582 -0.0969,-0.95397 -0.13134,-0.94925 -0.16551,-0.94403 -0.19938,-0.93833 -0.23293,-0.93213 -0.26614,-0.92547 -0.29898,-0.91832 -0.33147,-0.91073 -0.36355,-0.90268 -0.39524,-0.894169 -0.4265,-0.885225 -0.45733,-0.875847 -0.48771,-0.866042 -0.51762,-0.855822 -0.54705,-0.845192 -0.57599,-0.834162 -0.60442,-0.822739 -0.63233,-0.810934 -0.6597,-0.798756 -0.68652,-0.786212 -0.7128,-0.773312 -0.7385,-0.760068 -0.76362,-0.746487 -0.78815,-0.732579 -0.81207,-0.718355 -0.83538,-0.703824 -0.85807,-0.688997 -0.88013,-0.673883 -0.90155,-0.658493 -0.92232,-0.642838 -0.94244,-0.626929 -0.96188,-0.610773 -0.98066,-0.594386 -0.99876,-0.577775 -1.01619,-0.560951 -1.0329,-0.543927 -1.04894,-0.526711 -1.06428,-0.509318 -1.0789,-0.491755 -1.09282,-0.474034 -1.10603,-0.456168 -1.11852,-0.438166 -1.13029,-0.42004 -1.14135,-0.401801 -1.15168,-0.38346 -1.16129,-0.365027 -1.17017,-0.346515 -1.17833,-0.327934 -1.18575,-0.309295 -1.19247,-0.290608 -1.19844,-0.271886 -1.20371,-0.253139 -1.20823,-0.234377 -1.21206,-0.215611 -1.21514,-0.196853 -1.21753,-0.178113 -1.2192,-0.159401 -1.22016,-0.140727 -1.22041,-0.122102 -1.21996,-0.103538 -1.21882,-0.08504 -1.21698,-0.06663 -1.21446,-0.0483 -1.21126,-0.03007 -1.20738,-0.01196 -1.20284,0.006 -1.19764,0.02391 -1.19177,0.04164 -1.18526,0.05922 -1.17812,0.07665 -1.17035,0.09391 -1.16194,0.111003 -1.15293,0.12791 -1.14331,0.144625 -1.1331,0.16114 -1.12229,0.177449 -1.11092,0.19354 -1.09898,0.20941 -1.08648,0.225048 -1.07343,0.240447 -1.05985,0.255601 -1.04575,0.270502 -1.03114,0.285143 -1.01602,0.299517 -1.00042,0.313618 -0.98434,0.327441 -0.96779,0.340977 -0.9508,0.354222 -0.93336,0.36717 -0.91549,0.379816 -0.89722,0.392153 -0.87855,0.404178 -0.85947,0.415884 -0.84004,0.427268 -0.82023,0.438325 -0.80009,0.449051 -0.7796,0.459441 -0.7588,0.469493 -0.7377,0.479201 -0.71629,0.488563 -0.69462,0.497577 -0.67268,0.506237 -0.65048,0.514544 -0.62806,0.522493 -0.60542,0.530082 -0.58256,0.537309 -0.55952,0.544173 -0.53629,0.550672 -0.51291,0.556804 -0.48938,0.562569 -0.46571,0.567965 -0.44191,0.572991 -0.41803,0.577648 -0.39404,0.581934 -0.36998,0.58585 -0.34585,0.589395 -0.32168,0.592572 -0.29747,0.595378 -0.27325,0.597817 -0.24901,0.599886 -0.22478,0.601591 -0.20058,0.602929 -0.17642,0.603904 -0.15229,0.604518 -0.12824,0.604771 -0.10425,0.604668 -0.0804,0.604208 -0.0566,0.603395 -0.0329,0.602234 -0.009,0.600724 0.014,0.59887 0.0373,0.596672 0.0604,0.59414 0.0833,0.59128 0.106,0.58809 0.12852,0.58456 0.15083,0.58071 0.1729,0.57656 0.19473,0.57208 0.21633,0.5673 0.23767,0.56221 0.25873,0.55683 0.27951,0.55114 0.30001,0.54518 0.32021,0.53892 0.3401,0.53239 0.35967,0.52559 0.3789,0.51851 0.39781,0.51118 0.41637,0.5036 0.43458,0.49575 0.45242,0.48768 0.46989,0.47936 0.48699,0.47081 0.50369,0.46203 0.52001,0.45304 0.53593,0.44385 0.55144,0.43443 0.56654,0.42482 0.58122,0.41503 0.59547,0.40505 0.6093,0.39489 0.62269,0.38456 0.63565,0.37407 0.64814,0.36342 0.66021,0.35262 0.6718,0.34167 0.68296,0.3306 0.69364,0.3194 0.70386,0.30808 0.71361,0.29664 0.7229,0.28509 0.73172,0.27345 0.74005,0.26172 0.74792,0.24991 0.7553,0.23801 0.76221,0.22605 0.76864,0.21402 0.77459,0.20195 0.78005,0.18982 0.78504,0.17766 0.78955,0.16546 0.79357,0.15323 0.79711,0.141 0.80019,0.12874 0.80277,0.11648 0.80488,0.10423 0.80653,0.092 0.80769,0.0798 0.80839,0.0676 0.80862,0.0554 0.80838,0.0433 0.80769,0.0312 0.80653,0.0191 0.80493,0.007 0.80286,-0.005 0.80036,-0.0166 0.79741,-0.0284 0.79403,-0.0401 0.7902,-0.0516 0.78595,-0.0632 0.78128,-0.0745 0.77618,-0.0858 0.77068,-0.097 0.76477,-0.10806 0.75846,-0.11898 0.75175,-0.12979 0.74466,-0.14044 0.73718,-0.15097 0.72932,-0.16134 0.7211,-0.17156 0.71252,-0.18163 0.70358,-0.19154 0.6943,-0.20127 0.68467,-0.21085 0.67472,-0.22023 0.66443,-0.22945 0.65384,-0.23848 0.64293,-0.24733 0.63173,-0.25597 0.62023,-0.26443 0.60845,-0.27269 0.5964,-0.28074 0.58408,-0.28859 0.57149,-0.29624 0.55868,-0.30365 0.5456,-0.31087 0.53231,-0.31787 0.51879,-0.32463 0.50505,-0.33119 0.49113,-0.33751 0.47699,-0.34361 0.46268,-0.34948 0.44819,-0.35511 0.43354,-0.36051 0.41872,-0.36567 0.40377,-0.37061 0.38867,-0.3753 0.37344,-0.37974 0.35811,-0.38396 0.34265,-0.38793 0.3271,-0.39165 0.31145,-0.39514 0.29574,-0.39838 0.27994,-0.40137 0.26409,-0.40413 0.24818,-0.40663 0.23223,-0.4089 0.21625,-0.41092 0.20025,-0.4127 0.18422,-0.41423 0.1682,-0.41552 0.15218,-0.41658 0.13617,-0.41738 0.12018,-0.41795 0.10423,-0.41828 0.0883,-0.41838 0.0725,-0.41823 0.0566,-0.41786 0.0409,-0.41725 0.0252,-0.4164 0.01,-0.41534 -0.006,-0.41404 -0.0212,-0.41252 -0.0365,-0.41078 -0.0517,-0.40881 -0.0667,-0.40663 -0.0816,-0.40423 -0.0964,-0.40162 -0.11101,-0.39881 -0.12548,-0.395769 -0.13978,-0.392548 -0.15391,-0.389116 -0.16787,-0.385488 -0.18164,-0.381666 -0.19523,-0.377653 -0.20861,-0.373453 -0.22179,-0.369068 -0.23476,-0.364504 -0.24753,-0.359763 -0.26005,-0.35485 -0.27237,-0.349768 -0.28444,-0.34452 -0.29627,-0.339113 -0.30787,-0.333549 -0.31921,-0.327831 -0.33031,-0.321966 -0.34113,-0.315957 -0.3517,-0.309808 -0.362,-0.303523 -0.37203,-0.297107 -0.38179,-0.290566 -0.39125,-0.283902 -0.40045,-0.27712 -0.40935,-0.270226 -0.41796,-0.263224 -0.42628,-0.256117 -0.4343,-0.248914 -0.44203,-0.241614 -0.44945,-0.234227 -0.45657,-0.226754 -0.46338,-0.219201 -0.46989,-0.211575 -0.47608,-0.203876 -0.48196,-0.196114 -0.48754,-0.188291 -0.49279,-0.180412 -0.49774,-0.172482 -0.50236,-0.164506 -0.50667,-0.15649 -0.51066,-0.148437 -0.51434,-0.140352 -0.51769,-0.13224 -0.52073,-0.124108 -0.52346,-0.115958 -0.52586,-0.107795 -0.52795,-0.09962 -0.52973,-0.09145 -0.53118,-0.08328 -0.53233,-0.07512 -0.53317,-0.06696 -0.53369,-0.05882 -0.53391,-0.05071 -0.53381,-0.04261 -0.53342,-0.03455 -0.53272,-0.02652 -0.53171,-0.01852 -0.53042,-0.01058 -0.52883,-0.0027 -0.52694,0.0052 -0.52476,0.01298 -0.52231,0.02072 -0.51955,0.0284 -0.51653,0.036 -0.51322,0.04354 -0.50965,0.05101 -0.5058,0.05839 -0.50169,0.06569 -0.49732,0.07291 -0.49268,0.08004 -0.48781,0.08707 -0.48267,0.09401 -0.4773,0.100844 -0.47168,0.107579 -0.46583,0.114207 -0.45975,0.120726 -0.45345,0.127132 -0.44692,0.133423 -0.44019,0.139595 -0.43323,0.145648 -0.42608,0.151575 -0.41872,0.157376 -0.41118,0.16305 -0.40345,0.168591 -0.39553,0.173999 -0.38743,0.17927 -0.37917,0.184406 -0.37074,0.189399 -0.36216,0.194251 -0.3534,0.198959 -0.34452,0.203522 -0.33549,0.207937 -0.32632,0.212203 -0.31703,0.216319 -0.30761,0.220283 -0.29807,0.224094 -0.28842,0.227751 -0.27867,0.231251 -0.26883,0.234596 -0.25888,0.237783 -0.24886,0.240813 -0.23874,0.243682 -0.22857,0.246393 -0.21832,0.248943 -0.20802,0.251334 -0.19765,0.253562 -0.18724,0.25563 -0.17679,0.257536 -0.1663,0.259282 -0.15579,0.260866 -0.14525,0.262288 -0.13469,0.26355 -0.12412,0.264651 -0.11355,0.265591 -0.10298,0.266372 -0.0924,0.266994 -0.0819,0.267457 -0.0713,0.267761 -0.0608,0.267909 -0.0503,0.267902 -0.0399,0.267738 -0.0295,0.26742 -0.0192,0.266951 -0.009,0.266328 0.001,0.265556 0.0115,0.264635 0.0216,0.263567 0.0316,0.262351 0.0416,0.26099 0.0514,0.25949 0.0612,0.25785 0.0709,0.25607 0.0804,0.25415 0.0899,0.2521 0.0992,0.24991 0.10845,0.24759 0.11757,0.24515 0.12655,0.24257 0.13542,0.23988 0.14414,0.23706 0.15272,0.23411 0.16118,0.23107 0.16947,0.22789 0.17763,0.22461 0.18562,0.22122 0.19347,0.21772 0.20116,0.21411 0.20867,0.21041 0.21602,0.20661 0.22321,0.20271 0.23022,0.19871 0.23705,0.19464 0.2437,0.19046 0.25018,0.18621 0.25647,0.18187 0.26258,0.17746 0.26849,0.17298 0.27421,0.16841 0.27975,0.16378 0.28508,0.15908 0.29022,0.15432 0.29516,0.14951 0.29991,0.14463 0.30444,0.1397 0.30878,0.13472 0.31292,0.12969 0.31684,0.12462 0.32057,0.11951 0.32407,0.11436 0.32739,0.10918 0.33049,0.10396 0.33337,0.0987 0.33606,0.0935 0.33853,0.0882 0.3408,0.0829 0.34284,0.0775 0.3447,0.0722 0.34632,0.0669 0.34776,0.0615 0.34897,0.0561 0.34999,0.0508 0.35079,0.0454 0.35139,0.0401 0.35178,0.0348 0.35198,0.0295 0.35196,0.0241 0.35175,0.0189 0.35134,0.0136 0.35072,0.008 0.34992,0.003 0.34891,-0.002 0.34771,-0.007 0.34632,-0.0123 0.34475,-0.0174 0.34298,-0.0225 0.34103,-0.0275 0.33889,-0.0324 0.33658,-0.0373 0.33409,-0.0422 0.33141,-0.0469 0.32858,-0.0517 0.32557,-0.0564 0.32238,-0.061 0.31905,-0.0656 0.31553,-0.07 0.31188,-0.0745 0.30806,-0.0788 0.30408,-0.0831 0.29996,-0.0873 0.2957,-0.0915 0.29129,-0.0955 0.28674,-0.0995 0.28206,-0.1034 0.27724,-0.10721 0.2723,-0.11095 0.26723,-0.11459 0.26205,-0.11815 0.25673,-0.12162 0.25132,-0.125 0.24578,-0.12829 0.24015,-0.13148 0.23441,-0.13458 0.22857,-0.13759 0.22265,-0.14049 0.21662,-0.1433 0.21052,-0.14602 0.20433,-0.14862 0.19806,-0.15114 0.19172,-0.15354 0.18531,-0.15586 0.17884,-0.15805 0.1723,-0.16016 0.1657,-0.16216 0.15905,-0.16405 0.15236,-0.16583 0.14561,-0.16752 0.13883,-0.16909 0.132,-0.17057 0.12516,-0.17193 0.11827,-0.17319 0.11137,-0.17434 0.10444,-0.17539 0.0975,-0.17633 0.0905,-0.17716 0.0836,-0.17789 0.0766,-0.17852 0.0696,-0.17903 0.0627,-0.17944 0.0557,-0.17976 0.0488,-0.17995 0.0418,-0.18006 0.035,-0.18006 0.0281,-0.17995 0.0212,-0.17975 0.0144,-0.17944 0.008,-0.17903 8.3e-4,-0.17852 -0.006,-0.17793 -0.0125,-0.17722 -0.0192,-0.17642 -0.0257,-0.17553 -0.0322,-0.17455 -0.0387,-0.17346 -0.0451,-0.172289 -0.0514,-0.17103 -0.0576,-0.169679 -0.0638,-0.168239 -0.0699,-0.166714 -0.0759,-0.165103 -0.0819,-0.163408 -0.0877,-0.161632 -0.0935,-0.159774 -0.0992,-0.157838 -0.10479,-0.155824 -0.11027,-0.153735 -0.11568,-0.15157 -0.12097,-0.149335 -0.12617,-0.147027 -0.13125,-0.144652 -0.13624,-0.142208 -0.14111,-0.1397 -0.14587,-0.137128 -0.15052,-0.134494 -0.15505,-0.131801 -0.15946,-0.12905 -0.16377,-0.126242 -0.16793,-0.123381 -0.17199,-0.120469 -0.17592,-0.117505 -0.17972,-0.114494 -0.1834,-0.111437 -0.18695,-0.108336 -0.19036,-0.105193 -0.19366,-0.102011 -0.19681,-0.09879 -0.19984,-0.09553 -0.20272,-0.09224 -0.20549,-0.08892 -0.20811,-0.08557 -0.21059,-0.08219 -0.21294,-0.07879 -0.21516,-0.07537 -0.21724,-0.07192 -0.21917,-0.06845 -0.22097,-0.06497 -0.22264,-0.06147 -0.22417,-0.05796 -0.22555,-0.05444 -0.2268,-0.05091 -0.22792,-0.04738 -0.22889,-0.04384 -0.22972,-0.0403 -0.23043,-0.03675 -0.231,-0.03321 -0.23142,-0.02968 -0.23172,-0.02614 -0.23187,-0.02262 -0.2319,-0.01911 -0.2318,-0.01561 -0.23155,-0.01212 -0.23119,-0.0086 -0.23068,-0.0052 -0.23005,-0.0018 -0.2293,0.0017 -0.22842,0.0051 -0.2274,0.0084 -0.22628,0.01176 -0.22502,0.01507 -0.22364,0.01835 -0.22215,0.0216 -0.22054,0.02482 -0.2188,0.028 -0.21697,0.03115 -0.21501,0.03426 -0.21294,0.03733 -0.21077,0.04035 -0.20848,0.04334 -0.2061,0.04628 -0.2036,0.04917 -0.20102,0.05202 -0.19833,0.05482 -0.19554,0.05757 -0.19266,0.06027 -0.18968,0.06292 -0.18663,0.06551 -0.18347,0.06805 -0.18024,0.07054 -0.17692,0.07297 -0.17352,0.07534 -0.17005,0.07765 -0.16649,0.0799 -0.16287,0.0821 -0.15917,0.08423 -0.15541,0.0863 -0.15158,0.08831 -0.14769,0.09025 -0.14374,0.09213 -0.13973,0.09394 -0.13567,0.09569 -0.13155,0.09737 -0.12738,0.09899 -0.12318,0.100535 -0.11892,0.102016 -0.11462,0.103427 -0.11029,0.104772 -0.10592,0.106047 -0.10151,0.107253 -0.0971,0.10839 -0.0926,0.109457 -0.0881,0.110454 -0.0836,0.111381 -0.0791,0.112239 -0.0745,0.113027 -0.07,0.113744 -0.0654,0.114392 -0.0608,0.114969 -0.0562,0.115477 -0.0517,0.115915 -0.0471,0.116284 -0.0425,0.116583 -0.0379,0.116814 -0.0333,0.116975 -0.0288,0.117069 -0.0242,0.117095 -0.0197,0.117053 -0.0151,0.116943 -0.0106,0.116768 -0.006,0.116527 -0.002,0.116219 0.003,0.115847 0.007,0.11541 0.0115,0.114911 0.0158,0.114343 0.0201,0.113732 0.0244,0.11303 0.0286,0.11229 0.0328,0.11148 0.0369,0.11062 0.041,0.10969 0.045,0.10871 0.049,0.10767 0.0529,0.10657 0.0568,0.10543 0.0606,0.10423 0.0644,0.10297 0.0681,0.10167 0.0717,0.10031 0.0753,0.0989 0.0788,0.0975 0.0822,0.096 0.0856,0.0944 0.0889,0.0928 0.0921,0.0912 0.0953,0.0895 0.0984,0.0878 0.10135,0.086 0.10429,0.0842 0.10714,0.0824 0.1099,0.0805 0.1126,0.0786 0.11521,0.0767 0.11773,0.0747 0.12018,0.0727 0.12253,0.0707 0.12481,0.0687 0.127,0.0666 0.1291,0.0645 0.13112,0.0623 0.13304,0.0602 0.13488,0.058 0.13663,0.0558 0.13829,0.0536 0.13987,0.0514 0.14134,0.0491 0.14274,0.0469 0.14403,0.0446 0.14525,0.0423 0.14637,0.04 0.14739,0.0377 0.14833,0.0354 0.14918,0.0331 0.14994,0.0308 0.1506,0.0284 0.15117,0.0261 0.15166,0.0238 0.15206,0.0215 0.15236,0.0191 0.15258,0.0168 0.15271,0.0145 0.15274,0.0122 0.1527,0.01 0.15256,0.008 0.15234,0.005 0.15204,0.003 0.15164,7.7e-4 0.15116,-10e-4 0.1506,-0.004 0.14997,-0.006 0.14923,-0.008 0.14843,-0.0103 0.14755,-0.0125 0.14658,-0.0146 0.14554,-0.0167 0.14442,-0.0188 0.14322,-0.0209 0.14196,-0.0229 0.14061,-0.025 0.1392,-0.0269 0.13772,-0.0289 0.13616,-0.0309 0.13453,-0.0328 0.13285,-0.0346 0.1311,-0.0365 0.12927,-0.0383 0.12739,-0.0401 0.12545,-0.0418 0.12345,-0.0435 0.12139,-0.0452 0.11927,-0.0469 0.1171,-0.0485 0.11488,-0.05 0.1126,-0.0516 0.11027,-0.0531 0.1079,-0.0545 0.10548,-0.0559 0.10301,-0.0573 0.10049,-0.0586 0.098,-0.0599 0.0953,-0.0611 0.0927,-0.0623 0.09,-0.0635 0.0874,-0.0646 0.0846,-0.0657 0.0819,-0.0667 0.0791,-0.0677 0.0762,-0.0686 0.0734,-0.0695 0.0705,-0.0704 0.0676,-0.0712 0.0647,-0.0719 0.0618,-0.0726 0.0588,-0.0733 0.0559,-0.0739 0.0529,-0.0745 0.0499,-0.075 0.0469,-0.0755 0.0439,-0.0759 0.0408,-0.0763 0.0378,-0.0767 0.0348,-0.077 0.0318,-0.0772 0.0288,-0.0774 0.0258,-0.0776 0.0227,-0.0777 0.0197,-0.0777 0.0167,-0.0778 0.0137,-0.0778 0.0107,-0.0777 0.008,-0.0776 0.005,-0.0774 0.002,-0.0772 -10e-4,-0.077 -0.004,-0.0767 -0.007,-0.0764 -0.01,-0.076 -0.0125,-0.0756 -0.0153,-0.0752 -0.0181,-0.0747 -0.0209,-0.07418 -0.0236,-0.07361 -0.0263,-0.073 -0.0289,-0.07236 -0.0316,-0.07169 -0.0342,-0.07097 -0.0367,-0.07022 -0.0393,-0.06944 -0.0417,-0.06861 -0.0442,-0.06776 -0.0466,-0.06687 -0.049,-0.06595 -0.0513,-0.065 -0.0536,-0.06402 -0.0558,-0.06301 -0.058,-0.06196 -0.0601,-0.06089 -0.0622,-0.05979 -0.0643,-0.05866 -0.0662,-0.05751 -0.0682,-0.05633 -0.0701,-0.05513 -0.0719,-0.0539 -0.0737,-0.05265 -0.0754,-0.05138 -0.0771,-0.05008 -0.0787,-0.04877 -0.0803,-0.04744 -0.0818,-0.04608 -0.0833,-0.04471 -0.0847,-0.04333 -0.086,-0.04192 -0.0873,-0.04051 -0.0885,-0.03907 -0.0897,-0.03763 -0.0908,-0.03617 -0.0918,-0.0347 -0.0928,-0.03322 -0.0938,-0.03173 -0.0946,-0.03024 -0.0955,-0.02873 -0.0962,-0.02722 -0.0969,-0.0257 -0.0975,-0.02417 -0.0981,-0.02265 -0.0986,-0.02112 -0.0991,-0.01958 -0.0995,-0.01805 -0.0998,-0.01651 -0.10007,-0.01498 -0.1003,-0.01345 -0.10045,-0.01191 -0.10055,-0.01038 -0.10059,-0.0089 -0.10058,-0.0073 -0.1005,-0.0058 -0.10037,-0.0043 -0.10018,-0.0028 -0.0999,-0.0013 -0.0996,1.63e-4 -0.0993,0.0016 -0.0989,0.0031 -0.0984,0.0046 -0.0979,0.006 -0.0973,0.0074 -0.0967,0.0088 -0.096,0.01024 -0.0953,0.01163 -0.0945,0.013 -0.0937,0.01436 -0.0928,0.0157 -0.0919,0.01702 -0.091,0.01832 -0.0899,0.0196 -0.0889,0.02087 -0.0878,0.02212 -0.0866,0.02334 -0.0854,0.02454 -0.0842,0.02572 -0.0829,0.02688 -0.0817,0.02802 -0.0803,0.02913 -0.0789,0.03022 -0.0775,0.03129 -0.076,0.03233 -0.0745,0.03334 -0.073,0.03433 -0.0715,0.0353 -0.0699,0.03623 -0.0683,0.03714 -0.0666,0.03803 -0.0649,0.03888 -0.0632,0.03971 -0.0615,0.04051 -0.0598,0.04128 -0.058,0.04203 -0.0562,0.04274 -0.0544,0.04343 -0.0526,0.04408 -0.0507,0.04471 -0.0488,0.04531 -0.0469,0.04588 -0.045,0.04641 -0.0431,0.04692 -0.0412,0.0474 -0.0392,0.04785 -0.0373,0.04826 -0.0353,0.04865 -0.0334,0.04901 -0.0314,0.04933 -0.0294,0.04963 -0.0274,0.04989 -0.0254,0.05013 -0.0235,0.05033 -0.0215,0.05051 -0.0195,0.05065 -0.0175,0.05077 -0.0155,0.05085 -0.0135,0.05091 -0.0115,0.05093 -0.01,0.05093 -0.008,0.0509 -0.006,0.05083 -0.004,0.05074 -0.002,0.05062 1.7e-4,0.05048 0.002,0.0503 0.004,0.0501 0.006,0.04987 0.008,0.0496 0.01,0.0493 0.0115,0.049 0.0133,0.0487 0.0151,0.0483 0.0168,0.0479 0.0186,0.0475 0.0204,0.0471 0.0221,0.0466 0.0238,0.0461 0.0254,0.0456 0.0271,0.0451 0.0287,0.0445 0.0303,0.044 0.0318,0.0433 0.0334,0.0427 0.0349,0.0421 0.0364,0.0414 0.0378,0.0407 0.0392,0.04 0.0406,0.0393 0.042,0.0386 0.0433,0.0378 0.0446,0.0371 0.0458,0.0363 0.047,0.0355 0.0482,0.0347 0.0494,0.0338 0.0505,0.033 0.0516,0.0321 0.0526,0.0312 0.0536,0.0304 0.0546,0.0295 0.0555,0.0285 0.0564,0.0276 0.0573,0.0267 0.0581,0.0258 0.0589,0.0248 0.0596,0.0239 0.0603,0.0229 0.061,0.0219 0.0616,0.0209 0.0622,0.02 0.0627,0.019 0.0632,0.018 0.0637,0.017 0.0641,0.016 0.0645,0.015 0.0649,0.014 0.0652,0.013 0.0654,0.012 0.0657,0.0109 0.0659,0.01 0.066,0.009 0.0661,0.008 0.0662,0.007 0.0662,0.006 0.0662,0.005 0.0662,0.004 0.0661,0.003 0.066,0.002 0.0659,9.4e-4 0.0657,-3e-5 0.0654,-0.001 0.0652,-0.002 0.0649,-0.003 0.0646,-0.004 0.0642,-0.005 0.0638,-0.006 0.0634,-0.007 0.0629,-0.008 0.0624,-0.008 0.0619,-0.009 0.0613,-0.0103 0.0607,-0.0112 0.0601,-0.012 0.0594,-0.0129 0.0587,-0.0137 0.058,-0.0145 0.0573,-0.0153 0.0565,-0.0161 0.0557,-0.0169 0.0548,-0.0177 0.054,-0.0184 0.0531,-0.0191 0.0522,-0.0199 0.0513,-0.0206 0.0503,-0.0213 0.0494,-0.0219 0.0484,-0.0226 0.0473,-0.0232 0.0463,-0.0238 0.0452,-0.0245 0.0442,-0.025 0.0431,-0.0256 0.0419,-0.0262 0.0408,-0.0267 0.0397,-0.0272 0.0385,-0.0277 0.0373,-0.0282 0.0361,-0.0286 0.0349,-0.0291 0.0337,-0.0295 0.0325,-0.0299 0.0312,-0.0303 0.03,-0.0306 0.0287,-0.031 0.0275,-0.0313 0.0262,-0.0316 0.0249,-0.0319 0.0236,-0.0321 0.0223,-0.0323 0.021,-0.0326 0.0197,-0.0328 0.0184,-0.0329 0.0171,-0.0331 0.0158,-0.0332 0.0145,-0.0334 0.0132,-0.0335 0.0119,-0.0335 0.0105,-0.0336 0.009,-0.0336 0.008,-0.0337 0.007,-0.0337 0.005,-0.0337 0.004,-0.0336 0.003,-0.0335 10e-4,-0.0335 2.2e-4,-0.0334 -0.001,-0.0333 -0.002,-0.0331 -0.004,-0.033 -0.005,-0.0328 -0.006,-0.0327 -0.007,-0.0324 -0.008,-0.0322 -0.01,-0.032 -0.0108,-0.03174 -0.012,-0.03147 -0.0131,-0.03119 -0.0142,-0.03088 -0.0154,-0.03057 -0.0164,-0.03024 -0.0175,-0.02989 -0.0186,-0.02953 -0.0197,-0.02915 -0.0207,-0.02876 -0.0217,-0.02835 -0.0227,-0.02793 -0.0237,-0.0275 -0.0247,-0.02706 -0.0256,-0.0266 -0.0265,-0.02613 -0.0274,-0.02564 -0.0283,-0.02515 -0.0291,-0.02465 -0.03,-0.02413 -0.0308,-0.0236 -0.0315,-0.02307 -0.0323,-0.02252 -0.0331,-0.02196 -0.0338,-0.0214 -0.0345,-0.02083 -0.0351,-0.02024 -0.0358,-0.01966 -0.0364,-0.01906 -0.037,-0.01845 -0.0376,-0.01784 -0.0381,-0.01722 -0.0386,-0.0166 -0.0391,-0.01597 -0.0396,-0.01534 -0.04,-0.0147 -0.0405,-0.01405 -0.0408,-0.01341 -0.0412,-0.01276 -0.0416,-0.0121 -0.0419,-0.01145 -0.0422,-0.01079 -0.0424,-0.01013 -0.0427,-0.0095 -0.0429,-0.0088 -0.043,-0.0081 -0.0432,-0.0075 -0.0433,-0.0068 -0.0434,-0.0061 -0.0435,-0.0055 -0.0436,-0.0048 -0.0436,-0.0041 -0.0436,-0.0035 -0.0436,-0.0028 -0.0436,-0.0022 -0.0435,-0.0015 -0.0434,-8.73e-4 -0.0433,-2.27e-4 -0.0431,4.14e-4 -0.043,0.0011 -0.0428,0.0017 -0.0426,0.0023 -0.0423,0.0029 -0.0421,0.0036 -0.0418,0.0042 -0.0415,0.0048 -0.0412,0.0054 -0.0408,0.006 -0.0405,0.0065 -0.0401,0.0071 -0.0397,0.0077 -0.0392,0.0082 -0.0388,0.0088 -0.0383,0.0093 -0.0378,0.0099 -0.0373,0.01041 -0.0368,0.01092 -0.0363,0.01143 -0.0357,0.01193 -0.0351,0.01242 -0.0345,0.01289 -0.0339,0.01336 -0.0333,0.01382 -0.0327,0.01426 -0.032,0.0147 -0.0314,0.01512 -0.0307,0.01553 -0.03,0.01593 -0.0293,0.01632 -0.0285,0.0167 -0.0278,0.01707 -0.0271,0.01742 -0.0263,0.01776 -0.0256,0.01809 -0.0248,0.01841 -0.024,0.01871 -0.0232,0.019 -0.0224,0.01928 -0.0216,0.01954 -0.0208,0.0198 -0.02,0.02004 -0.0191,0.02026 -0.0183,0.02048 -0.0175,0.02068 -0.0166,0.02087 -0.0158,0.02104 -0.0149,0.0212 -0.0141,0.02135 -0.0132,0.02148 -0.0124,0.02161 -0.0115,0.02172 -0.0106,0.02181 -0.01,0.02189 -0.009,0.02196 -0.008,0.02202 -0.007,0.02206 -0.006,0.02209 -0.005,0.02211 -0.005,0.02211 -0.004,0.02211 -0.003,0.02209 -0.002,0.02205 -0.001,0.02201 -3.6e-4,0.02195 4.6e-4,0.02188 10e-4,0.02178 0.002,0.0217 0.003,0.0216 0.004,0.0215 0.005,0.0213 0.005,0.0212 0.006,0.0211 0.007,0.0209 0.008,0.0207 0.008,0.0205 0.009,0.0203 0.01,0.0201 0.0106,0.0199 0.0114,0.0197 0.0121,0.0195 0.0128,0.0192 0.0135,0.019 0.0141,0.0187 0.0148,0.0184 0.0154,0.0181 0.0161,0.0178 0.0167,0.0175 0.0173,0.0172 0.0179,0.0169 0.0185,0.0166 0.019,0.0163 0.0196,0.0159 0.0201,0.0156 0.0206,0.0152 0.0211,0.0149 0.0216,0.0145 0.0221,0.0142 0.0226,0.0138 0.023,0.0134 0.0235,0.013 0.0239,0.0126 0.0243,0.0122 0.0246,0.0118 0.025,0.0114 0.0254,0.011 0.0257,0.0106 0.026,0.0102 0.0263,0.01 0.0266,0.009"
     style="display:inline;fill:none;stroke:#0000ff;stroke-width:4px"
     id="path17"
     inkscape:connector-curvature="0" />
  <path
     class="graticule"
     d="m 251.46778,21.786149 1.36886,0.09609 1.41293,0.558743 1.45442,1.020385 1.49328,1.480175 1.52943,1.937278 1.56279,2.390863 3.21429,6.124302 3.31303,7.876004 3.38771,9.570534 3.43781,11.195588 3.46295,12.73937 M 28.979669,340.51334 l -2.10669,-9.42114 -1.50838,-9.55118 -0.90647,-9.65841 -0.3024,-9.74252 0.30469,-9.84048 0.91333,-9.87806 1.51977,-9.89185 2.12256,-9.8818 2.72023,-9.84795 3.31134,-9.79036 3.89448,-9.70921 4.46824,-9.60465 5.03122,-9.47696 5.5821,-9.32644 6.11952,-9.15344 6.6422,-8.9584 7.14888,-8.74178 7.63834,-8.50409 8.10939,-8.24592 8.56092,-7.96789 8.991801,-7.67065 9.40104,-7.35495 9.78763,-7.02151 10.15063,-6.67117 10.48918,-6.30475 10.80246,-5.92315 11.08973,-5.52727 11.35026,-5.11808 11.58347,-4.696559 11.78876,-4.26373 11.96565,-3.82062 12.11372,-3.36831 12.2326,-2.90788 12.32201,-2.44046 12.38175,-1.96714 12.41165,-1.4891 m 25.6375,454.838709 1.7145,-0.56977 1.63008,-1.35475 1.54064,-2.13554 1.44644,-2.90974 1.34777,-3.67496 1.24494,-4.42884 1.13828,-5.16904 1.0281,-5.89331 1.71332,-13.88444 1.23912,-16.53526 0.74964,-18.98212 0.25092,-21.19481 -0.1959,-20.35774 -0.58578,-21.68505 -0.97005,-22.80353 -1.34495,-23.70239 -1.70691,-24.373 -2.05244,-24.80888 -2.37819,-25.00582 -2.68105,-24.96196 -2.95807,-24.6777 -3.20662,-24.15577 -3.42428,-23.40122 -3.60897,-22.42129 -3.7589,-21.22544 -3.87262,-19.82517 -3.94906,-18.233979 -3.98746,-16.46719 M 525.23089,212.887 l -2.34126,-8.15389 -2.79511,-8.021 -3.2438,-7.87329 -3.68649,-7.71106 -4.12238,-7.53459 -4.55066,-7.34419 -4.97054,-7.14024 -5.38123,-6.92311 -5.78199,-6.69318 -6.17208,-6.45091 -6.55076,-6.19672 -6.91735,-5.93108 -7.27117,-5.6545 -7.61156,-5.36747 -7.93789,-5.07053 -8.24957,-4.76424 -8.54602,-4.44914 -8.82668,-4.125819 -9.09105,-3.79489 -9.33863,-3.45696 -9.56896,-3.11263 -9.78163,-2.76256 -9.97623,-2.40739 -10.15241,-2.04777 -10.30985,-1.68438 -10.44825,-1.31787 -10.56735,-0.948928 -10.66694,-0.578234 -10.74684,-0.206474 -10.80689,0.165669 -10.84698,0.537506 -10.86706,0.908351 M 20.905279,276.70017 l 0.1045,4.57546 0.56289,6.98124 1.04932,6.95924 1.53374,6.92399 2.01524,6.87556 2.49291,6.81405 2.96583,6.73957 3.43311,6.65225 3.89385,6.55227 4.34719,6.43982 4.79223,6.31512 5.22817,6.17838 5.65414,6.02989 6.06937,5.86993 6.47303,5.69878 6.86436,5.51679 7.24265,5.3243 7.60713,5.12167 7.957141,4.9093 8.292,4.68757 8.61108,4.45693 8.91376,4.2178 9.19948,3.97065 9.46768,3.71592 9.71787,3.45414 9.94955,3.18577 10.1623,2.91135 10.3557,2.63137 10.52938,2.34639 10.68303,2.05695 10.81634,1.76358 10.92905,1.46687 11.02098,1.16735 11.0919,0.86563 11.14173,0.56224 11.17035,0.25779 11.17769,-0.0472 11.16376,-0.352 11.12859,-0.65619 11.07223,-0.95912 10.99478,-1.26023 10.89642,-1.55893 10.7773,-1.85468 10.63768,-2.14689 10.47781,-2.43501 10.29799,-2.7185 10.09856,-2.99681 9.87992,-3.26942 9.64246,-3.53581 9.38666,-3.79547 9.11298,-4.04789 8.82196,-4.29262 8.51414,-4.52917 8.19012,-4.7571 7.8505,-4.97598 7.49595,-5.18539 7.12712,-5.38491 6.74473,-5.5742 6.34949,-5.75288 5.94218,-5.92059 5.52355,-6.07705 5.0944,-6.22193 4.65556,-6.35497 4.20785,-6.47591 3.75214,-6.58453 3.28929,-6.68061 2.82016,-6.76397 2.34568,-6.83446 1.86673,-6.89194 1.38423,-6.9363 0.89908,-6.96746 0.41223,-6.98535 0.0291,-2.41444 M 222.77619,26.326869 l 2.14668,-0.322569 2.20371,-0.04861 2.25832,0.225401 2.31046,0.499165 2.36009,0.772384 2.40714,1.044759 2.45155,1.315993 2.49328,1.585789 5.10084,3.973738 5.23454,5.02833 5.34537,6.060948 5.43285,7.06708 m -69.74672,-18.752079 3.31461,-0.984572 3.41665,-0.678643 3.51438,-0.371859 3.60769,-0.06461 3.69645,0.242727 3.78056,0.549755 3.85991,0.85609 3.93439,1.161347 4.00392,1.465142 4.0684,1.767091 4.12777,2.066816 4.18193,2.363935 4.23083,2.65808 4.2744,2.948875 4.31258,3.235957 4.34534,3.518963 m -94.53203,-7.148672 4.49651,-2.067314 4.66812,-1.713336 4.83256,-1.356727 4.98956,-0.998032 5.1389,-0.637804 5.28034,-0.276597 5.41369,0.08504 5.5387,0.446537 5.6552,0.807353 5.76303,1.166929 5.86199,1.52471 5.95195,1.880152 6.03277,2.232702 6.10431,2.581824 6.16648,2.926979 6.21918,3.267637 m -122.00859,10.832488 5.59631,-3.732703 5.88205,-3.314697 6.15617,-2.890135 6.41812,-2.459859 6.66737,-2.024718 6.90344,-1.585571 7.12585,-1.143291 7.33418,-0.698749 7.52799,-0.252824 7.70693,0.1936 7.87061,0.639641 8.01874,1.084417 8.151,1.527049 8.26715,1.966661 8.36694,2.402383 8.45019,2.833355 m -151.574661,38.081131 6.37188,-6.17244 6.849411,-5.68334 7.30865,-5.17908 7.74838,-4.66097 8.16741,-4.130428 8.56464,-3.588859 8.93901,-3.037705 9.2895,-2.47844 9.61519,-1.912558 9.91521,-1.341569 10.18876,-0.766998 10.4351,-0.190379 10.65358,0.386747 10.84361,0.962842 11.00469,1.536366 11.1364,2.105787 m -180.581321,77.824743 3.07334,-4.8127 3.27483,-4.68364 3.47325,-4.55023 3.66844,-4.41256 3.86019,-4.27076 4.04834,-4.12498 4.23271,-3.97535 4.41312,-3.822 4.58941,-3.66508 4.76142,-3.50473 4.928971,-3.341119 5.09193,-3.17439 5.25012,-3.00468 5.40341,-2.83217 5.55166,-2.65702 5.69471,-2.47938 5.83246,-2.29943 5.96475,-2.11732 6.09146,-1.93325 6.21249,-1.747366 6.32772,-1.559848 6.43704,-1.370875 6.54033,-1.180621 6.63753,-0.989263 6.72852,-0.796983 6.81323,-0.603957 13.85505,-0.626762 14.11659,0.149757 14.32539,0.925718 M 32.179099,201.53631 l 2.25951,-6.78381 2.58126,-6.67516 2.89958,-6.55765 3.21408,-6.43146 3.52429,-6.29672 3.82985,-6.15365 4.13031,-6.00242 4.42532,-5.84322 4.71444,-5.67628 4.99732,-5.50181 5.27357,-5.32005 5.54283,-5.13123 5.80474,-4.93562 6.05895,-4.73345 6.30513,-4.52501 6.542961,-4.31057 6.77209,-4.09041 6.99227,-3.86484 7.20315,-3.634139 7.40451,-3.39861 7.59602,-3.15859 7.77749,-2.91437 7.94862,-2.66629 8.10923,-2.41467 8.25908,-2.15986 8.39798,-1.90218 8.52574,-1.64198 8.64221,-1.3796 8.74721,-1.115382 8.84061,-0.849702 8.9223,-0.582887 8.99215,-0.3153 m -212.434241,195.95767 0.38156,-7.77375 0.76915,-7.75262 1.15557,-7.71973 1.54025,-7.67515 1.88177,-7.47211 2.24672,-7.40717 2.60839,-7.33141 2.96626,-7.24498 3.31981,-7.14798 3.66851,-7.04058 4.01187,-6.92289 4.34939,-6.79514 4.68056,-6.65747 5.00492,-6.51009 5.32197,-6.35324 5.63128,-6.18712 5.93236,-6.01199 6.22482,-5.82809 6.50819,-5.63569 6.78209,-5.43509 7.046081,-5.22656 7.29983,-5.01042 7.54292,-4.78697 7.77502,-4.55655 7.9958,-4.31948 8.20491,-4.07611 8.40208,-3.82682 8.58698,-3.571939 8.75939,-3.31185 8.91901,-3.04695 9.06565,-2.77759 9.19907,-2.50418 9.31909,-2.22714 9.42551,-1.94684 9.51821,-1.66371 9.59702,-1.37815 M 53.082219,401.00668 l -3.08445,-5.88542 -2.80345,-6.03194 -2.51897,-6.171 -2.23139,-6.30242 -1.94104,-6.42606 -1.64828,-6.54173 -1.3535,-6.64931 -1.05703,-6.74866 -0.75926,-6.83967 -0.46054,-6.92222 -0.16126,-6.99618 0.13821,-7.06151 0.43754,-7.11809 0.7363,-7.16587 1.03415,-7.20478 1.33074,-7.23477 1.77799,-7.87566 2.12281,-7.88897 2.46453,-7.89079 2.80266,-7.88109 3.13671,-7.85992 3.46619,-7.82728 3.79061,-7.78324 4.10951,-7.72787 4.42242,-7.66121 4.72888,-7.5834 5.02845,-7.49454 5.3207,-7.39474 5.60518,-7.28419 5.8815,-7.16299 6.14925,-7.03138 6.408041,-6.88951 6.65748,-6.73759 6.89722,-6.57587 7.12691,-6.40455 7.34621,-6.22389 7.55481,-6.03418 7.75239,-5.83566 7.93868,-5.62865 8.11339,-5.41341 8.27629,-5.19031 8.42711,-4.95962 8.56566,-4.72172 8.69172,-4.47693 8.80511,-4.22561 8.90567,-3.968139 8.99326,-3.70489 9.06772,-3.43623 M 85.856529,447.17702 l -5.03688,-6.04093 -4.63893,-6.37432 -4.23155,-6.69479 -3.8156,-7.00169 -3.39192,-7.29438 -2.96135,-7.57229 -2.52479,-7.83484 -2.08309,-8.08152 -1.63719,-8.3118 -1.18796,-8.52523 -0.73632,-8.72139 -0.28319,-8.89985 0.17051,-9.06027 0.62387,-9.20233 1.07597,-9.32572 1.52588,-9.43021 1.64385,-8.06287 1.96265,-8.11249 2.27859,-8.15029 2.59121,-8.17619 2.90005,-8.19019 3.20467,-8.19226 3.50462,-8.18237 3.79946,-8.16057 4.08876,-8.12686 4.3721,-8.08133 4.64907,-8.024 4.91926,-7.95498 5.182291,-7.87438 5.43776,-7.78228 5.68531,-7.67886 5.92456,-7.56423 6.15519,-7.43859 6.37685,-7.3021 6.5892,-7.15497 6.79196,-6.99741 6.98482,-6.82965 7.1675,-6.65194 7.33972,-6.46454 7.50126,-6.26771 7.65187,-6.06174 7.79131,-5.84695 7.9194,-5.62363 8.03595,-5.39211 8.14079,-5.15274 8.23377,-4.90586 8.31473,-4.651819 8.3836,-4.391 m -117.25411,386.484639 -6.24916,-5.24938 -5.79996,-5.79686 -5.33472,-6.32833 -4.854721,-6.84227 -4.36129,-7.3373 -3.85579,-7.81201 -3.33964,-8.26512 -2.81423,-8.69536 -2.28104,-9.10154 -1.74154,-9.48255 -1.19722,-9.83731 -0.6496,-10.16487 -0.10016,-10.4643 0.44953,-10.73477 0.998,-10.97556 1.5437,-11.18598 1.45975,-8.23267 1.74286,-8.31523 2.02341,-8.38564 2.30102,-8.44386 2.57529,-8.48975 2.84578,-8.52328 3.11214,-8.54438 3.373961,-8.55303 3.63087,-8.54922 3.88247,-8.53294 4.12843,-8.50422 4.36836,-8.46312 4.60194,-8.40968 4.82879,-8.34397 5.04862,-8.26612 5.26108,-8.17621 5.46588,-8.07439 5.66271,-7.96079 5.85129,-7.8356 6.03134,-7.69898 6.2026,-7.55115 6.36482,-7.39231 6.51776,-7.22269 6.6612,-7.04255 6.79494,-6.85214 6.91878,-6.65175 7.03252,-6.44166 7.13601,-6.22218 7.22912,-5.99364 7.31168,-5.75636 7.38358,-5.51069 7.44473,-5.256989 M 155.19834,502.038 l -3.295,-1.90585 -3.18903,-2.09495 -3.08037,-2.28228 -2.9691,-2.46769 -2.85531,-2.65099 -2.73911,-2.83206 -2.62059,-3.01072 -2.49986,-3.18685 -4.62913,-6.89113 -4.12216,-7.56135 -3.60123,-8.20599 -3.06811,-8.82284 -2.52461,-9.40983 -1.97256,-9.96498 -1.41383,-10.4864 -0.85032,-10.97232 -0.28394,-11.4211 0.28342,-11.83123 0.8498,-12.20131 1.41332,-12.5301 1.23131,-8.37991 1.47011,-8.491 1.70675,-8.58973 1.94093,-8.67594 2.17226,-8.74949 2.40043,-8.81031 2.6251,-8.85827 2.84595,-8.89333 6.33753,-17.83994 7.16708,-17.82433 7.95485,-17.70483 8.69627,-17.48216 9.38701,-17.15761 10.02305,-16.73306 10.60066,-16.211 11.11652,-15.59446 11.56757,-14.88705 5.93195,-7.15096 6.01926,-6.94192 6.09779,-6.72277 6.16743,-6.49381 6.22808,-6.2554 6.27966,-6.00785 m -60.58178,415.83548 -2.94124,-1.23121 -2.85181,-1.4617 -2.75965,-1.69076 -2.66481,-1.9182 -2.5674,-2.14378 -2.46751,-2.3673 -2.36525,-2.58853 -2.2607,-2.80726 -2.15396,-3.02327 -2.04515,-3.23639 -3.75607,-7.09937 -3.29852,-7.91167 -2.82825,-8.69343 -2.34706,-9.44164 -1.8568,-10.15339 -1.35939,-10.82594 -0.85671,-11.45671 -0.35073,-12.04325 0.1566,-12.58329 0.66332,-13.07477 1.16749,-13.51576 2.11813,-17.13459 2.86009,-17.62171 3.58538,-18.00614 4.28977,-18.28562 4.96916,-18.45854 5.61959,-18.5239 6.23728,-18.48129 6.81861,-18.331 7.36021,-18.07386 7.85892,-17.71139 8.31182,-17.24572 8.71628,-16.67954 9.06996,-16.01614 9.37076,-15.25943 9.61697,-14.41377 9.80712,-13.48412 m -36.57664,422.22533 -2.21175,-0.66528 -2.14712,-0.926 -2.08024,-1.18574 -2.01119,-1.44425 -1.94001,-1.70123 -1.86681,-1.95643 -1.79165,-2.20959 -1.7146,-2.46041 -3.19098,-5.66275 -2.86231,-6.63173 -2.52164,-7.57291 -2.17039,-8.48232 -1.81004,-9.35615 -1.4421,-10.19073 -1.0681,-10.98257 -0.68963,-11.72833 -0.30826,-12.42491 0.0744,-13.06936 0.45674,-13.659 0.83717,-14.19133 1.4705,-17.33093 1.9856,-17.88683 2.48912,-18.33847 2.97814,-18.68325 3.44981,-18.91916 3.90136,-19.04479 4.33019,-19.05946 4.73377,-18.96303 5.10977,-18.7561 5.456,-18.43987 5.77042,-18.01617 6.05122,-17.48747 6.29675,-16.85688 6.50559,-16.12803 6.67651,-15.3052 6.80852,-14.39317 m -14.68317,425.26542 -1.22331,-0.28861 -1.18842,-0.56786 -1.15221,-0.84649 -1.11475,-1.12419 -2.11223,-3.07624 -1.94821,-4.16826 -1.77564,-5.24197 -1.59526,-6.29265 -1.40787,-7.31567 -1.21429,-8.30652 -1.01537,-9.26089 -0.81199,-10.17454 -0.60504,-11.04348 -0.39544,-11.86388 -0.1841,-12.63214 0.0281,-13.34489 0.69116,-28.59052 0.77818,-17.45396 1.05077,-18.05294 1.31724,-18.54672 1.57603,-18.93242 1.82562,-19.20778 2.06459,-19.37119 2.29153,-19.42174 2.5051,-19.35907 2.70408,-19.18361 2.8873,-18.89633 3.05369,-18.49895 3.20229,-17.99374 3.33222,-17.38369 3.44274,-16.67231 3.53319,-15.86378 3.60306,-14.9628 m 5.97012,425.7537 -0.38009,-2.29056 -0.33021,-6.82323 -0.48814,-26.67846 -0.23129,-42.34655 0.042,-55.0042 0.3776,-73.26506 0.69461,-77.87305 0.94734,-75.27264 1.11236,-65.70453 m 54.99955,419.44296 2.05613,-0.5851 1.99637,-0.84986 1.93449,-1.11371 1.87056,-1.37639 1.80464,-1.63761 1.73682,-1.89709 1.66716,-2.15456 1.59572,-2.40975 2.97045,-5.57456 2.66543,-6.56121 2.34912,-7.52002 2.02285,-8.44698 1.68801,-9.33812 1.34602,-10.18969 0.99831,-10.99807 0.64637,-11.75983 0.2917,-12.47174 -0.0642,-13.13079 -0.41985,-13.7342 -0.7737,-14.27937 -1.35356,-17.35755 -1.82769,-17.92276 -2.29117,-18.38353 -2.7413,-18.73716 -3.17545,-18.9816 -3.5911,-19.11542 -3.98582,-19.13783 -4.35731,-19.04872 -4.7034,-18.84859 -5.0221,-18.53863 -5.31152,-18.12062 -5.56998,-17.59701 -5.79599,-16.97085 -5.98821,-16.24579 -6.14555,-15.42605 -6.26707,-14.51642 m 69.74672,412.52685 2.83899,-1.12288 2.75337,-1.35941 2.66505,-1.5946 2.57409,-1.82822 2.48063,-2.06006 2.38471,-2.28985 2.28647,-2.51741 2.18596,-2.7425 2.08332,-2.96488 1.97863,-3.18436 3.63551,-7.01442 3.1948,-7.85205 2.74153,-8.65884 2.2775,-9.43162 1.80452,-10.16734 1.32445,-10.86313 0.83918,-11.51624 0.35062,-12.12413 -0.13933,-12.68439 -0.62873,-13.19482 -1.11565,-13.65343 -2.01036,-17.1735 -2.71456,-17.67426 -3.40294,-18.072 -4.07149,-18.36442 -4.71632,-18.54984 -5.33365,-18.62713 -5.91991,-18.59588 -6.47166,-18.45626 -6.9857,-18.20907 -7.45903,-17.85578 -7.88889,-17.39841 -8.27278,-16.83966 -8.60845,-16.18277 -8.89395,-15.43158 -9.12763,-14.59044 -9.30811,-13.66428 m 94.53203,400.92344 3.26532,-1.78659 3.16145,-1.98357 3.05484,-2.17883 2.94556,-2.37219 2.83373,-2.56349 2.71943,-2.75256 2.60277,-2.93923 2.48385,-3.12336 2.36276,-3.30477 2.23962,-3.4833 4.10215,-7.48992 3.58765,-8.16575 3.06068,-8.81317 2.52306,-9.42996 1.97667,-10.01395 1.4234,-10.56311 0.86519,-11.07556 0.30397,-11.54949 -0.2583,-11.98326 -0.81969,-12.37536 -1.37822,-12.72443 -1.18785,-8.40271 -1.41822,-8.51823 -1.64653,-8.62133 -1.87243,-8.71188 -4.41131,-17.64447 -5.27798,-17.85292 -6.11388,-17.9573 -6.91415,-17.95705 -7.67412,-17.85214 -8.38937,-17.64319 -9.05574,-17.33144 -9.66933,-16.91866 -10.22656,-16.4073 -10.72421,-15.80033 -11.15934,-15.10125 -11.52946,-14.3142 -5.88259,-6.83568 -5.94978,-6.60802 -6.00829,-6.37073 -6.05804,-6.12414 m 122.00859,382.94228 6.36071,-5.05355 5.90967,-5.63761 5.44157,-6.2054 4.9578,-6.75531 4.45973,-7.28573 3.94879,-7.79517 3.42649,-8.28211 2.89429,-8.74519 2.35376,-9.18305 1.80643,-9.59443 1.25391,-9.97816 0.69775,-10.33311 0.1396,-10.65828 -0.41896,-10.95272 -0.97631,-11.21557 -1.53085,-11.4461 -1.42329,-8.25985 -1.69932,-8.34767 -1.97287,-8.42332 -2.24355,-8.48668 -2.51096,-8.5377 -2.7747,-8.57625 -3.03441,-8.60231 -3.28968,-8.61584 -3.54017,-8.6168 -3.7855,-8.60522 -4.02531,-8.58107 -4.25925,-8.54444 -4.48699,-8.49534 -4.70818,-8.43387 -4.92251,-8.36009 -5.12967,-8.27415 -5.32935,-8.17613 -5.52127,-8.06621 -5.70514,-7.94452 -5.88068,-7.81126 -6.04767,-7.66661 -6.20584,-7.51079 -6.35496,-7.34402 -6.49483,-7.16655 -6.62521,-6.97863 -6.74596,-6.78054 -6.85686,-6.57257 -6.95777,-6.35502 -7.04855,-6.12821 -7.12905,-5.89247 -7.19915,-5.64814 -7.25877,-5.395569 m 151.57466,355.693639 5.31086,-5.95801 4.89901,-6.32775 4.47657,-6.68381 4.04446,-7.02542 3.60361,-7.35184 3.15497,-7.66238 2.69951,-7.95635 2.23821,-8.23312 1.77207,-8.49209 1.3021,-8.73272 0.82933,-8.95446 0.35475,-9.15685 -0.12058,-9.33944 -0.59567,-9.50185 -1.06946,-9.64372 -1.54094,-9.76474 -1.61548,-8.0936 -1.92879,-8.14917 -2.23927,-8.19286 -2.54651,-8.22462 -2.85001,-8.24439 -3.14938,-8.25214 -3.44415,-8.24787 -3.73391,-8.23157 -4.01821,-8.20328 -4.29667,-8.16303 -4.56885,-8.11088 -4.83439,-8.04692 -5.09288,-7.97122 -5.34394,-7.8839 -5.58721,-7.7851 -5.82235,-7.67496 -6.04899,-7.55361 -6.26682,-7.42127 -6.47552,-7.27811 -6.67477,-7.12434 -6.86431,-6.96018 -7.04383,-6.78589 -7.21309,-6.6017 -7.37184,-6.40789 -7.51984,-6.20474 -7.65688,-5.99256 -7.78276,-5.77162 -7.89731,-5.54229 -8.00033,-5.30487 -8.0917,-5.05973 -8.17128,-4.807209 -8.23895,-4.54767 m 180.58132,315.950019 3.45086,-5.99978 3.14591,-6.17452 2.83666,-6.34079 2.52351,-6.49834 2.20689,-6.64698 1.88726,-6.78651 1.56502,-6.91671 1.24065,-7.03743 0.91457,-7.1485 0.58723,-7.24974 0.25909,-7.34104 -0.0694,-7.42227 -0.39781,-7.49332 -0.72567,-7.55408 -1.05252,-7.60447 -1.37794,-7.64443 -1.75859,-7.909 -2.09965,-7.92877 -2.43764,-7.93699 -2.77208,-7.93363 -3.10248,-7.91873 -3.42836,-7.89226 -3.74925,-7.85431 -4.06467,-7.80491 -4.37416,-7.74412 -4.67728,-7.67206 -4.97359,-7.58881 -5.26263,-7.4945 -5.54403,-7.38926 -5.81732,-7.27327 -6.08215,-7.14666 -6.33811,-7.00964 -6.58484,-6.86241 -6.82196,-6.70517 -7.04914,-6.53816 -7.26606,-6.36162 -7.47237,-6.17582 -7.6678,-5.981 -7.85205,-5.77747 -8.02487,-5.56553 -8.18597,-5.34546 -8.33516,-5.11762 -8.47219,-4.8823 -8.59688,-4.63988 -8.70903,-4.39069 -8.8085,-4.135099 -8.89512,-3.87349 -8.96878,-3.60623 m 203.35457,262.143039 2.60403,-9.60707 1.96814,-9.77547 1.3272,-9.91877 0.68286,-10.03659 0.0367,-10.12863 -0.60945,-10.19463 -1.25408,-10.23447 -1.8955,-10.24799 -1.84826,-7.71167 -2.2067,-7.69316 -2.56194,-7.66346 -2.91343,-7.62258 -3.26068,-7.57059 -3.60318,-7.50756 -3.94043,-7.4336 -4.27193,-7.34881 -4.5972,-7.25329 -4.91578,-7.14721 -5.22719,-7.03072 -5.53098,-6.90397 -5.82672,-6.76716 -6.11396,-6.62049 -6.39228,-6.46418 -6.6613,-6.29843 -6.9206,-6.12352 -7.16982,-5.93966 -7.40858,-5.74717 -7.63656,-5.54629 -7.85339,-5.33733 -8.05879,-5.12059 -8.25244,-4.89638 -8.43405,-4.66504 -8.60339,-4.42691 -8.76017,-4.18231 -8.9042,-3.93163 -9.03524,-3.675209 -9.15311,-3.41344 -9.25765,-3.14669 -9.34869,-2.87535 -9.42611,-2.59983 m 212.43424,197.817099 -0.0664,-9.66272 -0.66449,-9.65458 -1.26103,-9.62387 -1.85461,-9.57069 -1.88177,-7.50759 -2.24672,-7.44952 -2.60839,-7.38058 -2.96626,-7.3009 -3.31981,-7.21056 -3.66851,-7.10973 -4.01187,-6.99852 -4.34939,-6.87713 -4.68056,-6.74569 -5.00492,-6.60445 -5.32197,-6.45356 -5.63128,-6.29327 -5.93236,-6.12382 -6.22482,-5.94542 -6.50819,-5.75838 -6.78209,-5.56294 -7.04608,-5.35938 -7.29983,-5.14803 -7.54292,-4.92915 -7.77502,-4.70311 -7.9958,-4.47021 -8.20491,-4.23078 -8.40208,-3.98521 -8.58698,-3.7338 -8.75939,-3.476979 -8.91901,-3.21507 -9.06565,-2.94848 -9.19907,-2.67759 -9.31909,-2.40281 -9.42551,-2.12452 -9.51821,-1.84313 -9.59702,-1.55906 m 179.53945,72.161609 -2.99725,-5.13966 -3.21653,-5.01125 -3.43261,-4.87784 -3.6453,-4.73962 -3.85436,-4.59668 -4.05959,-4.44918 -4.26082,-4.29727 -4.4578,-4.1411 -4.65036,-3.98082 -4.83831,-3.81659 -5.02146,-3.64858 -5.19963,-3.47693 -5.37264,-3.301849 -5.54031,-3.12349 -5.7025,-2.94203 -5.85903,-2.75765 -6.00974,-2.57054 -6.15449,-2.38087 -6.29313,-2.18884 -6.42554,-1.99464 -6.55156,-1.79847 -6.67109,-1.600497 -6.784,-1.400954 -6.89018,-1.200015 -6.98951,-0.997884 -7.08193,-0.794764 -7.16731,-0.590856 -7.24558,-0.38636 -7.31667,-0.181483 -7.38049,0.02357 -7.43699,0.22861 -7.48612,0.433418 m 149.21852,35.530774 -6.44223,-6.683609 -6.96404,-6.18339 -7.46618,-5.6657 -7.94725,-5.13203 -8.40588,-4.58385 -8.84078,-4.02275 -9.2507,-3.450273 -9.63451,-2.86806 -9.99112,-2.277749 -10.31952,-1.681007 -10.61878,-1.079518 -10.88805,-0.474981 -11.12659,0.130897 -11.3337,0.736405 -11.50882,1.339834 -11.65144,1.939481 m 117.25411,7.290131 -5.76327,-4.093581 -6.07545,-3.6633 -6.375,-3.225413 -6.66132,-2.78083 -6.93381,-2.330472 -7.19189,-1.875276 -7.43506,-1.416187 -7.66277,-0.954156 -7.87459,-0.490145 -8.07004,-0.02512 -8.24876,0.439965 -8.41033,0.904133 -8.55444,1.366423 -8.68081,1.825876 -8.78913,2.281539 -8.87922,2.732463 m 87.39956,-10.890736 -4.69672,-2.308043 -4.88412,-1.944072 -5.06371,-1.576992 -5.23521,-1.207392 -5.39833,-0.835859 -5.55283,-0.462992 -5.69844,-0.08938 -5.83495,0.284367 -5.96213,0.657664 -6.07977,1.029908 -6.1877,1.400507 -6.28572,1.768865 -6.37371,2.134397 -6.45149,2.496514 -6.51897,2.854642 -6.57603,3.208204 m 60.58178,-22.060717 -3.51916,-1.13765 -3.63102,-0.824616 -3.73818,-0.51051 -3.84048,-0.195741 -3.93779,0.11928 -4.03,0.434148 -4.11696,0.748452 -4.19859,1.061783 -4.27477,1.373738 -4.3454,1.683907 -4.41037,1.991892 -4.46964,2.297291 -4.52309,2.599706 -4.57068,2.898747 -4.61233,3.194024 -4.64799,3.485156 m 36.57664,-28.450552 -2.34586,-0.412243 -2.40948,-0.133833 -2.47043,0.144727 -2.52862,0.423125 -2.58399,0.701051 -2.63647,0.978196 -2.68602,1.254249 -2.73257,1.528904 -5.59255,3.874647 -5.74156,4.948859 -5.86498,6.001001 -5.96223,7.026379 m 14.68317,-31.490651 -1.20752,-0.0139 -1.23729,0.244426 -1.26581,0.502504 -1.29304,0.760071 -2.66249,2.289492 -2.75534,3.307114 -2.83698,4.311306 -2.90711,5.297989 -2.96543,6.263159 -3.01171,7.202894 m -5.97012,-31.97893 -0.39537,2.004111 -0.42701,5.988019 -0.92181,23.491381 m -49.36895,476.234233 3.68319,0.68365 6.95261,1.13361 7.02506,0.94288 7.08415,0.75037 7.12974,0.55641 7.16176,0.3614 7.18016,0.1657 7.18488,-0.0303 7.17593,-0.22626 7.15332,-0.42179 7.11709,-0.61651 7.06731,-0.81006 7.00408,-1.00207 6.92752,-1.19216 1.58635,-0.30187 m -193.96661,-40.46259 4.3791,2.91588 6.09552,3.76074 6.35204,3.59089 6.59647,3.41421 6.82834,3.23102 7.04721,3.04169 7.25266,2.84656 7.44432,2.64602 7.6218,2.44045 7.78477,2.23022 7.93293,2.01575 8.06597,1.79744 8.18368,1.57571 8.28579,1.35098 8.37215,1.12369 8.44255,0.89424 8.4969,0.66311 8.53506,0.4307 8.55697,0.19748 8.56261,-0.0361 8.55194,-0.26965 8.525,-0.50267 8.48181,-0.73473 8.4225,-0.96539 8.34714,-1.19422 8.25589,-1.42076 8.14894,-1.64461 8.02646,-1.86533 7.88872,-2.08249 7.73595,-2.29569 7.56845,-2.50453 7.38656,-2.70858 7.1906,-2.9075 6.98094,-3.10086 6.75802,-3.28834 6.52221,-3.46955 6.27399,-3.64415 6.01384,-3.81182 2.53814,-1.71294 m -341.898451,-46.88108 2.87641,3.33306 4.89663,5.22204 5.25623,5.0835 5.6058,4.93529 5.944721,4.77768 6.27232,4.61098 6.58796,4.4355 6.89109,4.25158 7.18108,4.05955 7.45742,3.85982 7.71954,3.65272 7.96698,3.43868 8.19926,3.21808 8.41592,2.99137 8.61656,2.75896 8.80081,2.5213 8.96829,2.27884 9.11872,2.03203 9.25177,1.78137 9.36723,1.52731 9.46484,1.27034 9.54444,1.01096 9.60587,0.74965 9.64903,0.48692 9.6738,0.22325 9.68016,-0.0408 9.66811,-0.30484 9.63763,-0.56828 9.58883,-0.83062 9.52177,-1.09139 9.43657,-1.35008 9.33342,-1.60619 9.2125,-1.85926 9.07405,-2.10878 8.91832,-2.35429 8.74561,-2.59532 8.55626,-2.8314 8.35062,-3.0621 8.12908,-3.28697 7.89207,-3.50558 7.64004,-3.71752 7.37347,-3.92237 7.09285,-4.11978 6.79873,-4.30932 6.49168,-4.49067 6.17227,-4.66348 5.84111,-4.8274 5.49882,-4.98213 5.14608,-5.12739 4.78353,-5.26288 1.43822,-1.69381 m -426.953691,-51.88211 2.83012,5.43093 3.65902,6.15712 4.08502,6.05146 4.50322,5.93426 4.91287,5.80579 5.31316,5.66624 5.70334,5.51593 6.08266,5.3551 6.45039,5.18409 6.80586,5.00321 7.148371,4.81279 7.47726,4.61323 7.79194,4.40488 8.09176,4.18814 8.3762,3.96344 8.64468,3.73118 8.89671,3.49183 9.13181,3.24583 9.34952,2.99365 9.54944,2.73577 9.73117,2.47268 9.89438,2.20488 10.03877,1.9329 10.16403,1.65723 10.26995,1.3784 10.35633,1.09696 10.42298,0.81342 10.46981,0.52833 10.49669,0.24224 10.50359,-0.0443 10.49051,-0.33077 10.45745,-0.61662 10.40449,-0.90128 10.33171,-1.18422 10.23929,-1.46492 10.12735,-1.74283 9.99615,-2.01741 9.84592,-2.28817 9.67694,-2.55455 9.48955,-2.81608 9.28408,-3.07226 9.06096,-3.32257 8.82057,-3.56657 8.5634,-3.80377 8.28993,-4.03374 8.00067,-4.25603 7.6962,-4.47022 7.37706,-4.67589 7.04388,-4.87267 6.69731,-5.06016 6.33797,-5.23804 5.96657,-5.40593 5.58382,-5.56354 5.19044,-5.71056 4.78717,-5.8467 4.37479,-5.97172 3.95409,-6.08537 3.52586,-6.18743 1.77993,-3.49497 m -480.042761,-55.28975 0.6666,2.74586 1.98463,6.77111 2.45503,6.71053 2.92078,6.63718 3.38095,6.55119 3.8347,6.45273 4.28113,6.34198 4.71943,6.21918 5.14874,6.08452 5.56825,5.93828 5.97716,5.78075 6.37469,5.61221 6.76008,5.43298 7.13261,5.24341 7.49156,5.04386 7.836261,4.83471 8.16602,4.61636 8.48026,4.38922 8.77834,4.15372 9.05972,3.91032 9.32385,3.65948 9.57023,3.40166 9.79839,3.13737 10.00791,2.86711 10.19837,2.5914 10.36942,2.31075 10.52073,2.02569 10.65202,1.73679 10.76302,1.44459 10.85353,1.14962 10.9234,0.85247 10.97246,0.5537 11.00064,0.25387 11.00788,-0.0464 10.99417,-0.34666 10.95951,-0.64621 10.90402,-0.94455 10.82775,-1.24108 10.73087,-1.53526 10.61358,-1.8265 10.47607,-2.11427 10.31862,-2.39802 10.14154,-2.6772 9.94514,-2.95128 9.72982,-3.21975 9.49598,-3.4821 9.24405,-3.7378 8.97453,-3.98639 8.68793,-4.22741 8.3848,-4.46036 8.06569,-4.68483 7.73124,-4.90039 7.38206,-5.1066 7.01885,-5.30311 6.64226,-5.48952 6.25303,-5.66547 5.8519,-5.83065 5.43963,-5.98472 5.01701,-6.12741 4.58483,-6.25842 4.14393,-6.37753 3.69513,-6.48449 3.23932,-6.57912 2.77732,-6.66121 2.31004,-6.73063 1.83837,-6.78724 0.15063,-0.6501 M 27.330149,219.68428 l -1.21257,6.18082 -0.88542,6.8616 -0.40597,6.87923 0.0743,6.88375 0.55435,6.87518 1.03337,6.85351 1.51044,6.8188 1.98463,6.77111 2.45503,6.71053 2.92078,6.63717 3.38095,6.55119 3.8347,6.45273 4.28113,6.34199 4.71943,6.21917 5.14874,6.08452 5.56825,5.93829 5.97716,5.78074 6.37469,5.61221 6.76008,5.43298 7.13261,5.24341 7.49156,5.04386 7.836261,4.83472 8.16602,4.61635 8.48026,4.38922 8.77834,4.15373 9.05972,3.91032 9.32385,3.65947 9.57023,3.40166 9.79839,3.13737 10.00791,2.86712 10.19837,2.59139 10.36942,2.31075 10.52073,2.0257 10.65202,1.73679 10.76302,1.44458 10.85353,1.14962 10.9234,0.85247 10.97246,0.5537 11.00064,0.25387 11.00788,-0.0464 10.99417,-0.34666 10.95951,-0.64622 10.90402,-0.94455 10.82775,-1.24108 10.73087,-1.53525 10.61358,-1.8265 10.47607,-2.11428 10.31862,-2.39801 10.14154,-2.6772 9.94514,-2.95129 9.72982,-3.21975 9.49598,-3.48209 9.24405,-3.7378 8.97453,-3.9864 8.68793,-4.2274 8.3848,-4.46037 8.06569,-4.68483 7.73124,-4.90038 7.38206,-5.10661 7.01885,-5.30311 6.64226,-5.48951 6.25303,-5.66548 5.8519,-5.83065 5.43963,-5.98472 5.01701,-6.1274 4.58483,-6.25843 4.14393,-6.37753 3.69513,-6.48449 3.23932,-6.57911 2.77732,-6.66122 2.31004,-6.73063 1.83837,-6.78723 1.3632,-6.83093 0.88542,-6.8616 0.40597,-6.87923 -0.0743,-6.88375 -0.55435,-6.87517 -1.03337,-6.85352 -0.84384,-4.07293 m -480.042761,-55.28975 -1.31099,2.78275 -2.65009,6.35605 -2.20422,6.42229 -1.75415,6.47631 -1.30074,6.51799 -0.84487,6.54727 -0.38737,6.56408 0.0709,6.5684 0.52894,6.56021 0.98604,6.53955 1.44124,6.50642 1.89371,6.46092 2.34257,6.40311 2.78697,6.33312 3.22607,6.25107 3.65902,6.15712 4.08502,6.05146 4.50322,5.93426 4.91287,5.80578 5.31316,5.66625 5.70334,5.51593 6.08266,5.3551 6.45039,5.18409 6.80586,5.0032 7.148371,4.8128 7.47726,4.61323 7.79194,4.40488 8.09176,4.18814 8.3762,3.96344 8.64468,3.73118 8.89671,3.49183 9.13181,3.24583 9.34952,2.99364 9.54944,2.73577 9.73117,2.47268 9.89438,2.20489 10.03877,1.9329 10.16403,1.65723 10.26995,1.3784 10.35633,1.09696 10.42298,0.81341 10.46981,0.52834 10.49669,0.24224 10.50359,-0.0443 10.49051,-0.33078 10.45745,-0.61661 10.40449,-0.90128 10.33171,-1.18423 10.23929,-1.46492 10.12735,-1.74282 9.99615,-2.01742 9.84592,-2.28816 9.67694,-2.55455 9.48955,-2.81609 9.28408,-3.07225 9.06096,-3.32257 8.82057,-3.56657 8.5634,-3.80378 8.28993,-4.03374 8.00067,-4.25603 7.6962,-4.47021 7.37706,-4.67589 7.04388,-4.87267 6.69731,-5.06017 6.33797,-5.23803 5.96657,-5.40594 5.58382,-5.56354 5.19044,-5.71055 4.78717,-5.8467 4.37479,-5.97172 3.95409,-6.08537 3.52586,-6.18743 3.09092,-6.27772 2.65009,-6.35605 2.20422,-6.4223 1.75415,-6.4763 1.30074,-6.51799 0.84487,-6.54727 0.38737,-6.56408 -0.0709,-6.5684 -0.52894,-6.56022 -0.98604,-6.53954 -1.44124,-6.50642 -1.89371,-6.46092 -2.34257,-6.40311 -2.78697,-6.33312 -0.39595,-0.82014 m -426.953691,-51.88211 -2.97366,3.69454 -4.03183,5.50356 -3.64411,5.60831 -3.24945,5.70236 -2.8486,5.78558 -2.44234,5.85777 -2.03142,5.91882 -1.61663,5.9686 -1.19878,6.00701 -0.77863,6.03399 -0.357,6.04949 0.0653,6.05347 0.48748,6.04593 0.90873,6.02688 1.32826,5.99635 1.74525,5.95441 2.15893,5.90114 2.56848,5.83664 2.97316,5.76101 3.37218,5.67444 3.76477,5.57705 4.15019,5.46905 4.52773,5.35064 4.89663,5.22204 5.25623,5.0835 5.6058,4.93529 5.944721,4.77768 6.27232,4.61098 6.58796,4.4355 6.89109,4.25157 7.18108,4.05956 7.45742,3.85982 7.71954,3.65272 7.96698,3.43868 8.19926,3.21808 8.41592,2.99137 8.61656,2.75896 8.80081,2.5213 8.96829,2.27884 9.11872,2.03203 9.25177,1.78137 9.36723,1.52731 9.46484,1.27034 9.54444,1.01096 9.60587,0.74965 9.64903,0.48692 9.6738,0.22325 9.68016,-0.0408 9.66811,-0.30484 9.63763,-0.56828 9.58883,-0.83062 9.52177,-1.09139 9.43657,-1.35008 9.33342,-1.60619 9.2125,-1.85926 9.07405,-2.10878 8.91832,-2.35429 8.74561,-2.59532 8.55626,-2.8314 8.35062,-3.0621 8.12908,-3.28697 7.89207,-3.50558 7.64004,-3.71752 7.37347,-3.92237 7.09285,-4.11978 6.79873,-4.30932 6.49168,-4.49068 6.17227,-4.66347 5.84111,-4.8274 5.49882,-4.98214 5.14608,-5.12738 4.78353,-5.26288 4.41188,-5.38835 4.03183,-5.50356 3.64411,-5.60831 3.24945,-5.70236 2.8486,-5.78558 2.44234,-5.85777 2.03142,-5.91882 1.61663,-5.9686 1.19878,-6.00701 0.77863,-6.03399 0.357,-6.04949 -0.0653,-6.05347 -0.48748,-6.04593 -0.90873,-6.02688 -1.32826,-5.99635 -1.74525,-5.95441 -2.15893,-5.90114 -2.56848,-5.83664 -2.97316,-5.76101 -3.37218,-5.67444 -3.76477,-5.57705 -4.15019,-5.46905 -1.65132,-2.01758 m -341.89845,-46.881086 -3.20409,2.259297 -5.45969,4.125087 -5.16676,4.270086 -4.86399,4.406957 -4.55197,4.53544 -4.23129,4.65529 -3.90253,4.76628 -3.566371,4.86818 -3.2234,4.960839 -2.87431,5.04404 -2.51974,5.11764 -2.16037,5.18151 -1.7969,5.2355 -1.42999,5.27953 -1.06038,5.31352 -0.68874,5.33738 -0.31579,5.35109 0.0578,5.3546 0.43121,5.34794 0.80382,5.33109 1.17491,5.30408 1.54377,5.26699 1.90968,5.21986 2.27196,5.16281 2.62991,5.09592 2.98286,5.01933 3.33014,4.93319 3.671061,4.83766 4.00501,4.73292 4.33133,4.61916 4.6494,4.49663 4.95863,4.36552 5.25841,4.2261 5.54819,4.07865 5.8274,3.92343 6.09552,3.76074 6.35204,3.59089 6.59647,3.41421 6.82834,3.23102 7.04721,3.04169 7.25266,2.84656 7.44432,2.64603 7.6218,2.44044 7.78477,2.23022 7.93293,2.01575 8.06597,1.79744 8.18368,1.57571 8.28579,1.35099 8.37215,1.12368 8.44255,0.89425 8.4969,0.6631 8.53506,0.4307 8.55697,0.19748 8.56261,-0.0361 8.55194,-0.26965 8.525,-0.50267 8.48181,-0.73473 8.4225,-0.96539 8.34714,-1.19422 8.25589,-1.42076 8.14894,-1.64461 8.02646,-1.86533 7.88872,-2.08249 7.73595,-2.29569 7.56845,-2.50453 7.38656,-2.70858 7.1906,-2.90749 6.98094,-3.10087 6.75802,-3.28834 6.52221,-3.46954 6.27399,-3.64416 6.01384,-3.81182 5.74223,-3.97223 5.45969,-4.12509 5.16676,-4.27008 4.86399,-4.40696 4.55197,-4.53544 4.23129,-4.65529 3.90253,-4.76627 3.56637,-4.86819 3.2234,-4.96084 2.87431,-5.04404 2.51974,-5.11764 2.16037,-5.18151 1.7969,-5.2355 1.42999,-5.27953 1.06038,-5.31351 0.68874,-5.33739 0.31579,-5.35108 -0.0578,-5.35461 -0.43121,-5.34794 -0.80382,-5.33108 -1.17491,-5.30409 -1.54377,-5.26699 -1.90968,-5.21986 -2.27196,-5.16281 -2.62991,-5.09592 -2.98286,-5.01933 -3.33014,-4.933189 -3.67106,-4.83766 -4.00501,-4.73291 -4.33133,-4.61917 -4.6494,-4.49662 -4.95863,-4.365529 -5.25841,-4.226108 -5.54819,-4.07865 -1.4483,-1.007544 m -193.96661,-40.462595 -5.25142,1.078123 -6.73501,1.565195 -6.61941,1.747418 -6.49124,1.926315 -6.35068,2.101544 -6.19806,2.272774 -6.03363,2.439676 -5.85771,2.601936 -5.67064,2.759242 -5.47279,2.911295 -5.26451,3.057807 -5.0462,3.198498 -4.8183,3.333101 -4.58123,3.461358 -4.33543,3.583028 -4.08137,3.697876 -3.81956,3.805685 -3.55047,3.90625 -3.27462,3.999385 -2.99253,4.08489 -2.70476,4.16264 -2.41183,4.23245 -2.11431,4.29422 -1.81277,4.34779 -1.50777,4.393109 -1.19991,4.43005 -0.88976,4.45857 -0.57793,4.4786 -0.26497,4.49009 0.0485,4.49305 0.36183,4.48745 0.67448,4.47332 0.98587,4.45065 1.29537,4.41953 1.60242,4.37999 1.9064,4.3321 2.20676,4.27599 2.50292,4.21172 2.79431,4.13944 3.08039,4.05927 3.3606,3.97139 3.63442,3.87594 3.90131,3.77312 4.16078,3.66311 4.41233,3.54612 4.65548,3.42239 4.88977,3.29215 5.11475,3.15564 5.33,3.01311 5.53509,2.86486 5.72966,2.71115 5.91331,2.55228 6.08571,2.38855 6.24653,2.22028 6.39544,2.04777 6.5322,1.87138 6.65652,1.69141 6.76815,1.50823 6.86692,1.32218 6.95261,1.13362 7.02506,0.94288 7.08415,0.75036 7.12974,0.55641 7.16176,0.3614 7.18016,0.16571 7.18488,-0.0303 7.17593,-0.22627 7.15332,-0.42179 7.11709,-0.61651 7.06731,-0.81006 7.00408,-1.00206 6.92752,-1.19217 6.83777,-1.37999 6.73501,-1.56519 6.61941,-1.74742 6.49124,-1.92632 6.35068,-2.10154 6.19806,-2.27277 6.03363,-2.43968 5.85771,-2.60194 5.67064,-2.75924 5.47279,-2.91129 5.26451,-3.05781 5.0462,-3.1985 4.8183,-3.3331 4.58123,-3.46136 4.33543,-3.58302 4.08137,-3.69788 3.81956,-3.80569 3.55047,-3.90625 3.27462,-3.99938 2.99253,-4.08489 2.70476,-4.16264 2.41183,-4.23245 2.11431,-4.29421 1.81277,-4.3478 1.50777,-4.39311 1.19991,-4.43005 0.88976,-4.45857 0.57793,-4.47859 0.26497,-4.4901 -0.0485,-4.49305 -0.36183,-4.48745 -0.67448,-4.47331 -0.98587,-4.45066 -1.29537,-4.41953 -1.60242,-4.379979 -1.9064,-4.33211 -2.20676,-4.27598 -2.50292,-4.21172 -2.79431,-4.13944 -3.08039,-4.05928 -3.3606,-3.971393 -3.63442,-3.875941 -3.90131,-3.773115 -4.16078,-3.663107 -4.41233,-3.546125 -4.65548,-3.422394 -4.88977,-3.292148 -5.11475,-3.155634 -5.33,-3.013115 -5.53509,-2.864858 -5.72966,-2.71115 -5.91331,-2.55228 -6.08571,-2.388552 -6.24653,-2.220276 -6.39544,-2.047775 -6.5322,-1.871376 -6.65652,-1.691414 -6.76815,-1.508232 -3.18373,-0.638527 m -69.03911,-0.701463 -5.4974,0.630114 -5.4482,0.779468 -5.38866,0.927338 -5.31884,1.073444 -5.2389,1.217505 -5.14899,1.35925 -5.04929,1.498407 -4.93995,1.634711 -4.82124,1.767904 -4.69332,1.897732 -4.5565,2.023947 -4.41097,2.146309 -4.25708,2.264585 -4.09505,2.378552 -3.92526,2.48799 -3.74797,2.592692 -3.56356,2.692459 -3.37236,2.787101 -3.17475,2.876436 -2.97109,2.960298 -2.76177,3.038523 -2.5472,3.110965 -2.32778,3.177485 -2.10393,3.237956 -1.87607,3.292264 -1.64464,3.34031 -1.41009,3.38198 -1.17284,3.41724 -0.93336,3.44597 -0.69211,3.46815 -0.44955,3.48372 -0.20611,3.492679 0.0377,3.49497 0.28145,3.49062 0.52465,3.47962 0.76687,3.46199 1.00763,3.43778 1.24645,3.40703 1.48292,3.36978 1.71655,3.32613 1.94693,3.27613 2.17359,3.21991 2.39612,3.15756 2.61408,3.08919 2.82707,3.01495 3.03468,2.93496 3.23652,2.84939 3.43218,2.7584 3.62132,2.66215 3.80357,2.56084 3.97857,2.45464 4.146,2.34379 4.30554,2.22847 4.45688,2.1089 4.59974,1.98532 4.73384,1.85796 4.85894,1.72707 4.97477,1.59289 5.08115,1.45567 5.17785,1.31568 5.26469,1.1732 5.34151,1.02847 5.40817,0.8818 5.46453,0.73343 5.51049,0.58368 5.54595,0.43281 5.57087,0.28112 5.58517,0.12889 5.58884,-0.0236 5.58189,-0.17601 5.56429,-0.32809 5.53611,-0.47956 5.4974,-0.63011 5.4482,-0.77947 5.38866,-0.92734 5.31884,-1.07344 5.2389,-1.21751 5.14899,-1.35925 5.04929,-1.49841 4.93995,-1.63471 4.82124,-1.7679 4.69332,-1.89773 4.5565,-2.02395 4.41097,-2.14631 4.25708,-2.26459 4.09505,-2.37855 3.92526,-2.48799 3.74797,-2.59269 3.56356,-2.69246 3.37236,-2.7871 3.17475,-2.87644 2.97109,-2.96029 2.76177,-3.03853 2.5472,-3.11096 2.32778,-3.17749 2.10393,-3.23795 1.87607,-3.29227 1.64464,-3.3403 1.41009,-3.38199 1.17284,-3.41723 0.93336,-3.44597 0.69211,-3.46815 0.44955,-3.48373 0.20611,-3.49267 -0.0377,-3.49497 -0.28145,-3.490619 -0.52465,-3.47962 -0.76687,-3.46199 -1.00763,-3.43779 -1.24645,-3.40702 -1.48292,-3.36978 -1.71655,-3.32613 -1.94693,-3.276139 -2.17359,-3.219912 -2.39612,-3.157557 -2.61408,-3.089192 -2.82707,-3.014947 -3.03468,-2.934962 -3.23652,-2.849392 -3.43218,-2.758395 -3.62132,-2.66215 -3.80357,-2.560836 -3.97857,-2.454648 -4.146,-2.343787 -4.30554,-2.228465 -4.45688,-2.1089 -4.59974,-1.985321 -4.73384,-1.857964 -4.85894,-1.727068 -4.97477,-1.592886 -5.08115,-1.455672 -5.17785,-1.315687 -5.26469,-1.173196 -5.34151,-1.028473 -5.40817,-0.881793 -5.46453,-0.733433 -5.51049,-0.583677 -5.54595,-0.432811 -5.57087,-0.28112 -5.58517,-0.128895 -5.58884,0.02358 -5.58189,0.176003 -5.56429,0.328094 -5.53611,0.47956 m 6.42681,10.261585 -3.76043,0.431024 -3.7268,0.533187 -3.68605,0.634337 -3.6383,0.734279 -3.58363,0.832823 -3.52211,0.929782 -3.45392,1.02497 -3.37913,1.118208 -3.29791,1.209318 -3.21043,1.298125 -3.11682,1.384461 -3.01729,1.468162 -2.91201,1.549068 -2.80118,1.627025 -2.68503,1.701885 -2.56377,1.773506 -2.43762,1.84175 -2.30683,1.906489 -2.17166,1.967599 -2.03234,2.024963 -1.88916,2.078472 -1.74239,2.128026 -1.5923,2.173527 -1.43917,2.214893 -1.28331,2.252041 -1.125,2.284902 -0.96455,2.313415 -0.80227,2.337519 -0.63846,2.35719 -0.47343,2.37235 -0.30751,2.38301 -0.14099,2.38913 0.0258,2.3907 0.19252,2.38773 0.35889,2.3802 0.52457,2.36814 0.68925,2.35158 0.85263,2.330539 1.01437,2.30507 1.17419,2.27521 1.33178,2.241 1.48682,2.20255 1.63904,2.1599 1.78814,2.11313 1.93383,2.06235 2.07585,2.00763 2.2139,1.9491 2.34776,1.88685 2.47713,1.82102 2.60179,1.75171 2.7215,1.67908 2.83603,1.60325 2.94517,1.52436 3.04868,1.44257 3.14641,1.35804 3.23814,1.27092 3.3237,1.18139 3.40295,1.08959 3.47571,0.99574 3.54186,0.89998 3.60126,0.80252 3.65381,0.70352 3.69941,0.60318 3.73795,0.50169 3.7694,0.39926 3.79365,0.29606 3.8107,0.1923 3.82048,0.0882 3.823,-0.0161 3.81823,-0.12039 3.8062,-0.22443 3.78693,-0.32804 3.76043,-0.43102 3.7268,-0.53319 3.68605,-0.63434 3.6383,-0.73427 3.58363,-0.83283 3.52211,-0.92978 3.45392,-1.02497 3.37913,-1.11821 3.29791,-1.20932 3.21043,-1.29812 3.11682,-1.38446 3.01729,-1.46816 2.91201,-1.54907 2.80118,-1.62703 2.68503,-1.70188 2.56377,-1.77351 2.43762,-1.84175 2.30683,-1.90649 2.17166,-1.9676 2.03234,-2.02496 1.88916,-2.07847 1.74239,-2.12803 1.5923,-2.17352 1.43917,-2.2149 1.28331,-2.25204 1.125,-2.2849 0.96455,-2.31341 0.80227,-2.337529 0.63846,-2.35718 0.47343,-2.37235 0.30751,-2.38301 0.14099,-2.38913 -0.0258,-2.39071 -0.19252,-2.38772 -0.35889,-2.3802 -0.52457,-2.36814 -0.68925,-2.35159 -0.85263,-2.330538 -1.01437,-2.305067 -1.17419,-2.275203 -1.33178,-2.241009 -1.48682,-2.20255 -1.63904,-2.159896 -1.78814,-2.113132 -1.93383,-2.062345 -2.07585,-2.007632 -2.2139,-1.949099 -2.34776,-1.886854 -2.47713,-1.821017 -2.60179,-1.751716 -2.7215,-1.679078 -2.83603,-1.603244 -2.94517,-1.52436 -3.04868,-1.442572 -3.14641,-1.35804 -3.23814,-1.270922 -3.3237,-1.181384 -3.40295,-1.089599 -3.47571,-0.995738 -3.54186,-0.899983 -3.60126,-0.802513 -3.65381,-0.703517 -3.69941,-0.603182 -3.73795,-0.501698 -3.7694,-0.399259 -3.79365,-0.29606 -3.8107,-0.192297 -3.82048,-0.08817 -3.823,0.01613 -3.81823,0.120393 -3.8062,0.224429 -3.78693,0.328038 m 6.84959,17.613692 -1.90923,0.218836 -1.89214,0.270706 -1.87146,0.322062 -1.84721,0.372803 -1.81946,0.422835 -1.78822,0.472063 -1.7536,0.520391 -1.71563,0.567729 -1.6744,0.613987 -1.62997,0.659075 -1.58246,0.702909 -1.53191,0.745406 -1.47847,0.786482 -1.4222,0.826062 -1.36322,0.86407 -1.30166,0.900433 -1.23761,0.935081 -1.17121,0.96795 -1.10258,0.998976 -1.03185,1.0281 -0.95915,1.055268 -0.88463,1.080427 -0.80843,1.103529 -0.73069,1.12453 -0.65155,1.143391 -0.57118,1.160076 -0.48972,1.174551 -0.40732,1.186792 -0.32415,1.196773 -0.24037,1.204479 -0.15613,1.20988 -0.0716,1.21299 0.0131,1.2138 0.0978,1.21227 0.18221,1.20846 0.26633,1.20234 0.34994,1.19393 0.43289,1.18325 0.51502,1.17031 0.59615,1.15515 0.67616,1.13779 0.75488,1.11827 0.83216,1.0966 0.90786,1.07287 0.98184,1.04708 1.05393,1.0193 1.12403,0.98958 1.19198,0.95799 1.25768,0.92455 1.32096,0.88937 1.38174,0.852489 1.43989,0.81399 1.4953,0.77394 1.54786,0.73241 1.59747,0.68949 1.64405,0.64527 1.68749,0.5998 1.72772,0.55321 1.76467,0.50555 1.79824,0.45693 1.82841,0.40745 1.85509,0.35718 1.87824,0.30624 1.89781,0.25472 1.91377,0.20271 1.92609,0.15032 1.93474,0.0976 1.93971,0.0448 1.94099,-0.008 1.93856,-0.0611 1.93246,-0.11395 1.92267,-0.16655 1.90923,-0.21883 1.89214,-0.27071 1.87146,-0.32206 1.84721,-0.3728 1.81946,-0.42284 1.78822,-0.47206 1.7536,-0.52039 1.71563,-0.56773 1.6744,-0.61399 1.62997,-0.65907 1.58246,-0.70291 1.53191,-0.74541 1.47847,-0.78648 1.4222,-0.826059 1.36322,-0.86407 1.30166,-0.90044 1.23761,-0.93508 1.17121,-0.96795 1.10258,-0.99897 1.03185,-1.0281 0.95915,-1.05527 0.88463,-1.08043 0.80843,-1.10353 0.73069,-1.12453 0.65155,-1.14339 0.57118,-1.16007 0.48972,-1.17456 0.40732,-1.18679 0.32415,-1.19677 0.24037,-1.20448 0.15613,-1.20988 0.0716,-1.21299 -0.0131,-1.2138 -0.0978,-1.21228 -0.18221,-1.208452 -0.26633,-1.202338 -0.34994,-1.193929 -0.43289,-1.183248 -0.51502,-1.170313 -0.59615,-1.155151 -0.67616,-1.13779 -0.75488,-1.118264 -0.83216,-1.096608 -0.90786,-1.072865 -0.98184,-1.04708 -1.05393,-1.019302 -1.12403,-0.989583 -1.19198,-0.957981 -1.25768,-0.924555 -1.32096,-0.889369 -1.38174,-0.85249 -1.43989,-0.813989 -1.4953,-0.773937 -1.54786,-0.732414 -1.59747,-0.689495 -1.64405,-0.645264 -1.68749,-0.599804 -1.72772,-0.553204 -1.76467,-0.505549 -1.79824,-0.456933 -1.82841,-0.407447 -1.85509,-0.357185 -1.87824,-0.306244 -1.89781,-0.254718 -1.91377,-0.202709 -1.92609,-0.150314 -1.93474,-0.09763 -1.93971,-0.04476 -1.94099,0.0082 -1.93856,0.06113 -1.93246,0.113945 -1.92267,0.16655"
     style="display:inline;fill:none;stroke:#777777;stroke-width:1px;stroke-opacity:1"
     id="path19"
     inkscape:connector-curvature="0" />
</svg>
