<?xml version="1.0" encoding="UTF-8" standalone="no"?>
<svg
   xmlns:dc="http://purl.org/dc/elements/1.1/"
   xmlns:cc="http://creativecommons.org/ns#"
   xmlns:rdf="http://www.w3.org/1999/02/22-rdf-syntax-ns#"
   xmlns:svg="http://www.w3.org/2000/svg"
   xmlns="http://www.w3.org/2000/svg"
   xmlns:xlink="http://www.w3.org/1999/xlink"
   xmlns:sodipodi="http://sodipodi.sourceforge.net/DTD/sodipodi-0.dtd"
   xmlns:inkscape="http://www.inkscape.org/namespaces/inkscape"
   width="553.40033"
   height="535.40033"
   version="1.1"
   id="svg2"
   inkscape:version="0.91 r13725"
   sodipodi:docname="rotate.svg"
   inkscape:export-filename="/Users/dramos/Taller/soejs/svg_exports/rotate.png"
   inkscape:export-xdpi="8.76509"
   inkscape:export-ydpi="8.76509">
  <metadata
     id="metadata28">
    <rdf:RDF>
      <cc:Work
         rdf:about="">
        <dc:format>image/svg+xml</dc:format>
        <dc:type
           rdf:resource="http://purl.org/dc/dcmitype/StillImage" />
        <dc:title />
      </cc:Work>
    </rdf:RDF>
  </metadata>
  <sodipodi:namedview
     pagecolor="#ffffff"
     bordercolor="#666666"
     borderopacity="1"
     objecttolerance="10"
     gridtolerance="10"
     guidetolerance="10"
     inkscape:pageopacity="0"
     inkscape:pageshadow="2"
     inkscape:window-width="847"
     inkscape:window-height="480"
     id="namedview26"
     showgrid="false"
     fit-margin-top="20"
     fit-margin-left="20"
     fit-margin-right="20"
     fit-margin-bottom="2"
     inkscape:zoom="0.39333333"
     inkscape:cx="84.751016"
     inkscape:cy="258.70017"
     inkscape:window-x="205"
     inkscape:window-y="99"
     inkscape:window-maximized="0"
     inkscape:current-layer="svg2" />
  <defs
     id="defs4">
    <path
       id="sphere"
       d="m 457.5,556.2 -13.40847,-0.35111 -13.37172,-1.05238 -13.29832,-1.75076 -13.18847,-2.44433 -13.04246,-3.13122 -12.86071,-3.80952 -12.64372,-4.47737 -12.39206,-5.13296 -12.10644,-5.77448 -11.78763,-6.40016 -11.43652,-7.00831 -11.05406,-7.59725 -10.6413,-8.16535 -10.19938,-8.7111 -9.7295,-9.23294 -9.23294,-9.7295 -8.7111,-10.19938 -8.16535,-10.6413 -7.59725,-11.05406 -7.00831,-11.43652 -6.40016,-11.78763 -5.77448,-12.10644 -5.13296,-12.39206 -4.47737,-12.64372 -3.80952,-12.86071 -3.13122,-13.04246 -2.44433,-13.18847 -1.75076,-13.29832 -1.05238,-13.37172 L 201.3,300 l 0.35111,-13.40847 1.05238,-13.37172 1.75076,-13.29832 2.44433,-13.18847 3.13122,-13.04246 3.80952,-12.86071 4.47737,-12.64372 5.13296,-12.39206 5.77448,-12.10644 6.40016,-11.78763 7.00831,-11.43652 7.59725,-11.05406 8.16535,-10.6413 8.7111,-10.19938 9.23294,-9.7295 9.7295,-9.23294 10.19938,-8.7111 10.6413,-8.165354 11.05406,-7.597246 11.43652,-7.008308 11.78763,-6.400163 12.10644,-5.774475 12.39206,-5.132959 12.64372,-4.477374 12.86071,-3.809518 13.04246,-3.131218 13.18847,-2.444338 13.29832,-1.750757 13.37172,-1.052377 L 457.5,43.8 l 13.40847,0.351113 13.37172,1.052377 13.29832,1.750757 13.18847,2.444338 13.04246,3.131218 12.86071,3.809518 12.64372,4.477374 12.39206,5.132959 12.10644,5.774475 11.78763,6.400163 11.43652,7.008308 11.05406,7.597246 10.6413,8.165354 10.19938,8.7111 9.7295,9.23294 9.23294,9.7295 8.7111,10.19938 8.16535,10.6413 7.59725,11.05406 7.00831,11.43652 6.40016,11.78763 5.77448,12.10644 5.13296,12.39206 4.47737,12.64372 3.80952,12.86071 3.13122,13.04246 2.44433,13.18847 1.75076,13.29832 1.05238,13.37172 L 713.7,300 l -0.35111,13.40847 -1.05238,13.37172 -1.75076,13.29832 -2.44433,13.18847 -3.13122,13.04246 -3.80952,12.86071 -4.47737,12.64372 -5.13296,12.39206 -5.77448,12.10644 -6.40016,11.78763 -7.00831,11.43652 -7.59725,11.05406 -8.16535,10.6413 -8.7111,10.19938 -9.23294,9.7295 -9.7295,9.23294 -10.19938,8.7111 -10.6413,8.16535 -11.05406,7.59725 -11.43652,7.00831 -11.78763,6.40016 -12.10644,5.77448 -12.39206,5.13296 -12.64372,4.47737 -12.86071,3.80952 -13.04246,3.13122 -13.18847,2.44433 -13.29832,1.75076 -13.37172,1.05238 L 457.5,556.2 Z"
       style="display:inline"
       inkscape:connector-curvature="0" />
  </defs>
  <use
     class="stroke"
     xlink:href="#sphere"
     style="display:inline;fill:none;stroke:#000000"
     id="use7"
     x="0"
     y="0"
     width="100%"
     height="100%"
     transform="translate(-180.79983,-23.299829)" />
  <use
     class="fill"
     xlink:href="#sphere"
     style="display:inline;fill:#ffffff;fill-opacity:1"
     id="use9"
     x="0"
     y="0"
     width="100%"
     height="100%"
     transform="translate(-180.79983,-23.299829)"
     inkscape:export-xdpi="17.564404"
     inkscape:export-ydpi="17.564404" />
  <path
     d="m 167.22178,168.07251 0.61009,-12.74291 0.96028,-12.3525 1.30738,-11.92235 1.65028,-11.45387 1.98787,-10.94853 2.31907,-10.407979 2.6428,-9.83395 2.95803,-9.22828 -10.32634,2.0025 -10.10978,2.40435 10.53149,-8.702317 10.86433,-8.062277 11.1627,-7.396669 11.42568,-6.707606 6.6579,3.882231 6.86353,4.580255 7.04739,5.263755 7.20889,5.93056 -11.30564,0.941592 -11.19256,1.359611 -2.06082,9.088105 -1.84121,9.7087 -1.61567,10.298079 -1.38492,10.85433 -1.14973,11.37566 -0.91084,11.8604 -0.66901,12.30699 -0.42504,12.714 13.95361,-1.75187 14.15309,-1.38197 14.30724,-1.00765 14.41562,-0.63009 14.47785,-0.25053 14.49375,0.12985 14.46324,0.50979 14.38645,0.88812 -0.49077,-23.11101 11.31751,10.16437 11.13116,10.65766 10.90266,11.1106 10.63287,11.52146 -21.53553,18.4646 -22.44867,19.65265 0.49077,-25.69218 -14.38645,-0.51383 -14.46324,-0.24159 -14.49375,0.0314 -14.47785,0.30434 -14.41562,0.57628 -14.30724,0.84637 -14.15309,1.11377 -13.95361,1.37758 0.42504,13.7999 0.66901,14.01622 0.91084,14.18745 1.14973,14.31304 1.38492,14.39259 1.61567,14.42584 1.84121,14.4127 2.06082,14.35318 22.4982,-2.3012 -14.25628,24.05498 -13.52143,23.36279 -11.42568,-8.75074 -11.1627,-8.97026 -10.86433,-9.16134 -10.53149,-9.32337 20.43612,-4.40684 -2.95803,-14.21301 -2.6428,-14.28745 -2.31907,-14.31595 -1.98787,-14.29838 -1.65028,-14.23484 -1.30738,-14.12549 -0.96028,-13.97071 -0.61009,-13.77099 -12.90826,2.81931 -12.51654,3.05309 -12.08475,3.27711 -11.61428,3.49062 -11.10663,3.69297 -10.563439,3.88351 -9.98643,4.0616 -9.37747,4.2267 1.0042,12.56064 1.54864,12.65601 -8.13733,-6.917 -7.36014,-6.80696 -6.55507,-6.67115 -5.72517,-6.51008 2.75742,-7.06518 2.96775,-7.01205 3.17528,-6.95228 3.37979,-6.88592 3.58111,-6.81303 3.77903,-6.73371 3.97337,-6.648 4.16396,-6.55599 -1.54864,11.66713 -1.0042,11.91941 9.37747,-4.60098 9.98643,-4.32981 10.563439,-4.04477 11.10663,-3.74679 11.61428,-3.43681 12.08475,-3.11583 12.51654,-2.78489 12.90826,-2.44502"
     style="display:inline"
     id="path19"
     inkscape:connector-curvature="0" />
  <path
     class="graticule"
     d="m 276.70017,511.57551 5.10243,4.85895 5.08716,4.14188 5.05668,3.41239 5.01108,2.67272 4.95049,1.92504 4.87508,1.1716 4.7851,0.41467 4.68081,-0.34351 m -39.54883,-18.25374 -13.03313,1.68562 -12.99422,0.97924 -12.91649,0.26993 -12.8002,-0.44017 -12.6457,-1.14897 -12.45343,-1.85434 -12.22396,-2.55416 -11.95802,-3.24637 -11.65634,-3.92887 -11.31988,-4.59965 -10.9496,-5.25669 -10.54663,-5.89803 -10.11217,-6.52176 -9.64752,-7.12603 -9.15405,-7.709 -8.633249,-8.26896 m 183.044589,55.61821 -4.57946,-4.95914 -4.56843,-5.51302 -4.54639,-6.05363 -4.51339,-6.57966 -4.46954,-7.08982 -4.4149,-7.58292 -4.34964,-8.05774 -4.27389,-8.51316 -4.18785,-8.94805 -4.09171,-9.36141 -3.98573,-9.7522 -3.87014,-10.1195 -3.74522,-10.46242 -3.61129,-10.78014 -3.46865,-11.07188 -3.31766,-11.33696 -3.15868,-11.57472 -2.99208,-11.7846 -2.81827,-11.96608 -2.63769,-12.11875 -2.45073,-12.24221 -2.25789,-12.33618 -2.0596,-12.40043 -1.85634,-12.43482 -1.64862,-12.43923 -1.43693,-12.4137 -1.22177,-12.35824 -1.00367,-12.27302 -0.78314,-12.15823 -0.56075,-12.01415 -0.33699,-11.84113 -0.11241,-11.63958 0.23398,-16.38235 0.70078,-15.82235 1.16406,-15.18301 1.62151,-14.46755 2.07083,-13.67953 2.50975,-12.822939 2.93611,-11.90204 3.34772,-10.921458 3.74257,-9.886122 2.01356,-4.539109 2.10508,-4.262106 2.19397,-3.979756 2.28009,-3.692418 2.36337,-3.400449 2.44368,-3.104216 2.52093,-2.804091 2.59501,-2.50045 2.66584,-2.193673 2.73332,-1.884145 2.79739,-1.572255 2.85794,-1.258394 2.91491,-0.942954 2.96822,-0.626332 m 39.54883,488.004417 11.70736,-2.11207 11.67914,-2.67282 11.62281,-3.22713 11.53847,-3.77366 11.42632,-4.3111 11.28667,-4.83816 11.11981,-5.35356 10.92616,-5.85607 10.7062,-6.34446 10.46044,-6.81757 10.18948,-7.27426 9.89398,-7.71343 9.57464,-8.134 9.23223,-8.53499 8.86758,-8.91542 8.48156,-9.27436 8.07513,-9.61096 7.64923,-9.92441 7.2049,-10.21396 6.74322,-10.47889 6.26529,-10.71857 5.77227,-10.93245 5.26534,-11.11998 4.74574,-11.28071 4.21468,-11.41429 3.67349,-11.52035 3.12344,-11.59867 2.56587,-11.64903 2.00211,-11.67135 1.43354,-11.66553 0.8615,-11.63163 0.2874,-11.56969 -0.22594,-10.18402 -0.67742,-10.09413 -1.1276,-9.98512 -1.57565,-9.8572 -2.02072,-9.71061 -2.46195,-9.54562 -2.89853,-9.36256 -3.32961,-9.16177 -3.7544,-8.94361 -4.17206,-8.70854 -4.58182,-8.45695 -4.98292,-8.18936 -5.37457,-7.90624 -5.75604,-7.60817 -6.12661,-7.29567 -6.48557,-6.969369 M 20.500171,276.70017 l 0.0504,-2.02971 0.46545,-4.46088 0.95216,-4.44854 1.43706,-4.42771 1.91922,-4.39845 2.39773,-4.36083 2.87167,-4.31491 3.34015,-4.26077 3.80227,-4.19852 4.25715,-4.12827 4.70392,-4.05018 5.14176,-3.96437 5.56978,-3.87101 5.98722,-3.77028 6.39326,-3.66238 6.78712,-3.54751 7.16807,-3.42589 7.53537,-3.29773 7.88833,-3.16331 8.226269,-3.02286 8.54856,-2.87666 8.85456,-2.72499 9.14372,-2.56812 9.41547,-2.40637 9.66929,-2.24003 9.90472,-2.06944 10.12128,-1.8949 10.31859,-1.71676 10.49624,-1.53534 10.65391,-1.35102 10.79132,-1.1641 10.90817,-0.97499 11.00426,-0.784 11.07941,-0.59154 11.13346,-0.39794 11.16632,-0.20358 11.17792,-0.009 11.16826,0.18592 11.13732,0.38031 11.08518,0.574 11.01196,0.76659 10.91775,0.95771 10.80278,1.14702 10.66723,1.33414 10.51139,1.51873 10.33553,1.70041 10.14,1.87887 9.92517,2.05375 9.69143,2.22471 9.43927,2.39145 9.16912,2.55363 8.88152,2.71096 8.57702,2.86311 8.25619,3.00982 7.91965,3.1508 7.56802,3.28578 7.20199,3.41452 6.82226,3.53674 6.42953,3.65223 6.02457,3.76078 5.60814,3.86217 5.18104,3.9562 4.74406,4.0427 4.29806,4.12151 3.84389,4.19246 3.38238,4.25545 2.91445,4.31033 2.44096,4.35701 1.96284,4.39538 1.48096,4.4254 0.99628,4.44699 0.5097,4.46012 0.0725,2.43519 m -247.43427,248.72862 3.01008,3.07055 2.96639,2.13653 1.46338,0.7154 1.44834,0.47919 1.43197,0.24255 1.41426,0.006 m -19.44153,-6.30657 0.70078,5.33427 0.34178,1.33784 0.33444,0.44437 m -9.11627,-7.31295 -2.26502,3.08705 -2.23269,2.1761 -2.19227,1.25728 -1.07849,0.28253 -1.06543,0.0514 m 1.29762,-7.58462 -2.5768,1.6259 -2.55954,1.36928 -2.53966,1.11124 -2.51716,0.85207 -2.49209,0.59202 -2.46444,0.33136 -2.43427,0.0704 -2.4016,-0.19071 m 12.88125,-7.00342 -4.31191,1.54707 -4.2791,1.22904 -4.24081,0.90942 -4.19709,0.58866 -4.14799,0.26712 -4.0936,-0.0547 -4.03396,-0.37654 -3.96915,-0.69785 m 26.81714,-5.12795 -6.55604,1.37054 -6.49612,0.94018 -6.42484,0.50816 -6.34237,0.0753 -6.2488,-0.35777 -6.14435,-0.79018 -6.02916,-1.2212 -5.90344,-1.6501 m 44.53266,-1.01241 -9.61833,1.00041 -9.5063,0.36468 -9.3695,-0.27202 -9.20829,-0.908 -9.0231,-1.54162 -8.81439,-2.17122 -8.58274,-2.79517 -8.32873,-3.41183 m 67.85346,7.24044 -7.01311,0.25262 -6.96513,-0.004 -6.90973,-0.2608 -6.84697,-0.51724 -6.7769,-0.77313 -6.69961,-1.02818 -6.61519,-1.28214 -6.52369,-1.53474 -6.42526,-1.78571 -6.31997,-2.03475 -6.20794,-2.28165 -6.0893,-2.5261 -5.96417,-2.76786 -5.83267,-3.00667 -5.69496,-3.24228 -5.55117,-3.47443 m 96.80732,20.51977 -7.48892,-0.74355 -7.44182,-0.95929 -7.38785,-1.17414 -7.32707,-1.38793 -7.25955,-1.60042 -7.18533,-1.81145 -7.10449,-2.0208 -7.0171,-2.22829 -6.92324,-2.43373 -6.823,-2.63692 -6.71647,-2.83768 -6.60375,-3.03583 -6.48495,-3.23118 -6.36016,-3.42354 -6.22952,-3.61277 -6.09313,-3.79865 -5.95112,-3.98103 -5.80364,-4.15975 -5.6508,-4.33463 -5.492749,-4.50551 -5.32964,-4.67224 -5.16162,-4.83468 -4.98884,-4.99264 -4.81146,-5.146 -4.62965,-5.29463 -4.44357,-5.43838 -4.25339,-5.57711 -4.0593,-5.71069 -3.86146,-5.83903 -3.66006,-5.96197 -3.45529,-6.07942 -3.24734,-6.19127 m 184.386759,116.57673 -10.53363,-1.81271 -10.43694,-2.21683 -10.3219,-2.61708 -10.18872,-3.0127 -10.03763,-3.40304 -9.8689,-3.7874 -9.68282,-4.16509 -9.47972,-4.53548 -9.25996,-4.89788 -9.02393,-5.25167 -8.77203,-5.59624 -8.5047,-5.93097 -8.22245,-6.25527 -7.925719,-6.56858 -7.61507,-6.87034 -7.29104,-7.16003 -6.95419,-7.43713 -6.60511,-7.70116 -6.24443,-7.95165 -5.87277,-8.18817 -5.49078,-8.41029 -5.09916,-8.61764 -4.69855,-8.80982 -4.2897,-8.98654 -3.8733,-9.14744 -3.4501,-9.29228 -3.02083,-9.42078 -2.58625,-9.53273 -2.14713,-9.6279 -1.70423,-9.70617 -1.25834,-9.76737 -0.81023,-9.81141 m 211.762119,213.39853 -12.18679,-3.01922 -12.05148,-3.56276 -11.88711,-4.09772 -11.69413,-4.62279 -11.47297,-5.13674 -11.22416,-5.63831 -10.94832,-6.1263 -10.6461,-6.59953 -10.31824,-7.05686 -9.96551,-7.49719 -9.58878,-7.91945 -9.18896,-8.32264 -8.766979,-8.70579 -8.3239,-9.06795 -7.86075,-9.40827 -7.37868,-9.72592 -6.87882,-10.02015 -6.36239,-10.29024 -5.83064,-10.53553 -5.28484,-10.75544 -4.72631,-10.94945 -4.15639,-11.11707 -3.57646,-11.25792 -2.98792,-11.37164 -2.39216,-11.45796 -1.79066,-11.51669 -1.18484,-11.54767 -0.57616,-11.55083 0.0339,-11.52615 0.64389,-11.47373 1.25232,-11.39365 1.85773,-11.28612 1.92313,-8.95003 2.30623,-8.84963 2.68578,-8.73554 3.06116,-8.60791 m 197.314609,316.69061 -11.68022,-3.85326 -11.55053,-4.38754 -11.393,-4.91124 -11.20804,-5.42312 -10.99606,-5.92193 -10.75761,-6.40647 -10.49323,-6.87558 -10.20357,-7.32812 -9.88933,-7.76302 -9.55128,-8.1792 -9.1902,-8.57569 -8.807,-8.95152 -8.40256,-9.30578 -7.977889,-9.63761 -7.53401,-9.94625 -7.07196,-10.2309 -6.59289,-10.49093 -6.09793,-10.72566 -5.58828,-10.93457 -5.06516,-11.11712 -4.52985,-11.27291 -3.98362,-11.40153 -3.4278,-11.50268 -2.86371,-11.57613 -2.29273,-11.62168 -1.71623,-11.63923 -1.13559,-11.62876 -0.55221,-11.59026 0.0325,-11.52383 0.61712,-11.42966 1.20026,-11.30794 1.78051,-11.15899 1.30541,-6.43203 1.50049,-6.36687 1.69432,-6.29649 1.88677,-6.22094 2.07768,-6.14029 2.26687,-6.0546 2.45421,-5.96395 2.63954,-5.86839 2.8227,-5.76803 3.00353,-5.66293 3.18192,-5.55319 3.35769,-5.43889 3.5307,-5.32013 3.70082,-5.19701 3.86789,-5.06961 4.03181,-4.93807 m 156.708939,388.07288 -10.81875,-4.63949 -10.69863,-5.16504 -10.55272,-5.67814 -10.38139,-6.17756 -10.18506,-6.66211 -9.96418,-7.1306 -9.71931,-7.58191 -9.45101,-8.01495 -9.15995,-8.4287 -8.84683,-8.82213 -8.51238,-9.19431 -8.15744,-9.54435 -7.78284,-9.87138 -7.38949,-10.17463 -6.978329,-10.45338 -6.55038,-10.70694 -6.10663,-10.93471 -5.64818,-11.13614 -5.17612,-11.31073 -4.69158,-11.45808 -4.19575,-11.57782 -3.68982,-11.66968 -3.17498,-11.73342 -2.6525,-11.76889 -2.12363,-11.77601 -1.58965,-11.75476 -1.05183,-11.70519 -0.51148,-11.62743 0.0301,-11.52165 0.57161,-11.38812 1.11174,-11.22715 1.64919,-11.03913 1.7939,-9.09039 2.16583,-8.92415 2.5341,-8.7428 2.89808,-8.54665 3.25714,-8.33603 3.61069,-8.11129 3.95813,-7.87281 4.29887,-7.62101 4.63232,-7.35629 4.95793,-7.07913 5.27516,-6.789979 5.583429,-6.48933 5.88227,-6.17768 6.17114,-5.85559 6.44956,-5.523573 6.71705,-5.182205 m 116.50821,426.994557 -9.62856,-5.35403 -9.52165,-5.87164 -9.39179,-6.3751 -9.23932,-6.86322 -9.06458,-7.33479 -8.86801,-7.78869 -8.65006,-8.22383 -8.41129,-8.63916 -8.15225,-9.03368 -7.87357,-9.40643 -7.57592,-9.75652 -7.26003,-10.08311 -6.92663,-10.3854 -6.57656,-10.66268 -6.21063,-10.91427 -5.82976,-11.13957 -5.43483,-11.33803 -5.02681,-11.50917 -4.606679,-11.6526 -4.17546,-11.76794 -3.73417,-11.85494 -3.28389,-11.91337 -2.82569,-11.94311 -2.3607,-11.94408 -1.89001,-11.91627 -1.41476,-11.85975 -0.93612,-11.77467 -0.45522,-11.66121 0.0268,-11.51966 0.50872,-11.35036 0.98944,-11.15373 1.46776,-10.93021 1.94704,-10.70208 2.41908,-10.42533 2.88526,-10.12334 3.34447,-9.79687 3.79559,-9.4467 4.23753,-9.07368 4.669209,-8.67871 5.0896,-8.262739 5.49767,-7.82679 5.89246,-7.37191 6.27298,-6.899181 6.63833,-6.409778 6.98763,-5.904864 7.32001,-5.385667 7.6347,-4.853442 7.93091,-4.309476 m 85.12127,447.150017 -8.14582,-5.97516 -8.05536,-6.48587 -7.9455,-6.98096 -7.81651,-7.45924 -7.66868,-7.91953 -7.50238,-8.36076 -7.318,-8.78184 -7.11599,-9.18177 -6.89685,-9.55957 -6.66107,-9.91434 -6.40927,-10.24524 -6.14202,-10.55144 -5.85996,-10.83224 -5.5638,-11.08693 -5.25424,-11.31491 -4.932,-11.51564 -4.59789,-11.68863 -4.25271,-11.83345 -3.89728,-11.94976 -3.53245,-12.0373 -3.15913,-12.09582 -2.77819,-12.12522 -2.39055,-12.12539 -1.99716,-12.09637 -1.59895,-12.03819 -1.1969,-11.95101 -0.79197,-11.83506 -0.38511,-11.69057 0.0227,-11.51794 0.43038,-11.31755 0.83707,-11.08989 1.24173,-10.83553 1.84496,-11.67817 2.33269,-11.29926 2.81353,-10.88692 3.28603,-10.44237 3.74882,-9.96695 4.20052,-9.462039 4.6398,-8.92913 5.06535,-8.36983 5.47592,-7.785754 5.87029,-7.178656 6.24729,-6.550324 6.60583,-5.902615 6.94481,-5.237447 7.26325,-4.556786 7.56022,-3.862648 7.83482,-3.157083 m 61.84456,457.822572 -6.41556,-6.484 -6.34432,-6.98908 -6.25779,-7.4773 -6.1562,-7.94751 -6.03977,-8.39858 -5.9088,-8.82942 -5.76358,-9.23897 -5.60448,-9.62629 -5.43188,-9.9904 -5.2462,-10.33045 -5.04787,-10.64561 -4.83738,-10.93512 -4.61525,-11.19829 -4.38199,-11.43449 -4.13818,-11.64313 -3.88439,-11.82374 -3.62125,-11.97584 -3.34939,-12.09911 -3.06946,-12.19322 -2.78212,-12.25796 -2.4881,-12.29316 -2.18807,-12.29877 -1.88277,-12.27472 -1.57294,-12.22113 -1.25932,-12.13807 -0.94267,-12.02578 -0.62374,-11.88453 -0.30331,-11.71463 0.0179,-11.51652 0.33896,-11.29066 0.65927,-11.03761 0.97797,-10.75796 1.55623,-12.26923 1.9893,-11.80497 2.41573,-11.30131 2.83408,-10.75995 3.243,-10.182649 3.64108,-9.5714 4.027,-8.928177 4.3995,-8.255174 4.75731,-7.554615 5.09924,-6.828844 5.42415,-6.080282 5.73096,-5.311428 2.9746,-2.361753 3.04405,-2.163095 3.11096,-1.962633 3.17528,-1.760533 3.23695,-1.556963 3.29591,-1.352095 3.35213,-1.146098 3.40555,-0.939145 m 51.83881,462.814254 -4.8305,-14.71197 -4.69957,-16.63011 -4.52337,-18.38811 -4.30361,-19.96901 -4.0424,-21.3576 -3.74227,-22.54052 -3.40608,-23.50634 -3.03711,-24.24579 -2.63888,-24.75174 -2.21523,-25.01933 -1.77026,-25.04595 -1.30823,-24.83137 -0.8336,-24.37765 -0.35096,-23.68917 0.13508,-22.77254 0.61981,-21.6366 0.62837,-12.80588 0.81173,-12.23658 0.99206,-11.62158 1.16869,-10.963149 1.34095,-10.26379 1.5082,-9.526058 1.66981,-8.752758 1.8252,-7.946757 1.97375,-7.111069 2.11494,-6.248815 2.24822,-5.36322 2.37311,-4.457588 2.48914,-3.535304 2.59586,-2.599813 1.33493,-0.945926 1.35795,-0.708685 1.3797,-0.470785 1.40015,-0.232443 m 19.44153,468.92068 -1.15093,-31.71533 -1.06602,-38.70283 -0.94014,-44.203 -0.77814,-48.00449 -0.58622,-49.96118 -0.37178,-49.99789 -0.14306,-48.11321 0.0912,-44.37958 0.43934,-47.796899 0.77524,-36.367648 0.49968,-13.180906 0.56466,-9.562126 0.62109,-5.798489 0.32879,-1.458162 0.33932,-0.488851 m 9.11627,469.927051 3.68149,-14.79288 3.58169,-16.70885 3.44741,-18.46388 3.27992,-20.04111 3.08085,-21.42533 2.8521,-22.60321 2.59589,-23.5634 2.31468,-24.29667 2.01118,-24.79596 1.6883,-25.05643 1.34917,-25.0756 0.99705,-24.85329 0.63531,-24.39162 0.26748,-23.69505 -0.10295,-22.77027 -0.47238,-21.62622 -1.10192,-25.09405 -1.65457,-22.607419 -1.02708,-10.26347 -1.1553,-9.517663 -1.27916,-8.73606 -1.39822,-7.921617 -1.51203,-7.077394 -1.62015,-6.206564 -1.72217,-5.3124 -1.81773,-4.398265 -1.90645,-3.467595 -1.98801,-2.523889 -1.02226,-0.90495 -1.03982,-0.665744 -1.05641,-0.425913 -1.07201,-0.185682 m -1.29762,470.198715 3.93911,-6.94525 3.89538,-7.44521 3.84225,-7.9272 3.77987,-8.39012 3.70839,-8.83281 3.62796,-9.25424 3.53881,-9.65335 3.44112,-10.02922 3.33514,-10.38093 3.22113,-10.70763 6.0695,-22.29144 5.52425,-23.27964 4.92581,-24.04365 4.27994,-24.57611 3.59283,-24.87188 2.87114,-24.92813 2.12179,-24.7443 1.35201,-24.32217 0.5692,-23.66581 -0.21908,-22.78153 -0.40478,-10.9902 -0.60048,-10.68765 -1.00388,-12.68326 -1.29362,-12.14122 -1.57863,-11.55503 -1.85791,-10.926769 -2.13043,-10.25876 -2.39519,-9.55342 -2.65124,-8.813321 -2.89764,-8.041153 -3.1335,-7.239723 -3.35795,-6.411953 -3.57019,-5.560849 -3.76944,-4.689514 -3.95498,-3.801112 -2.04258,-1.562957 -2.08353,-1.335925 -2.12256,-1.107678 -2.15968,-0.878424 -2.19481,-0.648369 -2.22797,-0.417726 m -12.88125,469.617523 5.90752,-6.60116 5.84192,-7.10493 5.76225,-7.59158 5.66871,-8.05993 5.56149,-8.50888 5.44089,-8.93732 5.30717,-9.34423 5.16067,-9.72863 5.00174,-10.08959 4.83076,-10.42625 4.64814,-10.73779 4.45432,-11.02346 4.24978,-11.28258 4.03499,-11.51451 3.81048,-11.7187 3.5768,-11.89467 3.33449,-12.04197 3.08415,-12.16027 2.82639,-12.24927 2.56182,-12.30877 2.29107,-12.3386 2.0148,-12.33872 1.73368,-12.30911 1.44838,-12.24985 1.1596,-12.16107 0.86802,-12.043 0.57434,-11.89591 0.2793,-11.72018 -0.0164,-11.51619 -0.31212,-11.28447 -0.60706,-11.02557 -0.90053,-10.7401 -1.45253,-12.38418 -1.8608,-11.90019 -2.26273,-11.37553 -2.65692,-10.81198 -3.04203,-10.211489 -3.41674,-9.57611 -3.77978,-8.907981 -4.12989,-8.209425 -4.4659,-7.482809 -4.78664,-6.73062 -5.09102,-5.955428 -5.37801,-5.159883 -2.79092,-2.275995 -2.8557,-2.070711 -2.91803,-1.863658 -2.97789,-1.655013 -3.03518,-1.444954 -3.08989,-1.233659 -3.14196,-1.02131 -3.19135,-0.808089 m -26.81714,467.742054 7.69643,-6.12578 7.61097,-6.63481 7.50717,-7.12787 7.38529,-7.60376 7.24562,-8.06133 7.08849,-8.49948 6.91428,-8.91715 6.72342,-9.31334 6.51637,-9.68709 6.2936,-10.0375 6.05569,-10.36375 5.80317,-10.66501 5.53669,-10.94058 5.25686,-11.18981 4.96437,-11.41206 4.65991,-11.60683 4.34424,-11.77364 4.0181,-11.91208 3.68227,-12.02183 3.33758,-12.10261 2.98485,-12.15423 2.62492,-12.17659 2.25867,-12.16959 1.88698,-12.13329 1.51075,-12.06776 1.13087,-11.97315 0.74827,-11.84969 0.36387,-11.6977 -0.0214,-11.51752 -0.40664,-11.30959 -0.79088,-11.07441 -1.17323,-10.81257 -1.78223,-11.87002 -2.26129,-11.46593 -2.7334,-11.02658 -3.1971,-10.55331 -3.65097,-10.04759 -4.09361,-9.510959 -4.52366,-8.94506 -4.93979,-8.351676 -5.34073,-7.732585 -5.72524,-7.089715 -6.09214,-6.425038 -6.44031,-5.740599 -6.76866,-5.038503 -7.0762,-4.32091 -7.36198,-3.590027 -7.6251,-2.848102 M 310.0905,496.2648 l 9.25149,-5.53352 9.14875,-6.04914 9.02399,-6.55019 8.87748,-7.03546 8.70959,-7.50377 8.52072,-7.95401 8.3113,-8.38508 8.08189,-8.79597 7.83299,-9.18565 7.56522,-9.5532 7.27923,-9.89776 6.9757,-10.21845 6.65537,-10.51453 6.319,-10.78528 5.96742,-11.03005 5.60145,-11.24825 5.22198,-11.43934 4.82995,-11.60288 4.42628,-11.73847 4.01193,-11.84578 3.58793,-11.92455 3.15529,-11.9746 2.71503,-11.99579 2.26825,-11.98808 1.81599,-11.9515 1.35936,-11.88613 0.89945,-11.79211 0.43739,-11.6697 -0.0257,-11.51916 -0.4888,-11.34089 -0.95068,-11.13527 -1.41028,-10.90285 -1.94133,-11.01822 -2.42558,-10.71231 -2.90357,-10.37871 -3.37405,-10.01829 -3.83582,-9.632 -4.28768,-9.22081 -4.72845,-8.785809 -5.15702,-8.3281 -5.57225,-7.84887 -5.9731,-7.349369 -6.3585,-6.830873 -6.72748,-6.294729 -7.07907,-5.742323 -7.41238,-5.175078 -7.72654,-4.594463 -8.02072,-4.001977 m -67.85346,455.373671 10.52544,-4.84241 10.40856,-5.36571 10.26662,-5.87607 10.09994,-6.37229 9.90892,-6.85314 9.69404,-7.31749 9.4558,-7.76421 9.19478,-8.19223 8.91161,-8.60051 8.60697,-8.98806 8.2816,-9.35398 7.93628,-9.69734 7.57183,-10.01736 7.18915,-10.31324 6.78914,-10.58427 6.37278,-10.8298 5.94107,-11.04925 5.49505,-11.24208 5.03578,-11.40781 4.56439,-11.54608 4.082,-11.65652 3.58978,-11.73889 3.0889,-11.79297 2.58059,-11.81864 2.06605,-11.81584 1.54655,-11.78458 1.02332,-11.72493 0.49761,-11.63702 -0.0293,-11.52109 -0.55611,-11.37739 -1.08159,-11.2063 -1.60448,-11.0082 -1.86552,-9.61317 -2.27343,-9.41673 -2.677,-9.20232 -3.07546,-8.97032 -3.46804,-8.72119 -3.85399,-8.4554 -4.2326,-8.17347 -4.60311,-7.87592 -4.96483,-7.56334 -5.31708,-7.236299 -5.65916,-6.89545 -5.99043,-6.54143 -6.31027,-6.1749 -6.61806,-5.7966 -6.9132,-5.407215 -7.19514,-5.007505 m -96.80732,442.094339 12.08493,-3.24998 11.95074,-3.79095 11.78775,-4.3228 11.59638,-4.84422 11.37707,-5.35398 11.13034,-5.85084 10.8568,-6.3336 10.55712,-6.80111 10.23199,-7.25224 9.88221,-7.68588 9.50863,-8.10101 9.11214,-8.49664 8.69371,-8.87178 8.25431,-9.22556 7.79505,-9.55712 7.317,-9.86564 6.82132,-10.1504 6.30922,-10.4107 5.7819,-10.64593 5.24067,-10.85552 4.6868,-11.03894 4.12165,-11.19577 3.54656,-11.32564 2.96294,-11.42821 2.37217,-11.50326 1.77569,-11.5506 1.17494,-11.5701 0.57134,-11.56173 -0.0336,-11.52552 -0.6385,-11.46153 -1.24185,-11.36994 -1.84221,-11.25094 -1.48469,-7.09311 -1.72512,-7.02688 -1.96387,-6.95377 -2.20069,-6.87386 -2.43537,-6.78723 -2.66765,-6.69397 -2.89734,-6.59416 -3.12418,-6.4879 m -184.38676,346.03737 11.38634,-2.19446 11.27152,-2.66446 11.13356,-3.129 10.97269,-3.58709 10.78929,-4.03782 10.58371,-4.48024 10.35638,-4.91347 10.10775,-5.33658 9.83837,-5.74874 9.54876,-6.14908 9.23952,-6.53678 8.91129,-6.91104 8.56476,-7.27111 8.20062,-7.61623 7.81962,-7.94569 7.42255,-8.25883 7.01024,-8.55499 6.5835,-8.83357 6.14325,-9.094 5.69036,-9.33573 5.22578,-9.55828 4.75046,-9.76118 4.26538,-9.94403 3.77153,-10.10644 3.26993,-10.24807 2.76161,-10.36864 2.24761,-10.46791 1.72899,-10.54565 1.20683,-10.60174 0.68218,-10.63602 0.15612,-10.64845 -0.37024,-10.63899 m -211.76212,249.21558 8.271,-0.98248 8.2132,-1.24021 8.14631,-1.49658 8.07041,-1.75128 7.98557,-2.00405 7.89192,-2.25461 7.78952,-2.50267 7.67852,-2.74796 7.55901,-2.99021 7.43115,-3.22916 7.29506,-3.46453 7.15091,-3.69606 6.99884,-3.92352 6.83904,-4.14663 6.67166,-4.36515 6.49691,-4.57885 6.31497,-4.78748 6.12605,-4.99081 5.93034,-5.18863 5.72809,-5.3807 5.51948,-5.56682 5.30478,-5.74678 5.08421,-5.9204 4.85802,-6.08744 4.62644,-6.24778 4.38976,-6.40118 4.14821,-6.54752 3.90208,-6.6866 3.65163,-6.8183 3.39714,-6.94244 3.1389,-7.05892 2.87718,-7.16757 m -197.31461,145.9235 11.35514,-0.67898 11.23335,-1.21687 11.08596,-1.75199 10.91337,-2.28312 10.71591,-2.80905 10.49407,-3.32859 10.24835,-3.84056 9.97929,-4.34377 9.68752,-4.83711 9.3737,-5.31943 9.03855,-5.78964 8.68281,-6.24668 8.30732,-6.6895 7.91291,-7.11708 7.50049,-7.52848 7.07101,-7.92273 m -156.70894,74.54122 7.77031,0.11582 7.71229,-0.18154 7.64471,-0.47868 7.56765,-0.77522 7.48123,-1.07079 7.38552,-1.36505 7.28066,-1.65762 7.16679,-1.94812 7.04402,-2.23621 6.91254,-2.52153 6.77247,-2.80373 6.62403,-3.08245 6.46737,-3.35735 6.30269,-3.6281 6.1302,-3.89434 5.95013,-4.15575 m -116.50821,35.61955 10.65281,0.84458 10.51878,0.1265 10.3537,-0.59194 10.15804,-1.30864 9.93241,-2.02147 9.67745,-2.72835 9.39392,-3.42716 9.08266,-4.11585 m -85.12127,15.46409 7.2937,1.29448 7.22291,0.81997 7.13816,0.34386 7.03967,-0.13291 6.92757,-0.60942 6.80212,-1.08475 6.66354,-1.558 6.5121,-2.02824 m -61.84456,4.79153 4.86262,1.51157 4.82394,1.16917 4.77859,0.82516 4.72664,0.48 4.66819,0.13419 4.60326,-0.21181 4.532,-0.55753 4.45448,-0.90246 m -44.39805,-1.0728 -1.82265,0.26661 -1.85004,0.2346 -1.87389,0.20215 -1.89418,0.1693 -1.91087,0.13614 -1.92392,0.10272 -1.93331,0.0691 -1.93901,0.0353 -1.94102,0.002 -1.93935,-0.0323 -1.93398,-0.066 -1.92492,-0.0997 -1.9122,-0.13311 -1.89585,-0.16631 -1.87589,-0.19917 -1.85234,-0.23168 -1.82528,-0.26372 -1.79475,-0.29527 -1.76079,-0.32627 -1.72349,-0.35663 -1.6829,-0.38631 -1.63911,-0.41527 -1.5922,-0.44344 -1.54226,-0.47075 -1.48939,-0.49717 -1.43367,-0.52265 -1.37523,-0.54713 -1.31417,-0.57057 -1.25062,-0.59293 -1.18467,-0.61415 -1.11648,-0.6342 -1.04615,-0.65305 -0.97385,-0.67066 -0.89967,-0.68699 -0.8238,-0.70201 -0.74635,-0.71569 -0.66748,-0.72801 -0.58735,-0.73895 -0.50609,-0.74848 -0.42387,-0.75659 -0.34084,-0.76325 -0.25717,-0.76846 -0.173,-0.77221 -0.0885,-0.7745 -0.004,-0.77529 0.0808,-0.77463 0.16534,-0.77248 0.24955,-0.76886 0.33327,-0.76378 0.41636,-0.75725 0.49866,-0.74928 0.58001,-0.73987 0.66026,-0.72907 0.73924,-0.71687 0.81683,-0.7033 0.89286,-0.68841 0.96718,-0.67219 1.03967,-0.6547 1.11018,-0.63597 1.17857,-0.61602 1.24472,-0.5949 1.3085,-0.57264 1.3698,-0.54931 1.42847,-0.52491 1.48445,-0.49953 1.53757,-0.47319 1.58779,-0.44595 1.63498,-0.41786 1.67906,-0.38898 1.71993,-0.35935 1.75755,-0.32905 1.7918,-0.29811 1.82265,-0.26661 1.85004,-0.2346 1.87389,-0.20214 1.89418,-0.16931 1.91087,-0.13614 1.92392,-0.10272 1.93331,-0.0691 1.93901,-0.0353 1.94102,-0.002 1.93935,0.0323 1.93398,0.066 1.92492,0.0997 1.9122,0.13312 1.89585,0.1663 1.87589,0.19918 1.85234,0.23167 1.82528,0.26373 1.79475,0.29527 1.76079,0.32626 1.72349,0.35663 1.6829,0.38632 1.63911,0.41527 1.5922,0.44343 1.54226,0.47076 1.48939,0.49717 1.43367,0.52265 1.37523,0.54713 1.31417,0.57057 1.25062,0.59292 1.18467,0.61415 1.11648,0.63421 1.04615,0.65305 0.97385,0.67066 0.89967,0.68698 0.8238,0.70201 0.74635,0.71569 0.66748,0.72802 0.58735,0.73895 0.50609,0.74848 0.42387,0.75659 0.34084,0.76325 0.25717,0.76846 0.173,0.77221 0.0885,0.77449 0.004,0.7753 -0.0808,0.77462 -0.16534,0.77248 -0.24955,0.76887 -0.33327,0.76378 -0.41636,0.75725 -0.49866,0.74928 -0.58001,0.73987 -0.66026,0.72907 -0.73924,0.71686 -0.81683,0.70331 -0.89286,0.6884 -0.96718,0.6722 -1.03967,0.6547 -1.11018,0.63597 -1.17857,0.61602 -1.24472,0.59489 -1.3085,0.57265 -1.3698,0.5493 -1.42847,0.52492 -1.48445,0.49952 -1.53757,0.47319 -1.58779,0.44595 -1.63498,0.41786 -1.67906,0.38898 -1.71993,0.35936 -1.75755,0.32904 -1.7918,0.29811 m 15.71406,5.44965 -3.58992,0.52512 -3.64386,0.46208 -3.69084,0.39814 -3.73082,0.33347 -3.76368,0.26814 -3.78938,0.20232 -3.80787,0.1361 -3.8191,0.0696 -3.82308,0.003 -3.81976,-0.0636 -3.80919,-0.13007 -3.79136,-0.19632 -3.76631,-0.26219 -3.73409,-0.32756 -3.69477,-0.3923 -3.64841,-0.45631 -3.5951,-0.51943 -3.53496,-0.58158 -3.46809,-0.64261 -3.3946,-0.70242 -3.31467,-0.7609 -3.22842,-0.81792 -3.13602,-0.87339 -3.03766,-0.9272 -2.93352,-0.97925 -2.82378,-1.02942 -2.70868,-1.07763 -2.58842,-1.12381 -2.46322,-1.16783 -2.33335,-1.20964 -2.19903,-1.24913 -2.06053,-1.28627 -1.91809,-1.32094 -1.77202,-1.3531 -1.62256,-1.38268 -1.47003,-1.40964 -1.31468,-1.43391 -1.15685,-1.45545 -0.9968,-1.47422 -0.83486,-1.49018 -0.67133,-1.50331 -0.50652,-1.51358 -0.34074,-1.52096 -0.17433,-1.52544 -0.008,-1.52704 0.15919,-1.52571 0.32566,-1.52149 0.4915,-1.51437 0.65641,-1.50436 0.82008,-1.49149 0.98217,-1.47578 1.14239,-1.45727 1.30046,-1.43598 1.45603,-1.41195 1.60883,-1.38525 1.75859,-1.35589 1.90498,-1.32396 2.04775,-1.28952 2.18662,-1.2526 2.32133,-1.21332 2.45162,-1.17173 2.57725,-1.12789 2.69797,-1.08191 2.81355,-1.03388 2.92378,-0.98388 3.02844,-0.932 3.12733,-0.87835 3.22028,-0.82302 3.3071,-0.76614 3.38761,-0.70779 3.46168,-0.64809 3.52917,-0.58717 3.58992,-0.52512 3.64386,-0.46207 3.69084,-0.39815 3.73082,-0.33346 3.76368,-0.26815 3.78938,-0.20232 3.80787,-0.1361 3.8191,-0.0696 3.82308,-0.003 3.81976,0.0636 3.80919,0.13008 3.79136,0.19632 3.76631,0.26218 3.73409,0.32756 3.69477,0.3923 3.64841,0.45631 3.5951,0.51943 3.53496,0.58158 3.46809,0.64261 3.3946,0.70242 3.31467,0.7609 3.22842,0.81792 3.13602,0.8734 3.03766,0.9272 2.93352,0.97924 2.82378,1.02942 2.70868,1.07764 2.58842,1.1238 2.46322,1.16783 2.33335,1.20964 2.19903,1.24914 2.06053,1.28626 1.91809,1.32094 1.77202,1.3531 1.62256,1.38268 1.47003,1.40964 1.31468,1.43391 1.15685,1.45545 0.9968,1.47422 0.83486,1.49018 0.67133,1.50331 0.50652,1.51358 0.34074,1.52096 0.17433,1.52545 0.008,1.52703 -0.15919,1.52572 -0.32566,1.52148 -0.4915,1.51437 -0.65641,1.50436 -0.82008,1.49149 -0.98217,1.47579 -1.14239,1.45727 -1.30046,1.43597 -1.45603,1.41196 -1.60883,1.38524 -1.75859,1.35589 -1.90498,1.32397 -2.04775,1.28951 -2.18662,1.25261 -2.32133,1.21332 -2.45162,1.17172 -2.57725,1.12789 -2.69797,1.08192 -2.81355,1.03388 -2.92378,0.98387 -3.02844,0.932 -3.12733,0.87835 -3.22028,0.82303 -3.3071,0.76613 -3.38761,0.70779 -3.46168,0.6481 -3.52917,0.58716 M 192.657,518.72374 l -0.22784,-0.0793 -4.12809,-1.50492 -3.95982,-1.5754 -3.78402,-1.64289 -3.60099,-1.70725 -3.41113,-1.76837 -3.21477,-1.82612 -3.01228,-1.88039 -2.80407,-1.93109 -2.59052,-1.9781 -2.37203,-2.02135 -2.14903,-2.06075 -1.92194,-2.09623 -1.6912,-2.12773 -1.45722,-2.15516 -1.22048,-2.1785 -0.98142,-2.1977 -0.74048,-2.2127 -0.49814,-2.22349 -0.25485,-2.23006 -0.0111,-2.23237 0.23273,-2.23045 0.47608,-2.22426 0.71853,-2.21386 0.95961,-2.19923 1.19886,-2.18041 1.43584,-2.15746 1.67007,-2.13038 1.90113,-2.09926 2.12858,-2.06414 2.35196,-2.02509 2.57088,-1.98218 2.78489,-1.9355 2.99361,-1.88515 3.19663,-1.83119 3.39356,-1.77375 3.58403,-1.71294 3.76769,-1.64887 3.94416,-1.58166 4.11314,-1.51143 4.27428,-1.43833 4.42728,-1.36249 4.57186,-1.28406 4.70773,-1.20319 4.83465,-1.12001 4.95236,-1.03472 5.06064,-0.94745 5.15929,-0.85838 5.24812,-0.76767 5.32696,-0.67551 5.39566,-0.58205 5.45409,-0.48749 5.50213,-0.39201 5.5397,-0.29576 5.56673,-0.19897 5.58316,-0.1018 5.58896,-0.004 5.58413,0.093 5.56866,0.19016 5.54259,0.287 5.50598,0.38329 5.45888,0.47886 5.40138,0.5735 5.33362,0.66708 5.2557,0.75936 5.16776,0.8502 5.07,0.93944 4.96258,1.02687 4.84572,1.11236 4.71963,1.19573 4.58456,1.27681 4.44077,1.35548 4.28851,1.43155 4.12809,1.50491 3.95982,1.5754 3.78402,1.6429 3.60099,1.70725 3.41113,1.76837 3.21477,1.82612 3.01228,1.88039 2.80407,1.93108 2.59052,1.9781 2.37203,2.02135 2.14903,2.06076 1.92194,2.09623 1.6912,2.12773 1.45722,2.15516 1.22048,2.1785 0.98142,2.19769 0.74048,2.2127 0.49814,2.2235 0.25485,2.23006 0.0111,2.23237 -0.23273,2.23045 -0.47608,2.22426 -0.71853,2.21386 -0.95961,2.19922 -1.19886,2.18042 -1.43584,2.15745 -1.67007,2.13039 -1.90113,2.09926 -2.12858,2.06414 -2.35196,2.02508 -2.57088,1.98219 -2.78489,1.9355 -2.99361,1.88514 -3.19663,1.8312 -3.39356,1.77375 -3.58403,1.71294 -3.76769,1.64887 -3.94416,1.58165 -4.11314,1.51144 -0.62171,0.21723 m -224.76963,-27.94528 -3.48556,-2.40427 -3.33031,-2.543 -3.04942,-2.59859 -2.76274,-2.64926 -2.47081,-2.69486 -2.17415,-2.73535 -1.87337,-2.77063 -1.56902,-2.80063 -1.26169,-2.8253 -0.95194,-2.84459 -0.6404,-2.85847 -0.32763,-2.86691 -0.0142,-2.86988 0.29919,-2.86741 0.61204,-2.85946 0.92372,-2.84607 1.23365,-2.82728 1.54123,-2.80309 1.84587,-2.77357 2.14701,-2.73876 2.44405,-2.69876 2.73644,-2.65361 3.02363,-2.6034 3.30505,-2.54824 3.58019,-2.48824 3.84851,-2.42349 4.10951,-2.35414 4.36268,-2.28029 4.60754,-2.20212 4.84365,-2.11974 5.07052,-2.03334 5.28774,-1.94306 5.49491,-1.84908 5.6916,-1.75158 5.87747,-1.65076 6.05215,-1.54678 6.2153,-1.43987 6.36663,-1.33021 6.50584,-1.21802 6.63265,-1.10351 6.74686,-0.9869 6.8482,-0.86841 6.93653,-0.74828 7.01163,-0.6267 7.07341,-0.50395 7.1217,-0.38023 7.15645,-0.2558 7.17757,-0.13086 7.18504,-0.006 7.17881,0.1195 7.15893,0.24446 7.12542,0.36896 7.07835,0.49275 7.0178,0.61561 6.94389,0.73729 6.85677,0.85757 6.75659,0.97622 6.64355,1.093 6.51786,1.20772 6.37977,1.32012 6.22954,1.43002 6.06744,1.53719 5.8938,1.64145 5.70893,1.74256 5.51321,1.84038 5.30697,1.93467 5.09065,2.0253 4.86463,2.11206 4.62936,2.1948 4.38526,2.27338 4.13282,2.34761 3.87252,2.41738 3.60484,2.48256 3.33031,2.54299 3.04942,2.5986 2.76274,2.64925 2.47081,2.69487 2.17415,2.73535 1.87337,2.77062 1.56902,2.80063 1.26169,2.8253 0.95194,2.84459 0.6404,2.85847 0.32763,2.86691 0.0142,2.86989 -0.29919,2.8674 -0.61204,2.85946 -0.92372,2.84608 -1.23365,2.82727 -1.54123,2.80309 -1.84587,2.77357 -2.14701,2.73877 -2.44405,2.69875 -2.73644,2.65361 -3.02363,2.6034 -3.30505,2.54825 -3.58019,2.48824 -0.22222,0.14649 m -323.407249,-34.44694 -0.10339,-0.10536 -2.94459,-3.21161 -2.59106,-3.25987 -2.23259,-3.3019 -1.86989,-3.33766 -1.50362,-3.36706 -1.13448,-3.39005 -0.7632,-3.4066 -0.39045,-3.41664 -0.017,-3.4202 0.35656,-3.41724 0.7294,-3.40777 1.10085,-3.39182 1.47021,-3.36942 1.83676,-3.34059 2.19983,-3.30541 2.5587,-3.26394 2.91271,-3.21625 3.26116,-3.16244 3.603419,-3.10262 3.93881,-3.03688 4.2667,-2.96536 4.58648,-2.88821 4.89752,-2.80554 5.19924,-2.71755 5.49106,-2.62438 5.77243,-2.52621 6.04281,-2.42324 6.30169,-2.31565 6.54857,-2.20365 6.78299,-2.08746 7.00449,-1.96729 7.21267,-1.84339 7.40711,-1.71596 7.58745,-1.58528 7.75336,-1.45158 7.90449,-1.31512 8.04059,-1.17614 8.16137,-1.03493 8.26663,-0.89176 8.35614,-0.74688 8.42976,-0.60058 8.48731,-0.45315 8.52873,-0.30484 8.5539,-0.15595 8.56278,-0.007 8.55538,0.14242 8.53168,0.29134 8.49175,0.43971 8.43564,0.58724 8.36349,0.73365 8.27541,0.87867 8.17157,1.02201 8.05219,1.16341 7.91748,1.30259 7.76769,1.4393 7.60312,1.57326 7.42407,1.70423 7.2309,1.83196 7.02395,1.95619 6.80364,2.07671 6.57038,2.19327 6.32461,2.30566 6.0668,2.41365 5.79744,2.51706 5.51705,2.61567 5.22615,2.7093 4.92531,2.79778 4.61509,2.88092 4.29608,2.95859 3.9689,3.03063 3.63416,3.09688 3.29251,3.15726 2.94459,3.21162 2.59106,3.25986 2.23259,3.3019 1.86989,3.33766 1.50362,3.36706 1.13448,3.39006 0.7632,3.40659 0.39045,3.41665 0.017,3.42019 -0.35656,3.41724 -0.7294,3.40777 -1.10085,3.39183 -1.47021,3.36941 -1.83676,3.34059 -2.19983,3.30541 -2.5587,3.26394 -2.91271,3.21625 -0.39283,0.40256 m -397.392329,-39.89416 -0.68412,-1.07808 -2.11394,-3.77328 -1.69986,-3.80651 -1.28255,-3.83251 -0.8628,-3.85121 -0.44141,-3.86257 -0.0192,-3.86659 0.40309,-3.86324 0.8246,-3.85254 1.24453,-3.83451 1.66209,-3.80918 2.07649,-3.77659 2.48694,-3.73682 2.89266,-3.68993 3.29286,-3.63602 3.6868,-3.5752 4.07372,-3.50755 4.45289,-3.43324 4.82357,-3.3524 5.18509,-3.26516 5.53672,-3.17172 5.877819,-3.07223 6.20773,-2.9669 6.52582,-2.85592 6.8315,-2.73951 7.12416,-2.61787 7.40326,-2.49127 7.66828,-2.3599 7.91869,-2.22406 8.15404,-2.08398 8.37385,-1.93992 8.57774,-1.79219 8.76529,-1.64103 8.93615,-1.48676 9.09001,-1.32964 9.22657,-1.17002 9.34555,-1.00814 9.44675,-0.84436 9.52997,-0.67897 9.59505,-0.51229 9.64186,-0.34462 9.67032,-0.17631 9.68036,-0.008 9.67199,0.16101 9.64521,0.32936 9.60005,0.4971 9.53663,0.66388 9.45505,0.8294 9.35548,0.99335 9.2381,1.1554 9.10313,1.31526 8.95083,1.4726 8.7815,1.62715 8.59544,1.77859 8.39303,1.92667 8.17465,2.07105 7.94069,2.21151 7.69162,2.34775 7.42792,2.47953 7.15007,2.60658 6.85861,2.72868 6.5541,2.84557 6.23711,2.95705 5.90825,3.06291 5.56814,3.16293 5.21743,3.25693 4.85679,3.34473 4.48691,3.42617 4.10848,3.50108 3.72223,3.56933 3.3289,3.63079 2.92923,3.68533 2.52399,3.73285 2.11394,3.77328 1.69986,3.80651 1.28255,3.83251 0.8628,3.85121 0.44141,3.86257 0.0192,3.86659 -0.40309,3.86324 -0.8246,3.85254 -1.24453,3.83451 -1.66209,3.80917 -2.07649,3.7766 -0.89508,1.42224 m -452.426059,-44.16501 -0.1744,-0.43999 -1.39165,-4.15852 -0.93619,-4.1788 -0.47896,-4.19114 -0.0208,-4.19549 0.43738,-4.19187 0.89474,-4.18025 1.3504,-4.16068 1.80347,-4.1332 2.25313,-4.09784 2.69849,-4.05469 3.13871,-4.00381 3.57296,-3.94532 4.00042,-3.87931 4.42024,-3.80592 4.83167,-3.72529 5.23388,-3.63756 5.62615,-3.54291 6.0077,-3.44151 6.3778,-3.33357 6.73579,-3.21927 7.080929,-3.09886 7.4126,-2.97254 7.73017,-2.84056 8.03301,-2.70318 8.32057,-2.56065 8.59229,-2.41324 8.84765,-2.26125 9.08616,-2.10494 9.30739,-1.94464 9.51089,-1.78062 9.6963,-1.61323 9.86324,-1.44275 10.01141,-1.26953 10.14052,-1.09391 10.25033,-0.91618 10.34062,-0.73673 10.41124,-0.55586 10.46203,-0.37394 10.4929,-0.19131 10.50382,-0.008 10.49472,0.1747 10.46566,0.35739 10.41667,0.53938 10.34785,0.72035 10.25933,0.89996 10.15129,1.07785 10.02393,1.25368 9.87747,1.42713 9.71222,1.59787 9.52848,1.76556 9.32661,1.92989 9.10697,2.09055 8.87001,2.24723 8.61615,2.39962 8.3459,2.54747 8.05977,2.69044 7.75828,2.82831 7.44203,2.96078 7.11161,3.08763 6.76767,3.20859 6.41082,3.32345 6.04178,3.43198 5.66125,3.53398 5.26993,3.62925 4.86857,3.71761 4.45796,3.79889 4.03886,3.87295 3.61207,3.93963 3.1784,3.99882 2.73869,4.05038 2.29376,4.09425 1.84446,4.13031 1.39165,4.15851 0.93619,4.17881 0.47896,4.19113 0.0208,4.1955 -0.43738,4.19186 -0.89474,4.18025 -1.3504,4.16069 -0.32155,0.82166 m -489.258439,-47.05839 -0.17373,-0.95939 -0.50196,-4.39236 -0.0218,-4.39692 0.45838,-4.39311 0.9377,-4.38095 1.41522,-4.36044 1.89006,-4.33164 2.3613,-4.29458 2.82805,-4.24935 3.2894,-4.19604 3.74451,-4.13474 4.19247,-4.06555 4.63246,-3.98865 5.06364,-3.90414 5.48517,-3.8122 5.89626,-3.713 6.29613,-3.60675 6.68401,-3.49361 7.05917,-3.37384 7.42089,-3.24763 7.768489,-3.11525 8.10129,-2.97694 8.41869,-2.83296 8.72004,-2.68359 9.00481,-2.5291 9.27242,-2.36981 9.5224,-2.20601 9.75424,-2.03799 9.96752,-1.86612 10.16182,-1.69067 10.33678,-1.51202 10.49206,-1.33049 10.62737,-1.14642 10.74245,-0.96017 10.83709,-0.7721 10.91108,-0.58255 10.96432,-0.39189 10.99668,-0.20049 11.0081,-0.009 10.99859,0.18309 10.96811,0.37454 10.91678,0.56527 10.84466,0.75494 10.75189,0.94317 10.63866,1.12959 10.50517,1.31387 10.3517,1.49566 10.17851,1.67458 9.98595,1.85032 9.77438,2.02255 9.5442,2.19092 9.29586,2.35511 9.02982,2.51484 8.7466,2.66977 8.44671,2.81961 8.13076,2.96409 7.79933,3.10294 7.45305,3.23586 7.09258,3.36264 6.71861,3.48301 6.33185,3.59675 5.93305,3.70365 5.52294,3.80349 5.10232,3.89609 4.67199,3.98129 4.23276,4.05889 3.78549,4.12877 3.331,4.1908 2.87017,4.24485 2.40388,4.29081 1.93301,4.32861 1.45847,4.35817 0.98114,4.37943 0.50196,4.39235 0.0218,4.39693 -0.45838,4.39311 -0.23948,1.35975 M 25.140161,228.1629 l 0.69822,-3.0212 1.41522,-4.36044 1.89006,-4.33164 2.3613,-4.29458 2.82805,-4.24935 3.2894,-4.19604 3.74451,-4.13473 4.19247,-4.06556 4.63246,-3.98865 5.06364,-3.90414 5.48517,-3.8122 5.89626,-3.713 6.29613,-3.60674 6.68401,-3.49362 7.05917,-3.37383 7.42089,-3.24764 7.768489,-3.11525 8.10129,-2.97694 8.41869,-2.83296 8.72004,-2.68358 9.00481,-2.52911 9.27242,-2.36981 9.5224,-2.206 9.75424,-2.038 9.96752,-1.86612 10.16182,-1.69067 10.33678,-1.51202 10.49206,-1.33049 10.62737,-1.14642 10.74245,-0.96017 10.83709,-0.7721 10.91108,-0.58254 10.96432,-0.3919 10.99668,-0.20049 11.0081,-0.009 10.99859,0.18309 10.96811,0.37454 10.91678,0.56528 10.84466,0.75494 10.75189,0.94316 10.63866,1.12959 10.50517,1.31388 10.3517,1.49565 10.17851,1.67458 9.98595,1.85032 9.77438,2.02255 9.5442,2.19092 9.29586,2.35512 9.02982,2.51483 8.7466,2.66977 8.44671,2.81961 8.13076,2.9641 7.79933,3.10293 7.45305,3.23587 7.09258,3.36263 6.71861,3.48301 6.33185,3.59675 5.93305,3.70365 5.52294,3.80349 5.10232,3.8961 4.67199,3.98128 4.23276,4.05889 3.78549,4.12878 3.331,4.1908 2.87017,4.24484 2.40388,4.29081 1.93301,4.32861 1.45847,4.35817 0.80741,3.42004 m -489.258439,-47.05839 1.48192,-3.31154 2.25313,-4.09784 2.69849,-4.05468 3.13871,-4.00382 3.57296,-3.94531 4.00042,-3.87931 4.42024,-3.80592 4.83167,-3.72529 5.23388,-3.63756 5.62615,-3.54291 6.0077,-3.44151 6.3778,-3.33357 6.73579,-3.21928 7.080929,-3.09885 7.4126,-2.97254 7.73017,-2.84056 8.03301,-2.70318 8.32057,-2.56065 8.59229,-2.41324 8.84765,-2.26125 9.08616,-2.10495 9.30739,-1.94463 9.51089,-1.78063 9.6963,-1.61322 9.86324,-1.44275 10.01141,-1.26954 10.14052,-1.0939 10.25033,-0.91618 10.34062,-0.73673 10.41124,-0.55586 10.46203,-0.37394 10.4929,-0.19131 10.50382,-0.008 10.49472,0.1747 10.46566,0.35738 10.41667,0.53938 10.34785,0.72036 10.25933,0.89996 10.15129,1.07784 10.02393,1.25369 9.87747,1.42713 9.71222,1.59787 9.52848,1.76556 9.32661,1.92989 9.10697,2.09055 8.87001,2.24722 8.61615,2.39963 8.3459,2.54746 8.05977,2.69045 7.75828,2.8283 7.44203,2.96079 7.11161,3.08763 6.76767,3.20859 6.41082,3.32345 6.04178,3.43198 5.66125,3.53397 5.26993,3.62925 4.86857,3.71761 4.45796,3.7989 4.03886,3.87295 3.61207,3.93963 3.1784,3.99881 2.73869,4.05039 2.29376,4.09424 1.67006,3.69032 m -452.426059,-44.16501 1.59186,-2.31457 2.89266,-3.68994 3.29286,-3.63602 3.6868,-3.57519 4.07372,-3.50756 4.45289,-3.43324 4.82357,-3.35239 5.18509,-3.26517 5.53672,-3.17171 5.877819,-3.07224 6.20773,-2.9669 6.52582,-2.855919 6.8315,-2.73951 7.12416,-2.61787 7.40326,-2.49126 7.66828,-2.35991 7.91869,-2.22406 8.15404,-2.08397 8.37385,-1.93993 8.57774,-1.79219 8.76529,-1.64103 8.93615,-1.48675 9.09001,-1.329652 9.22657,-1.170011 9.34555,-1.008145 9.44675,-0.84436 9.52997,-0.67897 9.59505,-0.512284 9.64186,-0.344626 9.67032,-0.176311 9.68036,-0.0077 9.67199,0.161006 9.64521,0.329365 9.60005,0.497097 9.53663,0.663882 9.45505,0.829405 9.35548,0.993348 9.2381,1.155401 9.10313,1.315253 8.95083,1.472602 8.7815,1.62715 8.59544,1.7786 8.39303,1.92666 8.17465,2.07105 7.94069,2.21151 7.69162,2.34776 7.42792,2.47952 7.15007,2.60658 6.85861,2.72868 6.5541,2.845569 6.23711,2.95706 5.90825,3.0629 5.56814,3.16293 5.21743,3.25693 4.85679,3.34474 4.48691,3.42617 4.10848,3.50108 3.72223,3.56933 3.3289,3.63078 2.92923,3.68533 1.83987,2.65477 M 94.036281,97.055491 l 2.86833,-2.75988 3.603419,-3.10262 3.93881,-3.03688 4.2667,-2.96536 4.58648,-2.88821 4.89752,-2.80555 5.19924,-2.71755 5.49106,-2.624377 5.77243,-2.526212 6.04281,-2.423235 6.30169,-2.315648 6.54857,-2.20365 6.78299,-2.08746 7.00449,-1.967294 7.21267,-1.843385 7.40711,-1.715967 7.58745,-1.585281 7.75336,-1.451578 7.90449,-1.315113 8.04059,-1.176143 8.16137,-1.034935 8.26663,-0.891756 8.35614,-0.746881 8.42976,-0.600583 8.48731,-0.453143 8.52873,-0.304839 8.5539,-0.155956 8.56278,-0.0068 8.55538,0.142418 8.53168,0.29134 8.49175,0.439708 8.43564,0.587239 8.36349,0.733652 8.27541,0.878667 8.17157,1.022012 8.05219,1.16341 7.91748,1.302593 7.76769,1.439298 7.60312,1.573261 7.42407,1.704232 7.2309,1.831956 7.02395,1.956195 6.80364,2.076709 6.57038,2.19327 6.32461,2.305657 6.0668,2.413654 5.79744,2.517057 5.51705,2.615668 5.22615,2.7093 4.92531,2.79777 4.61509,2.88093 4.29608,2.95859 3.9689,3.03062 3.63416,3.09689 3.18912,3.0519 M 135.96467,62.61617 l 3.62629,-2.276996 4.10951,-2.354135 4.36268,-2.280294 4.60754,-2.202115 4.84365,-2.119743 5.07052,-2.033336 5.28774,-1.943059 5.49491,-1.849083 5.6916,-1.751586 5.87747,-1.650756 6.05215,-1.546784 6.2153,-1.439867 6.36663,-1.330208 6.50584,-1.218019 6.63265,-1.103511 6.74686,-0.986901 6.8482,-0.868413 6.93653,-0.748273 7.01163,-0.626708 7.07341,-0.503949 7.1217,-0.380232 7.15645,-0.25579 7.17757,-0.130863 7.18504,-0.0057 7.17881,0.119503 7.15893,0.244464 7.12542,0.368959 7.07835,0.492752 7.0178,0.615606 6.94389,0.73729 6.85677,0.85757 6.75659,0.976216 6.64355,1.093006 6.51786,1.207714 6.37977,1.320123 6.22954,1.43002 6.06744,1.537194 5.8938,1.641443 5.70893,1.742565 5.51321,1.840373 5.30697,1.934676 5.09065,2.025296 4.86463,2.112061 4.62936,2.194806 4.38526,2.273374 4.13282,2.347612 3.87252,2.417383 0.11928,0.07828 m -224.76963,-27.945281 3.65257,-1.221098 4.42728,-1.362493 4.57186,-1.28406 4.70773,-1.203184 4.83465,-1.120018 4.95236,-1.034718 5.06064,-0.947451 5.15929,-0.858378 5.24812,-0.767673 5.32696,-0.675506 5.39566,-0.582053 5.45409,-0.487492 5.50213,-0.392003 5.5397,-0.295768 5.56673,-0.198969 5.58316,-0.101793 5.58896,-0.0044 5.58413,0.09296 5.56866,0.190159 5.54259,0.286999 5.50598,0.383293 5.45888,0.478857 5.40138,0.57351 5.33362,0.667071 5.2557,0.759362 5.16776,0.850207 5.07,0.939435 4.96258,1.026873 4.84572,1.112358 4.71963,1.195725 4.58456,1.276815 4.44077,1.355476 4.06067,1.352256"
     style="display:inline;fill:none;stroke:#777777;stroke-width:1px;stroke-opacity:1"
     id="path21"
     inkscape:connector-curvature="0" />
</svg>
