<?xml version="1.0" encoding="UTF-8" standalone="no"?>
<svg
   xmlns:dc="http://purl.org/dc/elements/1.1/"
   xmlns:cc="http://creativecommons.org/ns#"
   xmlns:rdf="http://www.w3.org/1999/02/22-rdf-syntax-ns#"
   xmlns:svg="http://www.w3.org/2000/svg"
   xmlns="http://www.w3.org/2000/svg"
   xmlns:xlink="http://www.w3.org/1999/xlink"
   xmlns:sodipodi="http://sodipodi.sourceforge.net/DTD/sodipodi-0.dtd"
   xmlns:inkscape="http://www.inkscape.org/namespaces/inkscape"
   width="550"
   height="550"
   version="1.1"
   id="svg2"
   inkscape:version="0.91 r13725"
   sodipodi:docname="tissot.svg">
  <metadata
     id="metadata104">
    <rdf:RDF>
      <cc:Work
         rdf:about="">
        <dc:format>image/svg+xml</dc:format>
        <dc:type
           rdf:resource="http://purl.org/dc/dcmitype/StillImage" />
        <dc:title></dc:title>
      </cc:Work>
    </rdf:RDF>
  </metadata>
  <sodipodi:namedview
     pagecolor="#ffffff"
     bordercolor="#666666"
     borderopacity="1"
     objecttolerance="10"
     gridtolerance="10"
     guidetolerance="10"
     inkscape:pageopacity="0"
     inkscape:pageshadow="2"
     inkscape:window-width="1365"
     inkscape:window-height="795"
     id="namedview102"
     showgrid="false"
     inkscape:zoom="0.55625733"
     inkscape:cx="256.92182"
     inkscape:cy="322.33931"
     inkscape:window-x="0"
     inkscape:window-y="23"
     inkscape:window-maximized="0"
     inkscape:current-layer="svg2" />
  <defs
     id="defs4">
    <path
       id="sphere"
       d="m 26.316408,84.408204 431.183592,0 431.18359,0 0,53.897946 0,53.89795 0,53.89795 0,53.89795 0,53.89795 0,53.89795 0,53.89795 0,53.89795 -431.18359,0 -431.183592,0 0,-53.89795 0,-53.89795 0,-53.89795 0,-53.89795 0,-53.89795 0,-53.89795 0,-53.89795 0,-53.897946 z"
       style="display:inline"
       inkscape:connector-curvature="0" />
  </defs>
  <use
     class="stroke"
     xlink:href="#sphere"
     style="display:inline;fill:none;stroke:#000000"
     id="use7"
     x="0"
     y="0"
     width="100%"
     height="100%"
     transform="matrix(1.0820905,0,0,1.0820905,-220.0564,-49.627151)" />
  <use
     class="fill"
     xlink:href="#sphere"
     style="display:inline;fill:#ffffff;fill-opacity:0"
     id="use9"
     x="0"
     y="0"
     width="100%"
     height="100%"
     transform="matrix(1.0820905,0,0,1.0820905,-220.0564,-49.627151)" />
  <path
     class="graticule"
     d="m -191.57967,508.28982 0,-58.32246 0,-58.32245 0,-58.32246 0,-58.32247 0,-58.32244 0,-58.32247 0,-58.32244 0,-58.322468 m 233.289832,466.579658 0,-58.32246 0,-58.32245 0,-58.32246 0,-58.32247 0,-58.32244 0,-58.32247 0,-58.32244 0,-58.322468 M 275,508.28982 l 0,-58.32246 0,-58.32245 0,-58.32246 0,-58.32247 0,-58.32244 0,-58.32247 0,-58.32244 0,-58.322468 m 233.28984,466.579658 0,-58.32246 0,-58.32245 0,-58.32246 0,-58.32247 0,-58.32244 0,-58.32247 0,-58.32244 0,-58.322468 m -699.86951,233.289818 6.48028,0 6.48027,0 6.48027,0 6.48028,0 6.48027,0 6.48027,0 6.48028,0 6.48027,0 6.48027,0 6.48027,0 6.48028,0 6.48027,0 6.48027,0 6.48028,0 6.480268,0 6.48027,0 6.480284,0 6.480272,0 6.480272,0 6.480273,0 6.480278,0 6.480259,0 6.480287,0 6.480278,0 6.48026,0 6.480277,0 6.480278,0 6.480278,0 6.480278,0 6.4802596,0 6.4802778,0 6.4802776,0 6.48026,0 6.480278,0 6.480278,0 6.480259,0 6.480296,0 6.48026,0 6.480278,0 6.480277,0 6.48026,0 6.480278,0 6.480278,0 6.480278,0 6.480263,0 6.48027,0 6.48028,0 6.48028,0 6.48028,0 6.48026,0 6.48027,0 6.48028,0 6.48026,0 6.48028,0 6.48028,0 6.48026,0 6.48029,0 6.48026,0 6.48028,0 6.48028,0 6.48026,0 6.48028,0 6.48027,0 6.48026,0 6.48028,0 6.48028,0 6.48028,0 6.48028,0 6.48025,0 6.48028,0 6.48028,0 6.48026,0 6.48028,0 6.48028,0 6.48026,0 6.48027,0 6.48028,0 6.48028,0 6.48028,0 6.48026,0 6.48027,0 6.48028,0 6.48028,0 6.48026,0 6.48028,0 6.48028,0 6.48025,0 6.4803,0 6.48026,0 6.48028,0 6.48028,0 6.48026,0 6.48027,0 6.48028,0 6.48026,0 6.48028,0 6.48028,0 6.48027,0 6.48028,0 6.48026,0 6.48028,0 6.48028,0 6.48026,0 6.48027,0 6.48028,0 6.48026,0 6.48028,0 6.48028,0 6.48028,0 6.48027,0 6.48026,0 6.48028,0 6.48028,0 6.48026,0 6.48028,0 6.48027,0 6.48028,0 6.48028,0 6.48026,0 6.48028,0 6.48028,0 6.48027,0 6.48026,0 6.48028,0 6.48028,0 6.48026,0 6.48028,0 6.48027,0 6.48028,0 6.48028,0 6.48026,0 6.48028,0 6.48027,0 6.48026,0 6.48028,0 6.48028,0 6.48026,0 6.4803,0 6.48025,0 6.48028,0 6.48028,0 6.48026,0 6.48028,0 6.48028,0 m -907.23825,207.36875 0,-58.32245 0,-58.32246 0,-58.32247 0,-58.32244 0,-45.36193 0,-45.36191 0,-45.36191 0,-45.361905 m 25.92109,414.737475 0,-58.32245 0,-58.32246 0,-58.32247 0,-58.32244 0,-45.36193 0,-45.36191 0,-45.36191 0,-45.361905 m 25.92109,414.737475 0,-58.32245 0,-58.32246 0,-58.32247 0,-58.32244 0,-45.36193 0,-45.36191 0,-45.36191 0,-45.361905 m 25.921088,414.737475 0,-58.32245 0,-58.32246 0,-58.32247 0,-58.32244 0,-45.36193 0,-45.36191 0,-45.36191 0,-45.361905 m 25.921101,414.737475 0,-58.32245 0,-58.32246 0,-58.32247 0,-58.32244 0,-45.36193 0,-45.36191 0,-45.36191 0,-45.361905 m 25.921102,414.737475 0,-58.32245 0,-58.32246 0,-58.32247 0,-58.32244 0,-45.36193 0,-45.36191 0,-45.36191 0,-45.361905 m 25.921093,414.737475 0,-58.32245 0,-58.32246 0,-58.32247 0,-58.32244 0,-45.36193 0,-45.36191 0,-45.36191 0,-45.361905 m 25.921093,414.737475 0,-58.32245 0,-58.32246 0,-58.32247 0,-58.32244 0,-45.36193 0,-45.36191 0,-45.36191 0,-45.361905 m 51.842186,414.737475 0,-58.32245 0,-58.32246 0,-58.32247 0,-58.32244 0,-45.36193 0,-45.36191 0,-45.36191 0,-45.361905 m 25.921094,414.737475 0,-58.32245 0,-58.32246 0,-58.32247 0,-58.32244 0,-45.36193 0,-45.36191 0,-45.36191 0,-45.361905 m 25.921093,414.737475 0,-58.32245 0,-58.32246 0,-58.32247 0,-58.32244 0,-45.36193 0,-45.36191 0,-45.36191 0,-45.361905 m 25.92109,414.737475 0,-58.32245 0,-58.32246 0,-58.32247 0,-58.32244 0,-45.36193 0,-45.36191 0,-45.36191 0,-45.361905 m 25.92108,414.737475 0,-58.32245 0,-58.32246 0,-58.32247 0,-58.32244 0,-45.36193 0,-45.36191 0,-45.36191 0,-45.361905 m 25.92111,414.737475 0,-58.32245 0,-58.32246 0,-58.32247 0,-58.32244 0,-45.36193 0,-45.36191 0,-45.36191 0,-45.361905 m 25.92107,414.737475 0,-58.32245 0,-58.32246 0,-58.32247 0,-58.32244 0,-45.36193 0,-45.36191 0,-45.36191 0,-45.361905 m 25.92112,414.737475 0,-58.32245 0,-58.32246 0,-58.32247 0,-58.32244 0,-45.36193 0,-45.36191 0,-45.36191 0,-45.361905 m 51.84216,414.737475 0,-58.32245 0,-58.32246 0,-58.32247 0,-58.32244 0,-45.36193 0,-45.36191 0,-45.36191 0,-45.361905 m 25.9211,414.737475 0,-58.32245 0,-58.32246 0,-58.32247 0,-58.32244 0,-45.36193 0,-45.36191 0,-45.36191 0,-45.361905 m 25.92109,414.737475 0,-58.32245 0,-58.32246 0,-58.32247 0,-58.32244 0,-45.36193 0,-45.36191 0,-45.36191 0,-45.361905 m 25.92111,414.737475 0,-58.32245 0,-58.32246 0,-58.32247 0,-58.32244 0,-45.36193 0,-45.36191 0,-45.36191 0,-45.361905 m 25.92108,414.737475 0,-58.32245 0,-58.32246 0,-58.32247 0,-58.32244 0,-45.36193 0,-45.36191 0,-45.36191 0,-45.361905 m 25.92109,414.737475 0,-58.32245 0,-58.32246 0,-58.32247 0,-58.32244 0,-45.36193 0,-45.36191 0,-45.36191 0,-45.361905 m 25.92109,414.737475 0,-58.32245 0,-58.32246 0,-58.32247 0,-58.32244 0,-45.36193 0,-45.36191 0,-45.36191 0,-45.361905 m 25.92109,414.737475 0,-58.32245 0,-58.32246 0,-58.32247 0,-58.32244 0,-45.36193 0,-45.36191 0,-45.36191 0,-45.361905 m 51.84219,414.737475 0,-58.32245 0,-58.32246 0,-58.32247 0,-58.32244 0,-45.36193 0,-45.36191 0,-45.36191 0,-45.361905 m 25.92109,414.737475 0,-58.32245 0,-58.32246 0,-58.32247 0,-58.32244 0,-45.36193 0,-45.36191 0,-45.36191 0,-45.361905 m 25.9211,414.737475 0,-58.32245 0,-58.32246 0,-58.32247 0,-58.32244 0,-45.36193 0,-45.36191 0,-45.36191 0,-45.361905 m 25.92109,414.737475 0,-58.32245 0,-58.32246 0,-58.32247 0,-58.32244 0,-45.36193 0,-45.36191 0,-45.36191 0,-45.361905 m 25.92109,414.737475 0,-58.32245 0,-58.32246 0,-58.32247 0,-58.32244 0,-45.36193 0,-45.36191 0,-45.36191 0,-45.361905 m 25.9211,414.737475 0,-58.32245 0,-58.32246 0,-58.32247 0,-58.32244 0,-45.36193 0,-45.36191 0,-45.36191 0,-45.361905 m 25.92109,414.737475 0,-58.32245 0,-58.32246 0,-58.32247 0,-58.32244 0,-45.36193 0,-45.36191 0,-45.36191 0,-45.361905 m 25.92109,414.737475 0,-58.32245 0,-58.32246 0,-58.32247 0,-58.32244 0,-45.36193 0,-45.36191 0,-45.36191 0,-45.361905 m -907.23825,414.737475 6.48028,0 6.48027,0 6.48027,0 6.48028,0 6.48027,0 6.48027,0 6.48028,0 6.48027,0 6.48027,0 6.48027,0 6.48028,0 6.48027,0 6.48027,0 6.48028,0 6.480268,0 6.48027,0 6.480284,0 6.480272,0 6.480272,0 6.480273,0 6.480278,0 6.480259,0 6.480287,0 6.480278,0 6.48026,0 6.480277,0 6.480278,0 6.480278,0 6.480278,0 6.4802596,0 6.4802778,0 6.4802776,0 6.48026,0 6.480278,0 6.480278,0 6.480259,0 6.480296,0 6.48026,0 6.480278,0 6.480277,0 6.48026,0 6.480278,0 6.480278,0 6.480278,0 6.480263,0 6.48027,0 6.48028,0 6.48028,0 6.48028,0 6.48026,0 6.48027,0 6.48028,0 6.48026,0 6.48028,0 6.48028,0 6.48026,0 6.48029,0 6.48026,0 6.48028,0 6.48028,0 6.48026,0 6.48028,0 6.48027,0 6.48026,0 6.48028,0 6.48028,0 6.48028,0 6.48028,0 6.48025,0 6.48028,0 6.48028,0 6.48026,0 6.48028,0 6.48028,0 6.48026,0 6.48027,0 6.48028,0 6.48028,0 6.48028,0 6.48026,0 6.48027,0 6.48028,0 6.48028,0 6.48026,0 6.48028,0 6.48028,0 6.48025,0 6.4803,0 6.48026,0 6.48028,0 6.48028,0 6.48026,0 6.48027,0 6.48028,0 6.48026,0 6.48028,0 6.48028,0 6.48027,0 6.48028,0 6.48026,0 6.48028,0 6.48028,0 6.48026,0 6.48027,0 6.48028,0 6.48026,0 6.48028,0 6.48028,0 6.48028,0 6.48027,0 6.48026,0 6.48028,0 6.48028,0 6.48026,0 6.48028,0 6.48027,0 6.48028,0 6.48028,0 6.48026,0 6.48028,0 6.48028,0 6.48027,0 6.48026,0 6.48028,0 6.48028,0 6.48026,0 6.48028,0 6.48027,0 6.48028,0 6.48028,0 6.48026,0 6.48028,0 6.48027,0 6.48026,0 6.48028,0 6.48028,0 6.48026,0 6.4803,0 6.48025,0 6.48028,0 6.48028,0 6.48026,0 6.48028,0 6.48028,0 m -933.15935,-25.9211 6.48028,0 6.48027,0 6.48027,0 6.48028,0 6.48027,0 6.48027,0 6.48028,0 6.48027,0 6.48027,0 6.48027,0 6.48028,0 6.48027,0 6.48027,0 6.48028,0 6.480268,0 6.48027,0 6.480284,0 6.480272,0 6.480272,0 6.480273,0 6.480278,0 6.480259,0 6.480287,0 6.480278,0 6.48026,0 6.480277,0 6.480278,0 6.480278,0 6.480278,0 6.4802596,0 6.4802778,0 6.4802776,0 6.48026,0 6.480278,0 6.480278,0 6.480259,0 6.480296,0 6.48026,0 6.480278,0 6.480277,0 6.48026,0 6.480278,0 6.480278,0 6.480278,0 6.480263,0 6.48027,0 6.48028,0 6.48028,0 6.48028,0 6.48026,0 6.48027,0 6.48028,0 6.48026,0 6.48028,0 6.48028,0 6.48026,0 6.48029,0 6.48026,0 6.48028,0 6.48028,0 6.48026,0 6.48028,0 6.48027,0 6.48026,0 6.48028,0 6.48028,0 6.48028,0 6.48028,0 6.48025,0 6.48028,0 6.48028,0 6.48026,0 6.48028,0 6.48028,0 6.48026,0 6.48027,0 6.48028,0 6.48028,0 6.48028,0 6.48026,0 6.48027,0 6.48028,0 6.48028,0 6.48026,0 6.48028,0 6.48028,0 6.48025,0 6.4803,0 6.48026,0 6.48028,0 6.48028,0 6.48026,0 6.48027,0 6.48028,0 6.48026,0 6.48028,0 6.48028,0 6.48027,0 6.48028,0 6.48026,0 6.48028,0 6.48028,0 6.48026,0 6.48027,0 6.48028,0 6.48026,0 6.48028,0 6.48028,0 6.48028,0 6.48027,0 6.48026,0 6.48028,0 6.48028,0 6.48026,0 6.48028,0 6.48027,0 6.48028,0 6.48028,0 6.48026,0 6.48028,0 6.48028,0 6.48027,0 6.48026,0 6.48028,0 6.48028,0 6.48026,0 6.48028,0 6.48027,0 6.48028,0 6.48028,0 6.48026,0 6.48028,0 6.48027,0 6.48026,0 6.48028,0 6.48028,0 6.48026,0 6.4803,0 6.48025,0 6.48028,0 6.48028,0 6.48026,0 6.48028,0 6.48028,0 m -933.15935,-25.92109 6.48028,0 6.48027,0 6.48027,0 6.48028,0 6.48027,0 6.48027,0 6.48028,0 6.48027,0 6.48027,0 6.48027,0 6.48028,0 6.48027,0 6.48027,0 6.48028,0 6.480268,0 6.48027,0 6.480284,0 6.480272,0 6.480272,0 6.480273,0 6.480278,0 6.480259,0 6.480287,0 6.480278,0 6.48026,0 6.480277,0 6.480278,0 6.480278,0 6.480278,0 6.4802596,0 6.4802778,0 6.4802776,0 6.48026,0 6.480278,0 6.480278,0 6.480259,0 6.480296,0 6.48026,0 6.480278,0 6.480277,0 6.48026,0 6.480278,0 6.480278,0 6.480278,0 6.480263,0 6.48027,0 6.48028,0 6.48028,0 6.48028,0 6.48026,0 6.48027,0 6.48028,0 6.48026,0 6.48028,0 6.48028,0 6.48026,0 6.48029,0 6.48026,0 6.48028,0 6.48028,0 6.48026,0 6.48028,0 6.48027,0 6.48026,0 6.48028,0 6.48028,0 6.48028,0 6.48028,0 6.48025,0 6.48028,0 6.48028,0 6.48026,0 6.48028,0 6.48028,0 6.48026,0 6.48027,0 6.48028,0 6.48028,0 6.48028,0 6.48026,0 6.48027,0 6.48028,0 6.48028,0 6.48026,0 6.48028,0 6.48028,0 6.48025,0 6.4803,0 6.48026,0 6.48028,0 6.48028,0 6.48026,0 6.48027,0 6.48028,0 6.48026,0 6.48028,0 6.48028,0 6.48027,0 6.48028,0 6.48026,0 6.48028,0 6.48028,0 6.48026,0 6.48027,0 6.48028,0 6.48026,0 6.48028,0 6.48028,0 6.48028,0 6.48027,0 6.48026,0 6.48028,0 6.48028,0 6.48026,0 6.48028,0 6.48027,0 6.48028,0 6.48028,0 6.48026,0 6.48028,0 6.48028,0 6.48027,0 6.48026,0 6.48028,0 6.48028,0 6.48026,0 6.48028,0 6.48027,0 6.48028,0 6.48028,0 6.48026,0 6.48028,0 6.48027,0 6.48026,0 6.48028,0 6.48028,0 6.48026,0 6.4803,0 6.48025,0 6.48028,0 6.48028,0 6.48026,0 6.48028,0 6.48028,0 m -933.15935,-25.92109 6.48028,0 6.48027,0 6.48027,0 6.48028,0 6.48027,0 6.48027,0 6.48028,0 6.48027,0 6.48027,0 6.48027,0 6.48028,0 6.48027,0 6.48027,0 6.48028,0 6.480268,0 6.48027,0 6.480284,0 6.480272,0 6.480272,0 6.480273,0 6.480278,0 6.480259,0 6.480287,0 6.480278,0 6.48026,0 6.480277,0 6.480278,0 6.480278,0 6.480278,0 6.4802596,0 6.4802778,0 6.4802776,0 6.48026,0 6.480278,0 6.480278,0 6.480259,0 6.480296,0 6.48026,0 6.480278,0 6.480277,0 6.48026,0 6.480278,0 6.480278,0 6.480278,0 6.480263,0 6.48027,0 6.48028,0 6.48028,0 6.48028,0 6.48026,0 6.48027,0 6.48028,0 6.48026,0 6.48028,0 6.48028,0 6.48026,0 6.48029,0 6.48026,0 6.48028,0 6.48028,0 6.48026,0 6.48028,0 6.48027,0 6.48026,0 6.48028,0 6.48028,0 6.48028,0 6.48028,0 6.48025,0 6.48028,0 6.48028,0 6.48026,0 6.48028,0 6.48028,0 6.48026,0 6.48027,0 6.48028,0 6.48028,0 6.48028,0 6.48026,0 6.48027,0 6.48028,0 6.48028,0 6.48026,0 6.48028,0 6.48028,0 6.48025,0 6.4803,0 6.48026,0 6.48028,0 6.48028,0 6.48026,0 6.48027,0 6.48028,0 6.48026,0 6.48028,0 6.48028,0 6.48027,0 6.48028,0 6.48026,0 6.48028,0 6.48028,0 6.48026,0 6.48027,0 6.48028,0 6.48026,0 6.48028,0 6.48028,0 6.48028,0 6.48027,0 6.48026,0 6.48028,0 6.48028,0 6.48026,0 6.48028,0 6.48027,0 6.48028,0 6.48028,0 6.48026,0 6.48028,0 6.48028,0 6.48027,0 6.48026,0 6.48028,0 6.48028,0 6.48026,0 6.48028,0 6.48027,0 6.48028,0 6.48028,0 6.48026,0 6.48028,0 6.48027,0 6.48026,0 6.48028,0 6.48028,0 6.48026,0 6.4803,0 6.48025,0 6.48028,0 6.48028,0 6.48026,0 6.48028,0 6.48028,0 m -933.15935,-25.9211 6.48028,0 6.48027,0 6.48027,0 6.48028,0 6.48027,0 6.48027,0 6.48028,0 6.48027,0 6.48027,0 6.48027,0 6.48028,0 6.48027,0 6.48027,0 6.48028,0 6.480268,0 6.48027,0 6.480284,0 6.480272,0 6.480272,0 6.480273,0 6.480278,0 6.480259,0 6.480287,0 6.480278,0 6.48026,0 6.480277,0 6.480278,0 6.480278,0 6.480278,0 6.4802596,0 6.4802778,0 6.4802776,0 6.48026,0 6.480278,0 6.480278,0 6.480259,0 6.480296,0 6.48026,0 6.480278,0 6.480277,0 6.48026,0 6.480278,0 6.480278,0 6.480278,0 6.480263,0 6.48027,0 6.48028,0 6.48028,0 6.48028,0 6.48026,0 6.48027,0 6.48028,0 6.48026,0 6.48028,0 6.48028,0 6.48026,0 6.48029,0 6.48026,0 6.48028,0 6.48028,0 6.48026,0 6.48028,0 6.48027,0 6.48026,0 6.48028,0 6.48028,0 6.48028,0 6.48028,0 6.48025,0 6.48028,0 6.48028,0 6.48026,0 6.48028,0 6.48028,0 6.48026,0 6.48027,0 6.48028,0 6.48028,0 6.48028,0 6.48026,0 6.48027,0 6.48028,0 6.48028,0 6.48026,0 6.48028,0 6.48028,0 6.48025,0 6.4803,0 6.48026,0 6.48028,0 6.48028,0 6.48026,0 6.48027,0 6.48028,0 6.48026,0 6.48028,0 6.48028,0 6.48027,0 6.48028,0 6.48026,0 6.48028,0 6.48028,0 6.48026,0 6.48027,0 6.48028,0 6.48026,0 6.48028,0 6.48028,0 6.48028,0 6.48027,0 6.48026,0 6.48028,0 6.48028,0 6.48026,0 6.48028,0 6.48027,0 6.48028,0 6.48028,0 6.48026,0 6.48028,0 6.48028,0 6.48027,0 6.48026,0 6.48028,0 6.48028,0 6.48026,0 6.48028,0 6.48027,0 6.48028,0 6.48028,0 6.48026,0 6.48028,0 6.48027,0 6.48026,0 6.48028,0 6.48028,0 6.48026,0 6.4803,0 6.48025,0 6.48028,0 6.48028,0 6.48026,0 6.48028,0 6.48028,0 m -933.15935,-25.92109 6.48028,0 6.48027,0 6.48027,0 6.48028,0 6.48027,0 6.48027,0 6.48028,0 6.48027,0 6.48027,0 6.48027,0 6.48028,0 6.48027,0 6.48027,0 6.48028,0 6.480268,0 6.48027,0 6.480284,0 6.480272,0 6.480272,0 6.480273,0 6.480278,0 6.480259,0 6.480287,0 6.480278,0 6.48026,0 6.480277,0 6.480278,0 6.480278,0 6.480278,0 6.4802596,0 6.4802778,0 6.4802776,0 6.48026,0 6.480278,0 6.480278,0 6.480259,0 6.480296,0 6.48026,0 6.480278,0 6.480277,0 6.48026,0 6.480278,0 6.480278,0 6.480278,0 6.480263,0 6.48027,0 6.48028,0 6.48028,0 6.48028,0 6.48026,0 6.48027,0 6.48028,0 6.48026,0 6.48028,0 6.48028,0 6.48026,0 6.48029,0 6.48026,0 6.48028,0 6.48028,0 6.48026,0 6.48028,0 6.48027,0 6.48026,0 6.48028,0 6.48028,0 6.48028,0 6.48028,0 6.48025,0 6.48028,0 6.48028,0 6.48026,0 6.48028,0 6.48028,0 6.48026,0 6.48027,0 6.48028,0 6.48028,0 6.48028,0 6.48026,0 6.48027,0 6.48028,0 6.48028,0 6.48026,0 6.48028,0 6.48028,0 6.48025,0 6.4803,0 6.48026,0 6.48028,0 6.48028,0 6.48026,0 6.48027,0 6.48028,0 6.48026,0 6.48028,0 6.48028,0 6.48027,0 6.48028,0 6.48026,0 6.48028,0 6.48028,0 6.48026,0 6.48027,0 6.48028,0 6.48026,0 6.48028,0 6.48028,0 6.48028,0 6.48027,0 6.48026,0 6.48028,0 6.48028,0 6.48026,0 6.48028,0 6.48027,0 6.48028,0 6.48028,0 6.48026,0 6.48028,0 6.48028,0 6.48027,0 6.48026,0 6.48028,0 6.48028,0 6.48026,0 6.48028,0 6.48027,0 6.48028,0 6.48028,0 6.48026,0 6.48028,0 6.48027,0 6.48026,0 6.48028,0 6.48028,0 6.48026,0 6.4803,0 6.48025,0 6.48028,0 6.48028,0 6.48026,0 6.48028,0 6.48028,0 m -933.15935,-25.92109 6.48028,0 6.48027,0 6.48027,0 6.48028,0 6.48027,0 6.48027,0 6.48028,0 6.48027,0 6.48027,0 6.48027,0 6.48028,0 6.48027,0 6.48027,0 6.48028,0 6.480268,0 6.48027,0 6.480284,0 6.480272,0 6.480272,0 6.480273,0 6.480278,0 6.480259,0 6.480287,0 6.480278,0 6.48026,0 6.480277,0 6.480278,0 6.480278,0 6.480278,0 6.4802596,0 6.4802778,0 6.4802776,0 6.48026,0 6.480278,0 6.480278,0 6.480259,0 6.480296,0 6.48026,0 6.480278,0 6.480277,0 6.48026,0 6.480278,0 6.480278,0 6.480278,0 6.480263,0 6.48027,0 6.48028,0 6.48028,0 6.48028,0 6.48026,0 6.48027,0 6.48028,0 6.48026,0 6.48028,0 6.48028,0 6.48026,0 6.48029,0 6.48026,0 6.48028,0 6.48028,0 6.48026,0 6.48028,0 6.48027,0 6.48026,0 6.48028,0 6.48028,0 6.48028,0 6.48028,0 6.48025,0 6.48028,0 6.48028,0 6.48026,0 6.48028,0 6.48028,0 6.48026,0 6.48027,0 6.48028,0 6.48028,0 6.48028,0 6.48026,0 6.48027,0 6.48028,0 6.48028,0 6.48026,0 6.48028,0 6.48028,0 6.48025,0 6.4803,0 6.48026,0 6.48028,0 6.48028,0 6.48026,0 6.48027,0 6.48028,0 6.48026,0 6.48028,0 6.48028,0 6.48027,0 6.48028,0 6.48026,0 6.48028,0 6.48028,0 6.48026,0 6.48027,0 6.48028,0 6.48026,0 6.48028,0 6.48028,0 6.48028,0 6.48027,0 6.48026,0 6.48028,0 6.48028,0 6.48026,0 6.48028,0 6.48027,0 6.48028,0 6.48028,0 6.48026,0 6.48028,0 6.48028,0 6.48027,0 6.48026,0 6.48028,0 6.48028,0 6.48026,0 6.48028,0 6.48027,0 6.48028,0 6.48028,0 6.48026,0 6.48028,0 6.48027,0 6.48026,0 6.48028,0 6.48028,0 6.48026,0 6.4803,0 6.48025,0 6.48028,0 6.48028,0 6.48026,0 6.48028,0 6.48028,0 m -933.15935,-25.9211 6.48028,0 6.48027,0 6.48027,0 6.48028,0 6.48027,0 6.48027,0 6.48028,0 6.48027,0 6.48027,0 6.48027,0 6.48028,0 6.48027,0 6.48027,0 6.48028,0 6.480268,0 6.48027,0 6.480284,0 6.480272,0 6.480272,0 6.480273,0 6.480278,0 6.480259,0 6.480287,0 6.480278,0 6.48026,0 6.480277,0 6.480278,0 6.480278,0 6.480278,0 6.4802596,0 6.4802778,0 6.4802776,0 6.48026,0 6.480278,0 6.480278,0 6.480259,0 6.480296,0 6.48026,0 6.480278,0 6.480277,0 6.48026,0 6.480278,0 6.480278,0 6.480278,0 6.480263,0 6.48027,0 6.48028,0 6.48028,0 6.48028,0 6.48026,0 6.48027,0 6.48028,0 6.48026,0 6.48028,0 6.48028,0 6.48026,0 6.48029,0 6.48026,0 6.48028,0 6.48028,0 6.48026,0 6.48028,0 6.48027,0 6.48026,0 6.48028,0 6.48028,0 6.48028,0 6.48028,0 6.48025,0 6.48028,0 6.48028,0 6.48026,0 6.48028,0 6.48028,0 6.48026,0 6.48027,0 6.48028,0 6.48028,0 6.48028,0 6.48026,0 6.48027,0 6.48028,0 6.48028,0 6.48026,0 6.48028,0 6.48028,0 6.48025,0 6.4803,0 6.48026,0 6.48028,0 6.48028,0 6.48026,0 6.48027,0 6.48028,0 6.48026,0 6.48028,0 6.48028,0 6.48027,0 6.48028,0 6.48026,0 6.48028,0 6.48028,0 6.48026,0 6.48027,0 6.48028,0 6.48026,0 6.48028,0 6.48028,0 6.48028,0 6.48027,0 6.48026,0 6.48028,0 6.48028,0 6.48026,0 6.48028,0 6.48027,0 6.48028,0 6.48028,0 6.48026,0 6.48028,0 6.48028,0 6.48027,0 6.48026,0 6.48028,0 6.48028,0 6.48026,0 6.48028,0 6.48027,0 6.48028,0 6.48028,0 6.48026,0 6.48028,0 6.48027,0 6.48026,0 6.48028,0 6.48028,0 6.48026,0 6.4803,0 6.48025,0 6.48028,0 6.48028,0 6.48026,0 6.48028,0 6.48028,0 m -933.15935,-51.84216 6.48028,0 6.48027,0 6.48027,0 6.48028,0 6.48027,0 6.48027,0 6.48028,0 6.48027,0 6.48027,0 6.48027,0 6.48028,0 6.48027,0 6.48027,0 6.48028,0 6.480268,0 6.48027,0 6.480284,0 6.480272,0 6.480272,0 6.480273,0 6.480278,0 6.480259,0 6.480287,0 6.480278,0 6.48026,0 6.480277,0 6.480278,0 6.480278,0 6.480278,0 6.4802596,0 6.4802778,0 6.4802776,0 6.48026,0 6.480278,0 6.480278,0 6.480259,0 6.480296,0 6.48026,0 6.480278,0 6.480277,0 6.48026,0 6.480278,0 6.480278,0 6.480278,0 6.480263,0 6.48027,0 6.48028,0 6.48028,0 6.48028,0 6.48026,0 6.48027,0 6.48028,0 6.48026,0 6.48028,0 6.48028,0 6.48026,0 6.48029,0 6.48026,0 6.48028,0 6.48028,0 6.48026,0 6.48028,0 6.48027,0 6.48026,0 6.48028,0 6.48028,0 6.48028,0 6.48028,0 6.48025,0 6.48028,0 6.48028,0 6.48026,0 6.48028,0 6.48028,0 6.48026,0 6.48027,0 6.48028,0 6.48028,0 6.48028,0 6.48026,0 6.48027,0 6.48028,0 6.48028,0 6.48026,0 6.48028,0 6.48028,0 6.48025,0 6.4803,0 6.48026,0 6.48028,0 6.48028,0 6.48026,0 6.48027,0 6.48028,0 6.48026,0 6.48028,0 6.48028,0 6.48027,0 6.48028,0 6.48026,0 6.48028,0 6.48028,0 6.48026,0 6.48027,0 6.48028,0 6.48026,0 6.48028,0 6.48028,0 6.48028,0 6.48027,0 6.48026,0 6.48028,0 6.48028,0 6.48026,0 6.48028,0 6.48027,0 6.48028,0 6.48028,0 6.48026,0 6.48028,0 6.48028,0 6.48027,0 6.48026,0 6.48028,0 6.48028,0 6.48026,0 6.48028,0 6.48027,0 6.48028,0 6.48028,0 6.48026,0 6.48028,0 6.48027,0 6.48026,0 6.48028,0 6.48028,0 6.48026,0 6.4803,0 6.48025,0 6.48028,0 6.48028,0 6.48026,0 6.48028,0 6.48028,0 m -933.15935,-25.92111 6.48028,0 6.48027,0 6.48027,0 6.48028,0 6.48027,0 6.48027,0 6.48028,0 6.48027,0 6.48027,0 6.48027,0 6.48028,0 6.48027,0 6.48027,0 6.48028,0 6.480268,0 6.48027,0 6.480284,0 6.480272,0 6.480272,0 6.480273,0 6.480278,0 6.480259,0 6.480287,0 6.480278,0 6.48026,0 6.480277,0 6.480278,0 6.480278,0 6.480278,0 6.4802596,0 6.4802778,0 6.4802776,0 6.48026,0 6.480278,0 6.480278,0 6.480259,0 6.480296,0 6.48026,0 6.480278,0 6.480277,0 6.48026,0 6.480278,0 6.480278,0 6.480278,0 6.480263,0 6.48027,0 6.48028,0 6.48028,0 6.48028,0 6.48026,0 6.48027,0 6.48028,0 6.48026,0 6.48028,0 6.48028,0 6.48026,0 6.48029,0 6.48026,0 6.48028,0 6.48028,0 6.48026,0 6.48028,0 6.48027,0 6.48026,0 6.48028,0 6.48028,0 6.48028,0 6.48028,0 6.48025,0 6.48028,0 6.48028,0 6.48026,0 6.48028,0 6.48028,0 6.48026,0 6.48027,0 6.48028,0 6.48028,0 6.48028,0 6.48026,0 6.48027,0 6.48028,0 6.48028,0 6.48026,0 6.48028,0 6.48028,0 6.48025,0 6.4803,0 6.48026,0 6.48028,0 6.48028,0 6.48026,0 6.48027,0 6.48028,0 6.48026,0 6.48028,0 6.48028,0 6.48027,0 6.48028,0 6.48026,0 6.48028,0 6.48028,0 6.48026,0 6.48027,0 6.48028,0 6.48026,0 6.48028,0 6.48028,0 6.48028,0 6.48027,0 6.48026,0 6.48028,0 6.48028,0 6.48026,0 6.48028,0 6.48027,0 6.48028,0 6.48028,0 6.48026,0 6.48028,0 6.48028,0 6.48027,0 6.48026,0 6.48028,0 6.48028,0 6.48026,0 6.48028,0 6.48027,0 6.48028,0 6.48028,0 6.48026,0 6.48028,0 6.48027,0 6.48026,0 6.48028,0 6.48028,0 6.48026,0 6.4803,0 6.48025,0 6.48028,0 6.48028,0 6.48026,0 6.48028,0 6.48028,0 m -933.15935,-25.92108 6.48028,0 6.48027,0 6.48027,0 6.48028,0 6.48027,0 6.48027,0 6.48028,0 6.48027,0 6.48027,0 6.48027,0 6.48028,0 6.48027,0 6.48027,0 6.48028,0 6.480268,0 6.48027,0 6.480284,0 6.480272,0 6.480272,0 6.480273,0 6.480278,0 6.480259,0 6.480287,0 6.480278,0 6.48026,0 6.480277,0 6.480278,0 6.480278,0 6.480278,0 6.4802596,0 6.4802778,0 6.4802776,0 6.48026,0 6.480278,0 6.480278,0 6.480259,0 6.480296,0 6.48026,0 6.480278,0 6.480277,0 6.48026,0 6.480278,0 6.480278,0 6.480278,0 6.480263,0 6.48027,0 6.48028,0 6.48028,0 6.48028,0 6.48026,0 6.48027,0 6.48028,0 6.48026,0 6.48028,0 6.48028,0 6.48026,0 6.48029,0 6.48026,0 6.48028,0 6.48028,0 6.48026,0 6.48028,0 6.48027,0 6.48026,0 6.48028,0 6.48028,0 6.48028,0 6.48028,0 6.48025,0 6.48028,0 6.48028,0 6.48026,0 6.48028,0 6.48028,0 6.48026,0 6.48027,0 6.48028,0 6.48028,0 6.48028,0 6.48026,0 6.48027,0 6.48028,0 6.48028,0 6.48026,0 6.48028,0 6.48028,0 6.48025,0 6.4803,0 6.48026,0 6.48028,0 6.48028,0 6.48026,0 6.48027,0 6.48028,0 6.48026,0 6.48028,0 6.48028,0 6.48027,0 6.48028,0 6.48026,0 6.48028,0 6.48028,0 6.48026,0 6.48027,0 6.48028,0 6.48026,0 6.48028,0 6.48028,0 6.48028,0 6.48027,0 6.48026,0 6.48028,0 6.48028,0 6.48026,0 6.48028,0 6.48027,0 6.48028,0 6.48028,0 6.48026,0 6.48028,0 6.48028,0 6.48027,0 6.48026,0 6.48028,0 6.48028,0 6.48026,0 6.48028,0 6.48027,0 6.48028,0 6.48028,0 6.48026,0 6.48028,0 6.48027,0 6.48026,0 6.48028,0 6.48028,0 6.48026,0 6.4803,0 6.48025,0 6.48028,0 6.48028,0 6.48026,0 6.48028,0 6.48028,0 m -933.15935,-25.92111 6.48028,0 6.48027,0 6.48027,0 6.48028,0 6.48027,0 6.48027,0 6.48028,0 6.48027,0 6.48027,0 6.48027,0 6.48028,0 6.48027,0 6.48027,0 6.48028,0 6.480268,0 6.48027,0 6.480284,0 6.480272,0 6.480272,0 6.480273,0 6.480278,0 6.480259,0 6.480287,0 6.480278,0 6.48026,0 6.480277,0 6.480278,0 6.480278,0 6.480278,0 6.4802596,0 6.4802778,0 6.4802776,0 6.48026,0 6.480278,0 6.480278,0 6.480259,0 6.480296,0 6.48026,0 6.480278,0 6.480277,0 6.48026,0 6.480278,0 6.480278,0 6.480278,0 6.480263,0 6.48027,0 6.48028,0 6.48028,0 6.48028,0 6.48026,0 6.48027,0 6.48028,0 6.48026,0 6.48028,0 6.48028,0 6.48026,0 6.48029,0 6.48026,0 6.48028,0 6.48028,0 6.48026,0 6.48028,0 6.48027,0 6.48026,0 6.48028,0 6.48028,0 6.48028,0 6.48028,0 6.48025,0 6.48028,0 6.48028,0 6.48026,0 6.48028,0 6.48028,0 6.48026,0 6.48027,0 6.48028,0 6.48028,0 6.48028,0 6.48026,0 6.48027,0 6.48028,0 6.48028,0 6.48026,0 6.48028,0 6.48028,0 6.48025,0 6.4803,0 6.48026,0 6.48028,0 6.48028,0 6.48026,0 6.48027,0 6.48028,0 6.48026,0 6.48028,0 6.48028,0 6.48027,0 6.48028,0 6.48026,0 6.48028,0 6.48028,0 6.48026,0 6.48027,0 6.48028,0 6.48026,0 6.48028,0 6.48028,0 6.48028,0 6.48027,0 6.48026,0 6.48028,0 6.48028,0 6.48026,0 6.48028,0 6.48027,0 6.48028,0 6.48028,0 6.48026,0 6.48028,0 6.48028,0 6.48027,0 6.48026,0 6.48028,0 6.48028,0 6.48026,0 6.48028,0 6.48027,0 6.48028,0 6.48028,0 6.48026,0 6.48028,0 6.48027,0 6.48026,0 6.48028,0 6.48028,0 6.48026,0 6.4803,0 6.48025,0 6.48028,0 6.48028,0 6.48026,0 6.48028,0 6.48028,0 m -933.15935,-25.92108 6.48028,0 6.48027,0 6.48027,0 6.48028,0 6.48027,0 6.48027,0 6.48028,0 6.48027,0 6.48027,0 6.48027,0 6.48028,0 6.48027,0 6.48027,0 6.48028,0 6.480268,0 6.48027,0 6.480284,0 6.480272,0 6.480272,0 6.480273,0 6.480278,0 6.480259,0 6.480287,0 6.480278,0 6.48026,0 6.480277,0 6.480278,0 6.480278,0 6.480278,0 6.4802596,0 6.4802778,0 6.4802776,0 6.48026,0 6.480278,0 6.480278,0 6.480259,0 6.480296,0 6.48026,0 6.480278,0 6.480277,0 6.48026,0 6.480278,0 6.480278,0 6.480278,0 6.480263,0 6.48027,0 6.48028,0 6.48028,0 6.48028,0 6.48026,0 6.48027,0 6.48028,0 6.48026,0 6.48028,0 6.48028,0 6.48026,0 6.48029,0 6.48026,0 6.48028,0 6.48028,0 6.48026,0 6.48028,0 6.48027,0 6.48026,0 6.48028,0 6.48028,0 6.48028,0 6.48028,0 6.48025,0 6.48028,0 6.48028,0 6.48026,0 6.48028,0 6.48028,0 6.48026,0 6.48027,0 6.48028,0 6.48028,0 6.48028,0 6.48026,0 6.48027,0 6.48028,0 6.48028,0 6.48026,0 6.48028,0 6.48028,0 6.48025,0 6.4803,0 6.48026,0 6.48028,0 6.48028,0 6.48026,0 6.48027,0 6.48028,0 6.48026,0 6.48028,0 6.48028,0 6.48027,0 6.48028,0 6.48026,0 6.48028,0 6.48028,0 6.48026,0 6.48027,0 6.48028,0 6.48026,0 6.48028,0 6.48028,0 6.48028,0 6.48027,0 6.48026,0 6.48028,0 6.48028,0 6.48026,0 6.48028,0 6.48027,0 6.48028,0 6.48028,0 6.48026,0 6.48028,0 6.48028,0 6.48027,0 6.48026,0 6.48028,0 6.48028,0 6.48026,0 6.48028,0 6.48027,0 6.48028,0 6.48028,0 6.48026,0 6.48028,0 6.48027,0 6.48026,0 6.48028,0 6.48028,0 6.48026,0 6.4803,0 6.48025,0 6.48028,0 6.48028,0 6.48026,0 6.48028,0 6.48028,0 m -933.15935,-25.92109 6.48028,0 6.48027,0 6.48027,0 6.48028,0 6.48027,0 6.48027,0 6.48028,0 6.48027,0 6.48027,0 6.48027,0 6.48028,0 6.48027,0 6.48027,0 6.48028,0 6.480268,0 6.48027,0 6.480284,0 6.480272,0 6.480272,0 6.480273,0 6.480278,0 6.480259,0 6.480287,0 6.480278,0 6.48026,0 6.480277,0 6.480278,0 6.480278,0 6.480278,0 6.4802596,0 6.4802778,0 6.4802776,0 6.48026,0 6.480278,0 6.480278,0 6.480259,0 6.480296,0 6.48026,0 6.480278,0 6.480277,0 6.48026,0 6.480278,0 6.480278,0 6.480278,0 6.480263,0 6.48027,0 6.48028,0 6.48028,0 6.48028,0 6.48026,0 6.48027,0 6.48028,0 6.48026,0 6.48028,0 6.48028,0 6.48026,0 6.48029,0 6.48026,0 6.48028,0 6.48028,0 6.48026,0 6.48028,0 6.48027,0 6.48026,0 6.48028,0 6.48028,0 6.48028,0 6.48028,0 6.48025,0 6.48028,0 6.48028,0 6.48026,0 6.48028,0 6.48028,0 6.48026,0 6.48027,0 6.48028,0 6.48028,0 6.48028,0 6.48026,0 6.48027,0 6.48028,0 6.48028,0 6.48026,0 6.48028,0 6.48028,0 6.48025,0 6.4803,0 6.48026,0 6.48028,0 6.48028,0 6.48026,0 6.48027,0 6.48028,0 6.48026,0 6.48028,0 6.48028,0 6.48027,0 6.48028,0 6.48026,0 6.48028,0 6.48028,0 6.48026,0 6.48027,0 6.48028,0 6.48026,0 6.48028,0 6.48028,0 6.48028,0 6.48027,0 6.48026,0 6.48028,0 6.48028,0 6.48026,0 6.48028,0 6.48027,0 6.48028,0 6.48028,0 6.48026,0 6.48028,0 6.48028,0 6.48027,0 6.48026,0 6.48028,0 6.48028,0 6.48026,0 6.48028,0 6.48027,0 6.48028,0 6.48028,0 6.48026,0 6.48028,0 6.48027,0 6.48026,0 6.48028,0 6.48028,0 6.48026,0 6.4803,0 6.48025,0 6.48028,0 6.48028,0 6.48026,0 6.48028,0 6.48028,0 m -933.15935,-25.921092 6.48028,0 6.48027,0 6.48027,0 6.48028,0 6.48027,0 6.48027,0 6.48028,0 6.48027,0 6.48027,0 6.48027,0 6.48028,0 6.48027,0 6.48027,0 6.48028,0 6.480268,0 6.48027,0 6.480284,0 6.480272,0 6.480272,0 6.480273,0 6.480278,0 6.480259,0 6.480287,0 6.480278,0 6.48026,0 6.480277,0 6.480278,0 6.480278,0 6.480278,0 6.4802596,0 6.4802778,0 6.4802776,0 6.48026,0 6.480278,0 6.480278,0 6.480259,0 6.480296,0 6.48026,0 6.480278,0 6.480277,0 6.48026,0 6.480278,0 6.480278,0 6.480278,0 6.480263,0 6.48027,0 6.48028,0 6.48028,0 6.48028,0 6.48026,0 6.48027,0 6.48028,0 6.48026,0 6.48028,0 6.48028,0 6.48026,0 6.48029,0 6.48026,0 6.48028,0 6.48028,0 6.48026,0 6.48028,0 6.48027,0 6.48026,0 6.48028,0 6.48028,0 6.48028,0 6.48028,0 6.48025,0 6.48028,0 6.48028,0 6.48026,0 6.48028,0 6.48028,0 6.48026,0 6.48027,0 6.48028,0 6.48028,0 6.48028,0 6.48026,0 6.48027,0 6.48028,0 6.48028,0 6.48026,0 6.48028,0 6.48028,0 6.48025,0 6.4803,0 6.48026,0 6.48028,0 6.48028,0 6.48026,0 6.48027,0 6.48028,0 6.48026,0 6.48028,0 6.48028,0 6.48027,0 6.48028,0 6.48026,0 6.48028,0 6.48028,0 6.48026,0 6.48027,0 6.48028,0 6.48026,0 6.48028,0 6.48028,0 6.48028,0 6.48027,0 6.48026,0 6.48028,0 6.48028,0 6.48026,0 6.48028,0 6.48027,0 6.48028,0 6.48028,0 6.48026,0 6.48028,0 6.48028,0 6.48027,0 6.48026,0 6.48028,0 6.48028,0 6.48026,0 6.48028,0 6.48027,0 6.48028,0 6.48028,0 6.48026,0 6.48028,0 6.48027,0 6.48026,0 6.48028,0 6.48028,0 6.48026,0 6.4803,0 6.48025,0 6.48028,0 6.48028,0 6.48026,0 6.48028,0 6.48028,0 m -933.15935,-25.921093 6.48028,0 6.48027,0 6.48027,0 6.48028,0 6.48027,0 6.48027,0 6.48028,0 6.48027,0 6.48027,0 6.48027,0 6.48028,0 6.48027,0 6.48027,0 6.48028,0 6.480268,0 6.48027,0 6.480284,0 6.480272,0 6.480272,0 6.480273,0 6.480278,0 6.480259,0 6.480287,0 6.480278,0 6.48026,0 6.480277,0 6.480278,0 6.480278,0 6.480278,0 6.4802596,0 6.4802778,0 6.4802776,0 6.48026,0 6.480278,0 6.480278,0 6.480259,0 6.480296,0 6.48026,0 6.480278,0 6.480277,0 6.48026,0 6.480278,0 6.480278,0 6.480278,0 6.480263,0 6.48027,0 6.48028,0 6.48028,0 6.48028,0 6.48026,0 6.48027,0 6.48028,0 6.48026,0 6.48028,0 6.48028,0 6.48026,0 6.48029,0 6.48026,0 6.48028,0 6.48028,0 6.48026,0 6.48028,0 6.48027,0 6.48026,0 6.48028,0 6.48028,0 6.48028,0 6.48028,0 6.48025,0 6.48028,0 6.48028,0 6.48026,0 6.48028,0 6.48028,0 6.48026,0 6.48027,0 6.48028,0 6.48028,0 6.48028,0 6.48026,0 6.48027,0 6.48028,0 6.48028,0 6.48026,0 6.48028,0 6.48028,0 6.48025,0 6.4803,0 6.48026,0 6.48028,0 6.48028,0 6.48026,0 6.48027,0 6.48028,0 6.48026,0 6.48028,0 6.48028,0 6.48027,0 6.48028,0 6.48026,0 6.48028,0 6.48028,0 6.48026,0 6.48027,0 6.48028,0 6.48026,0 6.48028,0 6.48028,0 6.48028,0 6.48027,0 6.48026,0 6.48028,0 6.48028,0 6.48026,0 6.48028,0 6.48027,0 6.48028,0 6.48028,0 6.48026,0 6.48028,0 6.48028,0 6.48027,0 6.48026,0 6.48028,0 6.48028,0 6.48026,0 6.48028,0 6.48027,0 6.48028,0 6.48028,0 6.48026,0 6.48028,0 6.48027,0 6.48026,0 6.48028,0 6.48028,0 6.48026,0 6.4803,0 6.48025,0 6.48028,0 6.48028,0 6.48026,0 6.48028,0 6.48028,0"
     style="display:inline;fill:none;stroke:#777777;stroke-width:0.54104525px;stroke-opacity:0.5"
     id="path19"
     inkscape:connector-curvature="0" />
  <circle
     id="indicatrix"
     cx="-37.125"
     cy="674"
     transform="matrix(0,-1,1,0,0,0)"
     style="display:inline;fill:#ff0000;fill-opacity:0.5;stroke:#ff0000;stroke-width:2px"
     r="0" />
  <ellipse
     class="listellip"
     cx="-378.68436"
     cy="-36.055695"
     rx="21.641811"
     ry="28.251377"
     transform="matrix(0,-1,1,0,0,0)"
     style="display:inline;fill:#ff0000;fill-opacity:0.5;stroke:#ff0000;stroke-width:2.16418099px"
     id="ellipse24" />
  <circle
     class="listellip"
     cx="-36.055695"
     cy="275"
     style="display:inline;fill:#008000;fill-opacity:0.5;stroke:#008000;stroke-width:2.16418099px"
     id="ellipse26"
     r="21.641811" />
  <ellipse
     class="listellip"
     cx="-171.31564"
     cy="-36.055695"
     rx="21.641811"
     ry="28.251377"
     transform="matrix(0,-1,1,0,0,0)"
     style="display:inline;fill:#ff0000;fill-opacity:0.5;stroke:#ff0000;stroke-width:2.16418099px"
     id="ellipse28" />
  <ellipse
     class="listellip"
     cx="-378.68436"
     cy="119.47087"
     rx="21.641811"
     ry="28.251377"
     transform="matrix(0,-1,1,0,0,0)"
     style="display:inline;fill:#ff0000;fill-opacity:0.5;stroke:#ff0000;stroke-width:2.16418099px"
     id="ellipse30" />
  <circle
     class="listellip"
     cx="275"
     cy="-119.47087"
     transform="matrix(0,1,-1,0,0,0)"
     style="display:inline;fill:#008000;fill-opacity:0.5;stroke:#008000;stroke-width:2.16418099px"
     id="ellipse32"
     r="21.641811" />
  <ellipse
     class="listellip"
     cx="-171.31564"
     cy="119.47087"
     rx="21.641811"
     ry="28.251377"
     transform="matrix(0,-1,1,0,0,0)"
     style="display:inline;fill:#ff0000;fill-opacity:0.5;stroke:#ff0000;stroke-width:2.16418099px"
     id="ellipse34" />
  <ellipse
     class="listellip"
     cx="-378.68436"
     cy="274.99738"
     rx="21.641811"
     ry="28.251377"
     transform="matrix(0,-1,1,0,0,0)"
     style="display:inline;fill:#ff0000;fill-opacity:0.5;stroke:#ff0000;stroke-width:2.16418099px"
     id="ellipse36" />
  <circle
     class="listellip"
     cx="275"
     cy="-274.99738"
     transform="matrix(0,1,-1,0,0,0)"
     style="display:inline;fill:#008000;fill-opacity:0.5;stroke:#008000;stroke-width:2.16418099px"
     id="ellipse38"
     r="21.641811" />
  <ellipse
     class="listellip"
     cx="-171.31564"
     cy="274.99738"
     rx="21.641811"
     ry="28.251377"
     transform="matrix(0,-1,1,0,0,0)"
     style="display:inline;fill:#ff0000;fill-opacity:0.5;stroke:#ff0000;stroke-width:2.16418099px"
     id="ellipse40" />
  <ellipse
     class="listellip"
     cx="-378.68436"
     cy="430.52396"
     rx="21.641811"
     ry="28.251377"
     transform="matrix(0,-1,1,0,0,0)"
     style="display:inline;fill:#ff0000;fill-opacity:0.5;stroke:#ff0000;stroke-width:2.16418099px"
     id="ellipse42" />
  <circle
     class="listellip"
     cx="275"
     cy="-430.52396"
     transform="matrix(0,1,-1,0,0,0)"
     style="display:inline;fill:#008000;fill-opacity:0.5;stroke:#008000;stroke-width:2.16418099px"
     id="ellipse44"
     r="21.641811" />
  <ellipse
     class="listellip"
     cx="-171.31564"
     cy="430.52396"
     rx="21.641811"
     ry="28.251377"
     transform="matrix(0,-1,1,0,0,0)"
     style="display:inline;fill:#ff0000;fill-opacity:0.5;stroke:#ff0000;stroke-width:2.16418099px"
     id="ellipse46" />
  <ellipse
     class="listellip"
     cx="-378.68436"
     cy="586.05048"
     rx="21.641811"
     ry="28.251377"
     transform="matrix(0,-1,1,0,0,0)"
     style="display:inline;fill:#ff0000;fill-opacity:0.5;stroke:#ff0000;stroke-width:2.16418099px"
     id="ellipse48" />
  <circle
     class="listellip"
     cx="275"
     cy="-586.05048"
     transform="matrix(0,1,-1,0,0,0)"
     style="display:inline;fill:#008000;fill-opacity:0.5;stroke:#008000;stroke-width:2.16418099px"
     id="ellipse50"
     r="21.641811" />
  <ellipse
     class="listellip"
     cx="-171.31564"
     cy="586.05048"
     rx="21.641811"
     ry="28.251377"
     transform="matrix(0,-1,1,0,0,0)"
     style="display:inline;fill:#ff0000;fill-opacity:0.5;stroke:#ff0000;stroke-width:2.16418099px"
     id="ellipse52" />
  <ellipse
     class="listellip"
     cx="-430.52658"
     cy="-113.81639"
     rx="21.641811"
     ry="43.283619"
     transform="matrix(0,-1,1,0,0,0)"
     style="display:inline;fill:#ff0000;fill-opacity:0.5;stroke:#ff0000;stroke-width:2.16418099px"
     id="ellipse54" />
  <ellipse
     class="listellip"
     cx="-326.84222"
     cy="-113.81639"
     rx="21.641811"
     ry="23.030733"
     transform="matrix(0,-1,1,0,0,0)"
     style="display:inline;fill:#ff0000;fill-opacity:0.5;stroke:#ff0000;stroke-width:2.16418099px"
     id="ellipse56" />
  <ellipse
     class="listellip"
     cx="-223.15782"
     cy="-113.81639"
     rx="21.641811"
     ry="23.030733"
     transform="matrix(0,-1,1,0,0,0)"
     style="display:inline;fill:#ff0000;fill-opacity:0.5;stroke:#ff0000;stroke-width:2.16418099px"
     id="ellipse58" />
  <ellipse
     class="listellip"
     cx="-119.47344"
     cy="-113.81639"
     rx="21.641811"
     ry="43.283619"
     transform="matrix(0,-1,1,0,0,0)"
     style="display:inline;fill:#ff0000;fill-opacity:0.5;stroke:#ff0000;stroke-width:2.16418099px"
     id="ellipse60" />
  <ellipse
     class="listellip"
     cx="-430.52658"
     cy="41.710171"
     rx="21.641811"
     ry="43.283619"
     transform="matrix(0,-1,1,0,0,0)"
     style="display:inline;fill:#ff0000;fill-opacity:0.5;stroke:#ff0000;stroke-width:2.16418099px"
     id="ellipse62" />
  <ellipse
     class="listellip"
     cx="-326.84222"
     cy="41.710171"
     rx="21.641811"
     ry="23.030733"
     transform="matrix(0,-1,1,0,0,0)"
     style="display:inline;fill:#ff0000;fill-opacity:0.5;stroke:#ff0000;stroke-width:2.16418099px"
     id="ellipse64" />
  <ellipse
     class="listellip"
     cx="-223.15782"
     cy="41.710171"
     rx="21.641811"
     ry="23.030733"
     transform="matrix(0,-1,1,0,0,0)"
     style="display:inline;fill:#ff0000;fill-opacity:0.5;stroke:#ff0000;stroke-width:2.16418099px"
     id="ellipse66" />
  <ellipse
     class="listellip"
     cx="-119.47344"
     cy="41.710171"
     rx="21.641811"
     ry="43.283619"
     transform="matrix(0,-1,1,0,0,0)"
     style="display:inline;fill:#ff0000;fill-opacity:0.5;stroke:#ff0000;stroke-width:2.16418099px"
     id="ellipse68" />
  <ellipse
     class="listellip"
     cx="-430.52658"
     cy="197.23674"
     rx="21.641811"
     ry="43.283619"
     transform="matrix(0,-1,1,0,0,0)"
     style="display:inline;fill:#ff0000;fill-opacity:0.5;stroke:#ff0000;stroke-width:2.16418099px"
     id="ellipse70" />
  <ellipse
     class="listellip"
     cx="-326.84222"
     cy="197.23674"
     rx="21.641811"
     ry="23.030733"
     transform="matrix(0,-1,1,0,0,0)"
     style="display:inline;fill:#ff0000;fill-opacity:0.5;stroke:#ff0000;stroke-width:2.16418099px"
     id="ellipse72" />
  <ellipse
     class="listellip"
     cx="-223.15782"
     cy="197.23674"
     rx="21.641811"
     ry="23.030733"
     transform="matrix(0,-1,1,0,0,0)"
     style="display:inline;fill:#ff0000;fill-opacity:0.5;stroke:#ff0000;stroke-width:2.16418099px"
     id="ellipse74" />
  <ellipse
     class="listellip"
     cx="-119.47344"
     cy="197.23674"
     rx="21.641811"
     ry="43.283619"
     transform="matrix(0,-1,1,0,0,0)"
     style="display:inline;fill:#ff0000;fill-opacity:0.5;stroke:#ff0000;stroke-width:2.16418099px"
     id="ellipse76" />
  <ellipse
     class="listellip"
     cx="-430.52658"
     cy="352.76334"
     rx="21.641811"
     ry="43.283619"
     transform="matrix(0,-1,1,0,0,0)"
     style="display:inline;fill:#ff0000;fill-opacity:0.5;stroke:#ff0000;stroke-width:2.16418099px"
     id="ellipse78" />
  <ellipse
     class="listellip"
     cx="-326.84222"
     cy="352.76334"
     rx="21.641811"
     ry="23.030733"
     transform="matrix(0,-1,1,0,0,0)"
     style="display:inline;fill:#ff0000;fill-opacity:0.5;stroke:#ff0000;stroke-width:2.16418099px"
     id="ellipse80" />
  <ellipse
     class="listellip"
     cx="-223.15782"
     cy="352.76334"
     rx="21.641811"
     ry="23.030733"
     transform="matrix(0,-1,1,0,0,0)"
     style="display:inline;fill:#ff0000;fill-opacity:0.5;stroke:#ff0000;stroke-width:2.16418099px"
     id="ellipse82" />
  <ellipse
     class="listellip"
     cx="-119.47344"
     cy="352.76334"
     rx="21.641811"
     ry="43.283619"
     transform="matrix(0,-1,1,0,0,0)"
     style="display:inline;fill:#ff0000;fill-opacity:0.5;stroke:#ff0000;stroke-width:2.16418099px"
     id="ellipse84" />
  <ellipse
     class="listellip"
     cx="-430.52658"
     cy="508.28986"
     rx="21.641811"
     ry="43.283619"
     transform="matrix(0,-1,1,0,0,0)"
     style="display:inline;fill:#ff0000;fill-opacity:0.5;stroke:#ff0000;stroke-width:2.16418099px"
     id="ellipse86" />
  <ellipse
     class="listellip"
     cx="-326.84222"
     cy="508.28986"
     rx="21.641811"
     ry="23.030733"
     transform="matrix(0,-1,1,0,0,0)"
     style="display:inline;fill:#ff0000;fill-opacity:0.5;stroke:#ff0000;stroke-width:2.16418099px"
     id="ellipse88" />
  <ellipse
     class="listellip"
     cx="-223.15782"
     cy="508.28986"
     rx="21.641811"
     ry="23.030733"
     transform="matrix(0,-1,1,0,0,0)"
     style="display:inline;fill:#ff0000;fill-opacity:0.5;stroke:#ff0000;stroke-width:2.16418099px"
     id="ellipse90" />
  <ellipse
     class="listellip"
     cx="-119.47344"
     cy="508.28986"
     rx="21.641811"
     ry="43.283619"
     transform="matrix(0,-1,1,0,0,0)"
     style="display:inline;fill:#ff0000;fill-opacity:0.5;stroke:#ff0000;stroke-width:2.16418099px"
     id="ellipse92" />
  <ellipse
     class="listellip"
     cx="-430.52658"
     cy="663.81641"
     rx="21.641811"
     ry="43.283619"
     transform="matrix(0,-1,1,0,0,0)"
     style="display:inline;fill:#ff0000;fill-opacity:0.5;stroke:#ff0000;stroke-width:2.16418099px"
     id="ellipse94" />
  <ellipse
     class="listellip"
     cx="-326.84222"
     cy="663.81641"
     rx="21.641811"
     ry="23.030733"
     transform="matrix(0,-1,1,0,0,0)"
     style="display:inline;fill:#ff0000;fill-opacity:0.5;stroke:#ff0000;stroke-width:2.16418099px"
     id="ellipse96" />
  <ellipse
     class="listellip"
     cx="-223.15782"
     cy="663.81641"
     rx="21.641811"
     ry="23.030733"
     transform="matrix(0,-1,1,0,0,0)"
     style="display:inline;fill:#ff0000;fill-opacity:0.5;stroke:#ff0000;stroke-width:2.16418099px"
     id="ellipse98" />
  <ellipse
     class="listellip"
     cx="-119.47344"
     cy="663.81641"
     rx="21.641811"
     ry="43.283619"
     transform="matrix(0,-1,1,0,0,0)"
     style="display:inline;fill:#ff0000;fill-opacity:0.5;stroke:#ff0000;stroke-width:2.16418099px"
     id="ellipse100" />
</svg>
